<svg width="50" height="50" viewBox="0 0 50 50" fill="none" xmlns="http://www.w3.org/2000/svg">
<path d="M18.75 39.5833C18.75 41.1458 18.3125 42.625 17.5417 43.875C16.1042 46.2917 13.4583 47.9167 10.4167 47.9167C7.37499 47.9167 4.72917 46.2917 3.29167 43.875C2.52083 42.625 2.08333 41.1458 2.08333 39.5833C2.08333 34.9792 5.81249 31.25 10.4167 31.25C15.0208 31.25 18.75 34.9792 18.75 39.5833Z" stroke="#46A09D" stroke-width="2" stroke-miterlimit="10" stroke-linecap="round" stroke-linejoin="round"/>
<path d="M7.1696 39.5822L9.2321 41.6446L13.6696 37.5405" stroke="#46A09D" stroke-width="2" stroke-linecap="round" stroke-linejoin="round"/>
<path d="M36.9821 14.6873C36.4821 14.6039 35.9613 14.5831 35.4196 14.5831H14.5863C14.0029 14.5831 13.4404 14.6248 12.8988 14.7081C13.1904 14.1248 13.6071 13.5832 14.1071 13.0832L20.8779 6.2915C23.7321 3.45817 28.3571 3.45817 31.2113 6.2915L34.8571 9.97892C36.1904 11.2914 36.8988 12.9581 36.9821 14.6873Z" stroke="#46A09D" stroke-width="2" stroke-linecap="round" stroke-linejoin="round"/>
<path d="M45.8333 25.0002V35.4168C45.8333 41.6668 41.6667 45.8335 35.4167 45.8335H15.8958C16.5417 45.2918 17.1042 44.6252 17.5417 43.8752C18.3125 42.6252 18.75 41.146 18.75 39.5835C18.75 34.9793 15.0208 31.2502 10.4167 31.2502C7.91667 31.2502 5.68751 32.3543 4.16667 34.0835V25.0002C4.16667 19.3335 7.58334 15.3752 12.8958 14.7085C13.4375 14.6252 14 14.5835 14.5833 14.5835H35.4167C35.9583 14.5835 36.4792 14.6043 36.9792 14.6876C42.3542 15.3126 45.8333 19.2918 45.8333 25.0002Z" stroke="#46A09D" stroke-width="2" stroke-linecap="round" stroke-linejoin="round"/>
<path d="M45.8333 26.0415H39.5833C37.2917 26.0415 35.4167 27.9165 35.4167 30.2082C35.4167 32.4998 37.2917 34.3748 39.5833 34.3748H45.8333" stroke="#46A09D" stroke-width="2" stroke-linecap="round" stroke-linejoin="round"/>
</svg>
