<svg width="296" height="240" viewBox="0 0 296 240" fill="none" xmlns="http://www.w3.org/2000/svg">
<path d="M155.711 6.00564C153.611 -3.63783 139.952 -1.19893 144.654 10.1265C148.993 19.2093 154.535 29.6377 155.599 31.6561C155.627 31.7122 155.655 31.7683 155.683 31.8244C155.711 31.7683 155.739 31.7122 155.767 31.6561C156.83 29.6658 162.372 19.2374 166.711 10.1265C171.47 -1.19893 157.81 -3.66587 155.711 6.00564Z" fill="#46A09D"/>
<path d="M171.497 171.15C170.322 171.15 169.23 170.253 169.202 170.253L168.978 170.057L168.698 170.141C168.222 170.281 167.775 170.365 167.383 170.365C165.591 170.365 165.227 168.795 165.199 168.627L165.087 168.01L164.472 168.207C164.248 168.291 164.024 168.319 163.772 168.319C163.128 168.319 162.512 168.038 162.148 167.59C161.785 167.141 161.673 166.497 161.841 165.796L164.248 154.919L163.464 155.031C163.464 155.031 163.352 155.031 163.184 155.031C162.708 155.031 161.868 154.947 161.393 154.302C160.917 153.685 160.889 152.62 161.281 151.218L163.268 143.958L169.818 127.25L188.012 127.502L183.03 145.556C182.554 147.686 181.882 150.574 181.462 152.34C180.315 157.274 178.131 165.768 177.851 166.581C176.984 169.02 175.584 169.356 174.828 169.356C174.548 169.356 174.353 169.3 174.353 169.3L173.933 169.188L173.709 169.58C173.121 170.617 172.421 171.15 171.497 171.15Z" fill="white"/>
<path d="M170.182 127.782L187.284 128.035L182.498 145.387V145.415V145.444C182.022 147.574 181.35 150.461 180.958 152.2C179.811 157.105 177.627 165.571 177.348 166.384C176.788 167.954 175.92 168.795 174.856 168.795C174.688 168.795 174.548 168.767 174.52 168.767L173.681 168.487L173.233 169.328C172.617 170.477 171.973 170.617 171.553 170.617C170.742 170.617 169.874 170.057 169.622 169.861L169.146 169.468L168.558 169.636C168.138 169.776 167.747 169.833 167.411 169.833C166.151 169.833 165.843 168.823 165.787 168.543L165.591 167.253L164.332 167.674C164.164 167.73 163.996 167.758 163.828 167.758C163.352 167.758 162.904 167.562 162.624 167.225C162.372 166.889 162.288 166.44 162.428 165.88L164.668 155.788L165.031 154.218L163.436 154.442C163.436 154.442 163.352 154.442 163.212 154.442C162.932 154.442 162.204 154.386 161.868 153.938C161.505 153.489 161.505 152.564 161.84 151.359L163.8 144.126L170.182 127.782ZM169.426 126.661L162.736 143.762L160.749 151.05C159.601 155.171 162.204 155.564 163.184 155.564C163.408 155.564 163.548 155.536 163.548 155.536L161.309 165.628C160.861 167.702 162.316 168.851 163.8 168.851C164.08 168.851 164.388 168.795 164.668 168.711C164.668 168.711 165.059 170.926 167.383 170.926C167.803 170.926 168.306 170.842 168.866 170.674C168.866 170.674 170.098 171.711 171.497 171.711C172.421 171.711 173.401 171.262 174.185 169.833C174.185 169.833 174.436 169.917 174.828 169.917C175.752 169.917 177.404 169.496 178.383 166.749C178.691 165.852 180.902 157.218 182.022 152.452C182.442 150.714 183.086 147.854 183.562 145.668L188.74 126.941L169.426 126.661Z" fill="black"/>
<path d="M184.065 152.62C182.89 152.62 182.022 152.508 182.022 152.508H181.966L181.994 152.452C182.358 150.854 183.394 146.397 183.534 145.752C181.238 145.892 179.055 145.976 177.012 145.976C166.291 145.976 162.764 143.846 162.736 143.818L162.708 143.79L181.182 65.1841L201.14 78.6961V78.7242C201.084 79.2007 196.326 127.194 191.623 148.527C190.811 152.087 186.529 152.62 184.065 152.62Z" fill="#55C9C5"/>
<path d="M184.065 152.62C182.89 152.62 182.022 152.508 182.022 152.508H181.966L181.994 152.452C182.386 150.742 183.534 145.724 183.534 145.668V145.64H183.59C183.926 145.612 184.233 145.612 184.541 145.612C187.676 145.612 189.412 146.397 190.335 147.069C191.343 147.798 191.595 148.499 191.595 148.527V148.555V148.583C190.811 152.087 186.529 152.62 184.065 152.62Z" fill="black"/>
<path d="M165.227 168.431C165.171 168.431 165.143 168.431 165.087 168.403C164.78 168.319 164.612 168.01 164.696 167.73C164.724 167.646 166.655 160.105 168.054 154.022C168.11 153.713 168.418 153.517 168.726 153.601C169.034 153.657 169.23 153.966 169.146 154.274C167.775 160.385 165.815 167.954 165.787 168.038C165.703 168.263 165.479 168.431 165.227 168.431Z" fill="black"/>
<path d="M169.146 170.674C169.09 170.674 169.062 170.674 169.006 170.645C168.698 170.561 168.53 170.253 168.614 169.973C168.642 169.889 170.854 161.226 172.253 154.863C172.309 154.554 172.617 154.358 172.925 154.442C173.233 154.498 173.429 154.807 173.345 155.115C171.945 161.507 169.734 170.197 169.706 170.281C169.622 170.505 169.398 170.674 169.146 170.674Z" fill="black"/>
<path d="M173.905 169.833C173.849 169.833 173.793 169.833 173.765 169.804C173.457 169.72 173.289 169.412 173.373 169.104C174.744 164.142 176.424 155.507 176.452 155.423C176.508 155.115 176.816 154.919 177.096 154.975C177.404 155.031 177.6 155.339 177.544 155.62C177.516 155.704 175.836 164.394 174.465 169.412C174.381 169.664 174.157 169.833 173.905 169.833Z" fill="black"/>
<path d="M178.103 156.096C178.075 156.096 178.047 156.096 177.991 156.096L167.075 154.134C166.767 154.078 166.571 153.797 166.627 153.489C166.683 153.181 166.963 152.984 167.271 153.041L178.187 155.003C178.495 155.059 178.691 155.339 178.635 155.648C178.607 155.9 178.383 156.096 178.103 156.096Z" fill="black"/>
<path d="M215.499 203.304C195.346 203.304 181.042 198.539 180.902 198.483L180.818 198.455L201.056 175.944L252.308 170.617C255.947 169.861 259.334 169.468 262.357 169.468C267.199 169.468 270.306 170.477 272.07 171.318C273.973 172.243 274.729 173.14 274.757 173.168C276.016 175.243 275.904 177.626 274.449 180.289C268.851 190.577 243.938 202.575 218.998 203.248C217.823 203.276 216.647 203.304 215.499 203.304Z" fill="black"/>
<path d="M155.627 239.972V239.916C155.627 235.627 158.566 231.618 164.332 225.311C168.67 220.545 170.266 205.295 171.106 194.25L175.556 172.328L204.779 164.73L205.675 188.615C206.29 199.856 206.234 211.714 206.178 216.256V216.284H206.151C198.985 218.33 186.249 224.105 181.658 239.916V239.944L155.627 239.972Z" fill="#46A09D"/>
<path d="M192.883 239.972L190.363 225.03L190.391 225.002C194.59 220.965 199.992 217.91 206.094 216.2L206.178 216.172V216.256C206.15 217.601 206.15 218.358 206.15 218.358C205.367 234.169 203.911 239.888 203.911 239.944V240L192.883 239.972Z" fill="black"/>
<path d="M243.575 239.972C243.519 239.888 238.956 233.272 232.742 216.2L232.714 216.116H232.798C240.188 216.48 247.381 219.115 253.567 223.741L253.595 223.769L252.896 239.972H243.575Z" fill="black"/>
<path d="M266.163 239.972C260.509 226.46 247.101 216.929 232.77 216.228H232.742V216.2C229.831 208.182 227.06 199.099 224.485 189.204C222.665 182.139 221.35 178.018 220.594 176.897L220.538 176.841L251.72 169.524L264.848 195.343C265.436 196.408 266.023 197.557 266.639 198.707C271.678 208.182 277.948 219.984 288.892 228.955C296.758 235.403 295.918 239.888 295.918 239.944V240L266.163 239.972Z" fill="#46A09D"/>
<path d="M199.405 63.8104C199.349 63.7824 193.834 59.8857 189.496 59.8857C186.921 59.8857 185.241 61.2033 184.513 63.8104L181.994 65.2121V65.2401C181.882 66.4736 171.553 188.194 171.106 194.222V194.25L171.134 194.278C171.162 194.278 173.625 195.371 178.747 195.371C184.709 195.371 194.982 193.913 210.069 186.989C234.645 175.692 248.445 171.402 252.336 170.73C255.975 169.973 259.334 169.58 262.357 169.58C269.718 169.58 273.637 171.963 274.673 173.225L274.757 173.169C271.902 167.646 200.16 64.8757 199.405 63.8104Z" fill="#55C9C5"/>
<path d="M223.365 107.066L199.237 63.8104L204.387 64.6514C217.487 70.0618 228.095 76.3693 235.961 83.3777C242.511 89.2366 247.017 95.3759 249.313 101.711L249.201 101.74L223.449 107.01L223.365 107.066Z" fill="#55C9C5"/>
<path d="M223.701 108.159C223.505 108.159 223.309 108.047 223.197 107.879L222.889 107.318C222.749 107.038 222.833 106.701 223.113 106.561C223.393 106.421 223.729 106.505 223.869 106.786L224.177 107.346C224.317 107.627 224.233 107.963 223.953 108.103C223.897 108.131 223.785 108.159 223.701 108.159Z" fill="black"/>
<path d="M223.393 107.598C223.197 107.598 223.001 107.486 222.917 107.318L206.682 78.1354C206.542 77.8551 206.626 77.5187 206.906 77.3786C207.186 77.2384 207.522 77.3225 207.662 77.6028L223.897 106.786C224.037 107.066 223.953 107.402 223.673 107.542C223.589 107.57 223.477 107.598 223.393 107.598Z" fill="black"/>
<path d="M201.84 67.9313C198.453 67.9313 195.71 65.184 195.71 61.792C195.71 58.4 198.453 55.6527 201.84 55.6527C205.227 55.6527 207.97 58.4 207.97 61.792C207.97 65.184 205.227 67.9313 201.84 67.9313Z" fill="white"/>
<path d="M201.84 56.1853C204.919 56.1853 207.41 58.6803 207.41 61.764C207.41 64.8476 204.919 67.3426 201.84 67.3426C198.761 67.3426 196.27 64.8476 196.27 61.764C196.27 58.6803 198.761 56.1853 201.84 56.1853ZM201.84 55.064C198.145 55.064 195.15 58.0636 195.15 61.764C195.15 65.4644 198.145 68.4639 201.84 68.4639C205.535 68.4639 208.53 65.4644 208.53 61.764C208.53 58.0636 205.535 55.064 201.84 55.064Z" fill="black"/>
<path d="M188.012 70.5104C182.834 70.5104 178.439 64.8476 177.292 56.774C175.948 47.3548 178.551 39.2251 183.282 37.9076C184.345 37.5992 185.465 37.459 186.557 37.459C193.47 37.459 198.901 43.262 198.957 43.318C201.532 46.2055 202.54 48.9247 202.232 52.1485C201.896 55.7648 199.88 59.9979 195.934 65.4924C193.582 68.7723 190.839 70.5104 188.012 70.5104Z" fill="white"/>
<path d="M186.585 36.8984V38.0197C193.135 38.0197 198.369 43.4862 198.565 43.6824C202.792 48.4481 203.743 53.7184 195.486 65.156C193.247 68.2677 190.643 69.9217 188.012 69.9217C185.773 69.9217 183.534 68.6882 181.714 66.4455C179.755 64.0347 178.383 60.5585 177.851 56.6899C177.208 52.0925 177.488 47.6912 178.607 44.2712C179.671 41.0754 181.378 39.0289 183.422 38.4402C184.429 38.1599 185.493 38.0197 186.557 38.0197L186.585 36.8984ZM186.585 36.8984C185.465 36.8984 184.317 37.0385 183.142 37.3749C178.187 38.7486 175.36 46.9624 176.732 56.8581C177.935 65.4083 182.722 71.071 188.012 71.071C190.811 71.071 193.778 69.4731 196.382 65.8288C204.555 54.4753 204.303 48.5042 199.377 42.9255C199.377 42.9536 193.834 36.8984 186.585 36.8984Z" fill="black"/>
<path d="M182.862 57.1104C182.722 57.1104 182.61 57.0544 182.498 56.9703C182.05 56.5778 181.686 56.0732 181.49 55.4845V55.4565C181.266 54.5874 181.518 53.1577 182.386 50.3264C182.47 50.018 182.806 49.8778 183.086 49.9619C183.394 50.046 183.534 50.3824 183.45 50.6628C182.974 52.2046 182.358 54.3351 182.554 55.1481C182.694 55.5406 182.918 55.8489 183.226 56.1293C183.45 56.3255 183.478 56.6899 183.282 56.9142C183.17 57.0544 183.03 57.1104 182.862 57.1104Z" fill="black"/>
<path d="M187.061 53.6062C187.033 53.6062 186.977 53.6062 186.949 53.6062C186.641 53.5502 186.445 53.2418 186.501 52.9335L186.641 52.2326C186.697 51.9243 187.005 51.728 187.312 51.7841C187.62 51.8401 187.816 52.1485 187.76 52.4569L187.62 53.1577C187.564 53.41 187.312 53.6062 187.061 53.6062Z" fill="black"/>
<path d="M179.811 50.4665C179.783 50.4665 179.755 50.4665 179.727 50.4665C179.419 50.4105 179.223 50.1301 179.279 49.8218L179.391 49.149C179.447 48.8406 179.727 48.6444 180.035 48.7004C180.343 48.7565 180.538 49.0368 180.482 49.3452L180.371 50.018C180.315 50.2703 180.091 50.4665 179.811 50.4665Z" fill="black"/>
<path d="M184.849 61.0632C184.625 61.0632 184.429 61.0351 184.205 60.9791C184.037 60.951 183.841 60.8669 183.702 60.8109C183.422 60.6987 183.282 60.3623 183.394 60.082C183.506 59.8017 183.841 59.6615 184.121 59.7736C184.233 59.8297 184.345 59.8577 184.429 59.8857C185.381 60.11 186.305 59.5213 186.529 58.5962C186.585 58.2879 186.893 58.0916 187.2 58.1757C187.508 58.2318 187.704 58.5402 187.62 58.8485C187.34 60.1661 186.165 61.0632 184.849 61.0632Z" fill="black"/>
<path d="M202.763 63.2497C202.68 63.2497 202.568 63.2217 202.484 63.1656L199.069 61.2594C198.789 61.1192 198.705 60.7548 198.845 60.5025C198.985 60.2221 199.349 60.138 199.601 60.2782L203.015 62.1845C203.295 62.3246 203.379 62.6891 203.239 62.9414C203.155 63.1376 202.959 63.2497 202.763 63.2497Z" fill="black"/>
<path d="M204.443 44.3833C210.163 44.3833 214.8 39.7394 214.8 34.011C214.8 28.2825 210.163 23.6386 204.443 23.6386C198.723 23.6386 194.086 28.2825 194.086 34.011C194.086 39.7394 198.723 44.3833 204.443 44.3833Z" fill="black"/>
<path d="M259.558 170.197C259.53 170.197 259.502 170.197 259.474 170.197C259.166 170.141 258.942 169.861 258.998 169.552L261.181 153.713C261.237 153.405 261.517 153.181 261.825 153.237C262.133 153.293 262.357 153.573 262.301 153.882L260.117 169.72C260.061 170.001 259.837 170.197 259.558 170.197Z" fill="black"/>
<path d="M232.406 177.962C232.294 177.962 232.182 177.934 232.07 177.85L213.316 163.553C213.12 163.413 213.036 163.133 213.148 162.908C213.232 162.684 213.484 162.516 213.736 162.572L239.628 165.571L237.192 144.126C237.164 143.874 237.332 143.621 237.556 143.537C237.808 143.453 238.088 143.537 238.228 143.79L249.565 162.432L258.802 149.873C258.998 149.62 259.333 149.564 259.585 149.761C259.837 149.957 259.893 150.293 259.697 150.546L249.956 163.777C249.844 163.917 249.677 164.002 249.481 164.002C249.285 164.002 249.117 163.889 249.033 163.721L238.592 146.565L240.831 166.188C240.859 166.356 240.803 166.525 240.663 166.637C240.523 166.749 240.383 166.805 240.216 166.805L215.639 163.946L232.77 177.009C233.022 177.205 233.05 177.542 232.882 177.794C232.742 177.878 232.574 177.962 232.406 177.962Z" fill="black"/>
<path d="M186.221 195.063H186.193C185.885 195.035 185.661 194.782 185.661 194.474L186.781 178.467C186.781 178.299 186.893 178.158 187.005 178.046C187.144 177.962 187.312 177.906 187.48 177.962L200.3 181.522L188.88 170.898C188.656 170.702 188.628 170.337 188.852 170.113L200.02 157.862L185.241 161.787C185.073 161.815 184.933 161.815 184.793 161.703C184.653 161.591 184.569 161.479 184.541 161.31L182.386 146.116L177.795 161.002C177.739 161.142 177.655 161.282 177.516 161.338C177.376 161.394 177.208 161.423 177.068 161.366L173.989 160.245C173.709 160.133 173.541 159.825 173.653 159.516C173.765 159.236 174.073 159.068 174.381 159.18L176.9 160.105L182.05 143.397C182.134 143.145 182.358 142.977 182.638 143.005C182.89 143.033 183.114 143.229 183.142 143.481L185.577 160.525L201.588 156.264C201.84 156.208 202.092 156.292 202.204 156.517C202.344 156.741 202.316 156.993 202.148 157.189L190.056 170.421L202.736 182.251C202.931 182.419 202.959 182.7 202.848 182.924C202.708 183.148 202.456 183.26 202.204 183.204L187.844 179.224L186.781 194.558C186.753 194.838 186.501 195.063 186.221 195.063Z" fill="black"/>
<path d="M182.862 195.623C182.61 195.623 182.386 195.455 182.33 195.203L178.355 180.569L172.281 184.858C172.029 185.027 171.665 184.971 171.497 184.718C171.329 184.466 171.385 184.13 171.637 183.933L178.355 179.168C178.495 179.055 178.691 179.027 178.859 179.084C179.027 179.14 179.167 179.28 179.223 179.476L183.422 194.894C183.506 195.203 183.338 195.511 183.03 195.595C182.946 195.623 182.918 195.623 182.862 195.623Z" fill="black"/>
<path d="M271.118 239.972V239.916C273.077 229.908 279.319 223.208 281.167 221.386L281.223 221.358L281.251 221.414C283.602 224.133 286.177 226.684 288.948 228.955C296.814 235.403 295.974 239.888 295.974 239.944V240H271.118V239.972Z" fill="black"/>
<path d="M155.627 239.972V239.916C155.627 235.627 158.566 231.618 164.332 225.311C164.64 224.946 164.948 224.582 165.199 224.161L165.227 224.105L165.283 224.133C170.994 227.862 174.465 233.02 175.948 239.888L175.976 239.944L155.627 239.972Z" fill="black"/>
<path d="M197.081 131.483C194.814 131.483 192.687 130.978 190.839 129.941C185.997 127.306 183.198 121.559 183.002 113.766C182.806 105.973 185.185 97.086 189.72 88.704C197.193 74.9396 208.81 65.6886 218.635 65.6886C220.902 65.6886 223.029 66.1932 224.877 67.2305C234.897 72.6689 235.401 91.1709 225.996 108.468C218.523 122.232 206.906 131.483 197.081 131.483Z" fill="#46A09D"/>
<path d="M216.367 94.0584C210.181 94.0584 205.143 89.0124 205.143 82.817C205.143 76.6216 210.181 71.5756 216.367 71.5756C222.553 71.5756 227.592 76.6216 227.592 82.817C227.592 89.0124 222.553 94.0584 216.367 94.0584Z" fill="white"/>
<path d="M226.164 88.1994C220.734 85.2279 218.691 78.3877 221.658 72.9493L221.686 72.8932L221.742 72.9212C224.373 74.3509 226.304 76.7338 227.144 79.6212C227.984 82.5086 227.676 85.5362 226.248 88.1994L226.22 88.2555L226.164 88.1994Z" fill="black"/>
<path d="M211.861 78.8643C210.013 78.8643 208.138 78.3877 206.514 77.4907L206.458 77.4626L206.486 77.4066C208.446 73.7903 212.253 71.5196 216.367 71.5196C218.215 71.5196 220.09 71.9961 221.714 72.8932L221.77 72.9212L221.742 72.9773C219.782 76.6216 216.003 78.8643 211.861 78.8643Z" fill="black"/>
<path d="M210.685 82.3404C210.573 82.3404 210.489 82.3124 210.377 82.2563C210.125 82.0881 210.041 81.7517 210.209 81.4714L210.349 81.2471C210.517 80.9948 210.853 80.9107 211.133 81.0789C211.385 81.2471 211.469 81.5835 211.301 81.8639L211.161 82.0881C211.049 82.2563 210.881 82.3404 210.685 82.3404Z" fill="black"/>
<path d="M220.286 87.5827C220.202 87.5827 220.146 87.5546 220.062 87.5266C219.782 87.4145 219.642 87.0781 219.782 86.7977L219.894 86.5454C220.006 86.2651 220.342 86.1249 220.622 86.2651C220.902 86.3772 221.042 86.7136 220.902 86.994L220.79 87.2463C220.706 87.4705 220.51 87.5827 220.286 87.5827Z" fill="black"/>
<path d="M214.744 88.6479C214.268 88.6479 213.792 88.5358 213.344 88.2835C211.945 87.5266 211.441 85.7605 212.197 84.3588C212.337 84.0785 212.672 83.9944 212.952 84.1346C213.232 84.2747 213.316 84.6111 213.176 84.8915C212.7 85.7325 213.036 86.8258 213.876 87.3023C214.296 87.5266 214.772 87.5827 215.248 87.4425C215.695 87.3023 216.059 87.022 216.283 86.6015C216.423 86.3212 216.759 86.2371 217.039 86.3772C217.319 86.5174 217.403 86.8538 217.263 87.1341C216.899 87.8069 216.283 88.3115 215.555 88.5358C215.304 88.6199 215.024 88.6479 214.744 88.6479Z" fill="black"/>
<path d="M196.438 111.383C196.41 111.383 196.41 111.383 196.382 111.383C195.29 111.383 194.282 110.934 193.498 110.15L193.358 110.009C193.191 109.841 193.023 109.645 192.883 109.449C191.623 107.598 192.127 105.075 193.974 103.786L210.517 92.6007C210.741 92.4605 211.049 92.4885 211.245 92.6847C211.441 92.881 211.469 93.1894 211.301 93.4136L199.712 109.673L199.684 109.701C199.545 109.869 199.377 110.065 199.237 110.206C198.509 110.962 197.501 111.383 196.438 111.383ZM208.614 95.2918L194.646 104.739C193.302 105.664 192.939 107.514 193.834 108.832C193.918 108.972 194.03 109.112 194.17 109.224L194.31 109.365C194.87 109.953 195.598 110.262 196.382 110.262C197.165 110.262 197.921 109.981 198.453 109.421C198.565 109.309 198.705 109.168 198.817 109L208.614 95.2918Z" fill="black"/>
<path d="M211.049 110.29H210.853C208.754 110.29 207.046 108.58 207.046 106.477C207.046 106.113 207.102 105.776 207.186 105.496L210.405 92.9651C210.461 92.7128 210.685 92.5446 210.937 92.5446C211.189 92.5446 211.413 92.7128 211.469 92.9651L214.716 105.496C215.248 107.514 214.016 109.617 212.001 110.15H211.973L211.889 110.178C211.637 110.234 211.357 110.29 211.049 110.29ZM210.937 95.3479L208.25 105.804V105.832C208.194 106.001 208.166 106.197 208.166 106.477C208.166 107.963 209.369 109.168 210.853 109.168H211.049C211.245 109.168 211.441 109.14 211.665 109.084H211.721C213.148 108.692 213.988 107.206 213.624 105.776L210.937 95.3479Z" fill="black"/>
<path d="M199.545 95.7684C199.293 95.7684 199.041 95.5722 198.985 95.3199C198.929 95.0115 199.125 94.7312 199.433 94.6751L210.825 92.5726C211.133 92.5165 211.413 92.7128 211.469 93.0211C211.525 93.3295 211.329 93.6098 211.021 93.6659L199.629 95.7684C199.601 95.7684 199.573 95.7684 199.545 95.7684Z" fill="black"/>
<path d="M196.857 147.938C195.066 147.938 193.946 147.406 193.414 146.313L193.246 146.004H192.911C192.883 146.004 191.259 145.976 190.475 145.051C190.111 144.603 190 144.042 190.112 143.285L190.195 142.836L189.776 142.668C189.776 142.668 188.572 142.136 188.292 141.126C188.124 140.51 188.32 139.809 188.908 139.024L189.216 138.603L188.824 138.267C188.824 138.267 187.816 137.398 187.928 136.333C188.04 135.464 188.88 134.623 190.391 133.866L198.453 129.829L196.997 129.465C195.374 129.044 195.654 127.614 195.738 127.334C195.962 126.409 198.901 124.475 202.316 122.204C203.939 121.111 205.815 119.877 207.802 118.503L224.317 110.037L233.386 131.175L224.597 135.968C221.825 137.622 216.367 140.482 216.311 140.51C207.018 145.528 200.664 147.938 196.857 147.938Z" fill="white"/>
<path d="M223.981 110.822L232.63 130.922L224.289 135.492H224.261H224.233C221.49 137.146 216.059 139.977 216.003 140.033C206.962 144.911 200.524 147.378 196.857 147.378C194.562 147.378 194.058 146.397 193.89 146.06L193.582 145.444H192.883C192.603 145.444 191.399 145.331 190.867 144.687C190.783 144.574 190.475 144.238 190.615 143.369L190.755 142.5L189.944 142.164C189.664 142.051 188.936 141.603 188.768 140.986C188.656 140.538 188.824 140.005 189.3 139.36L189.916 138.519L189.104 137.846C189.104 137.846 188.32 137.146 188.404 136.417C188.488 135.772 189.244 135.043 190.559 134.37L197.277 131.006L200.132 129.605L197.081 128.904C197.081 128.904 196.717 128.792 196.438 128.539C196.242 128.343 196.046 128.063 196.186 127.446C196.438 126.689 199.684 124.531 202.54 122.652C204.163 121.559 206.01 120.354 207.998 118.952L223.981 110.822ZM224.541 109.28L207.466 118.055C200.748 122.736 195.542 125.624 195.15 127.222C194.59 129.464 196.829 130.025 196.829 130.025L190.112 133.389C185.073 135.912 188.432 138.716 188.432 138.716C186.193 141.799 189.552 143.201 189.552 143.201C188.992 146.565 192.911 146.565 192.911 146.565C193.582 147.91 194.982 148.499 196.857 148.499C201.448 148.499 209.006 145.079 216.535 141.014C216.535 141.014 222.021 138.127 224.821 136.445L234.058 131.399L224.541 109.28Z" fill="black"/>
<path d="M250.908 109.28C250.768 106.673 250.236 104.122 249.313 101.711V101.683L232.406 100.842L223.393 107.01C218.215 110.963 211.945 115.28 207.438 117.999L207.382 118.027L207.41 118.083C207.438 118.111 209.537 121.559 214.156 125.316C214.8 125.848 215.415 126.325 215.975 126.773C219.39 129.493 221.881 131.455 224.737 136.445L226.808 145.752C233.526 141.407 239.656 135.408 244.106 128.876C248.753 122.064 251.16 115.111 250.908 109.28Z" fill="#55C9C5"/>
<path d="M226.808 145.724C226.612 145.724 226.416 145.612 226.304 145.444C226.164 145.163 226.248 144.827 226.528 144.687C231.231 142.08 238.452 135.912 243.967 128.035C244.134 127.783 244.498 127.726 244.75 127.895C245.002 128.063 245.058 128.427 244.89 128.68C239.264 136.697 231.874 143.005 227.06 145.668C227.004 145.696 226.892 145.724 226.808 145.724Z" fill="black"/>
<path d="M225.156 145.976C222.749 145.976 220.51 144.631 219.082 143.509C217.515 142.304 216.507 141.07 216.507 141.042L216.451 140.986L224.737 136.417L224.765 136.473C228.095 142.584 226.836 145.696 226.808 145.724V145.752H226.78C226.248 145.92 225.716 145.976 225.156 145.976Z" fill="black"/>
<path d="M198.677 130.362C198.481 130.362 198.285 130.249 198.173 130.053C198.033 129.773 198.145 129.436 198.397 129.296L203.267 126.717C203.547 126.577 203.883 126.689 204.023 126.941C204.163 127.222 204.051 127.558 203.799 127.698L198.929 130.277C198.845 130.334 198.761 130.362 198.677 130.362Z" fill="black"/>
<path d="M189.272 139.276C189.02 139.276 188.796 139.108 188.74 138.884C188.656 138.575 188.824 138.267 189.104 138.183C193.554 136.837 198.817 134.426 202.456 132.604C202.735 132.464 203.071 132.576 203.211 132.857C203.351 133.137 203.239 133.473 202.959 133.613C199.293 135.436 193.946 137.903 189.44 139.248C189.384 139.276 189.328 139.276 189.272 139.276Z" fill="black"/>
<path d="M190.111 143.481C189.86 143.481 189.664 143.313 189.58 143.089C189.496 142.78 189.664 142.472 189.943 142.388C190.027 142.36 198.061 139.893 204.499 136.893C204.779 136.753 205.115 136.893 205.255 137.174C205.395 137.454 205.255 137.79 204.975 137.931C198.453 140.958 190.335 143.453 190.251 143.481C190.223 143.481 190.167 143.481 190.111 143.481Z" fill="black"/>
<path d="M193.471 146.565C193.219 146.565 192.967 146.369 192.911 146.116C192.855 145.808 193.051 145.528 193.359 145.472C193.415 145.472 198.537 144.462 206.178 140.734C206.458 140.594 206.794 140.706 206.934 140.986C207.074 141.267 206.962 141.603 206.682 141.743C198.901 145.556 193.806 146.537 193.582 146.593C193.527 146.565 193.499 146.565 193.471 146.565Z" fill="black"/>
<path d="M207.746 119.092C207.578 119.092 207.382 119.008 207.298 118.84C207.13 118.588 207.186 118.223 207.438 118.055L230.979 101.796C231.231 101.627 231.594 101.683 231.762 101.936C231.93 102.188 231.874 102.552 231.622 102.721L208.082 118.98C207.97 119.064 207.858 119.092 207.746 119.092Z" fill="black"/>
<path d="M239.684 134.791C239.6 134.791 239.516 134.763 239.432 134.735L230.195 130.249C230.055 130.193 229.943 130.053 229.915 129.913C229.859 129.773 229.887 129.605 229.943 129.465L239.544 111.271L219.166 120.157C218.998 120.242 218.802 120.213 218.634 120.101C218.467 119.989 218.383 119.821 218.383 119.625V110.654C218.383 110.346 218.634 110.093 218.942 110.093C219.25 110.093 219.502 110.346 219.502 110.654V118.756L240.552 109.561C240.775 109.477 241.027 109.533 241.195 109.701C241.363 109.869 241.391 110.121 241.279 110.346L231.202 129.465L239.908 133.698C240.188 133.838 240.3 134.174 240.16 134.454C240.104 134.679 239.88 134.791 239.684 134.791Z" fill="black"/>
<path d="M175.22 146.228C175.192 146.228 175.192 146.228 175.164 146.228C174.856 146.2 174.632 145.92 174.66 145.612L179.335 90.2178C179.363 89.9094 179.643 89.6852 179.951 89.7132C180.259 89.7412 180.483 90.0216 180.455 90.3299L175.78 145.724C175.752 146.004 175.5 146.228 175.22 146.228Z" fill="black"/>
<path d="M183.142 37.3749C191.987 34.908 199.377 42.9536 199.377 42.9536C204.051 48.2238 204.527 53.8586 197.613 64.0907C197.613 64.0907 190.531 56.774 195.794 44.2992C185.521 48.1117 177.879 43.0097 177.879 43.0097C179.083 40.0381 180.874 37.9917 183.142 37.3749Z" fill="black"/>
<path d="M164.108 156.096C164.052 156.096 164.024 156.096 163.968 156.068C163.66 155.984 163.492 155.676 163.548 155.395L164.948 149.789C165.031 149.48 165.339 149.312 165.619 149.368C165.927 149.452 166.095 149.761 166.039 150.041L164.64 155.648C164.584 155.928 164.36 156.096 164.108 156.096Z" fill="black"/>
<path d="M33.893 222.451L42.8222 203.472C43.6619 201.931 44.4737 200.417 45.2294 198.987C45.8452 197.81 46.461 196.688 47.0209 195.623L55.1383 179.953L67.5103 161.619L84.8369 188.447L77.2513 218.162C75.8797 221.834 74.4522 225.254 73.0526 228.394L69.8616 232.01L33.893 222.451Z" fill="white"/>
<path d="M67.5105 162.628L84.2492 188.559L76.7476 218.022C75.376 221.638 74.0045 225.03 72.6049 228.114L69.6938 231.394L34.7049 222.115L43.3262 203.781C44.1659 202.239 44.9777 200.753 45.7334 199.296C46.3492 198.118 46.937 196.997 47.5249 195.932L55.6143 180.289L67.5105 162.628ZM67.5385 160.581L54.6626 179.644L46.5452 195.343C45.2296 197.754 43.858 200.445 42.3185 203.22L33.1094 222.816L70.0577 232.627L73.5286 228.703C74.8162 225.871 76.2437 222.423 77.7833 218.33L85.4528 188.334L67.5385 160.581Z" fill="black"/>
<path d="M15.419 239.972V239.916C15.419 239.86 14.5793 235.374 22.4448 228.927C31.6818 221.358 37.644 211.658 42.2905 203.192L42.3185 203.136L42.3745 203.164C54.3547 209.64 64.8513 218.218 73.6126 228.646L73.6405 228.674L73.6126 228.703C70.0297 236.608 67.6225 239.888 67.5945 239.916L67.5665 239.944L15.419 239.972Z" fill="#A8CA48"/>
<path d="M77.7832 218.386C77.7552 218.358 73.5565 215.218 68.3502 206.024C66.5587 202.884 65.0752 199.352 63.6197 195.932C61.1844 190.213 58.6932 184.298 54.6905 179.728L41.1708 175.439C41.5627 173.729 45.0336 169.692 51.3596 162.404C58.4693 154.19 69.1899 141.799 82.8775 124.11C95.2776 108.103 98.8045 103.421 98.8325 103.365V103.337H98.8605C98.8885 103.337 101.688 102.637 104.991 102.637C109.189 102.637 112.408 103.758 114.284 105.86C115.991 107.767 116.663 110.542 116.271 114.046C115.039 125.035 110.253 134.258 104.711 144.967C98.7205 156.545 91.9467 169.636 86.8803 189.175C84.0812 199.996 81.0301 209.808 77.8391 218.33L77.8112 218.386H77.7832Z" fill="#7C9732"/>
<path d="M46.4891 195.371C46.4052 195.259 39.1835 184.017 41.1708 175.411C41.1988 175.383 42.3465 174.094 44.6697 174.094C47.5808 174.094 50.7998 175.944 54.5506 179.588L54.6626 179.728L46.5451 195.427L46.4891 195.371Z" fill="black"/>
<path d="M33.3893 218.582C33.3333 218.582 33.2493 218.582 33.1933 218.554L4.75437 208.378C2.93495 207.734 1.5074 206.416 0.695657 204.678C-0.116086 202.94 -0.22805 201.006 0.415745 199.183C0.611683 198.679 0.80762 198.258 1.03155 197.866C2.03923 196.212 3.63472 195.062 5.48214 194.614C7.35754 194.165 9.26094 194.474 10.9124 195.511C11.3603 195.791 11.7801 196.128 12.172 196.492L33.7812 217.629C33.9771 217.826 34.0051 218.106 33.8651 218.33C33.7532 218.498 33.5852 218.582 33.3893 218.582ZM7.1616 195.567C6.68575 195.567 6.2379 195.623 5.76205 195.735C4.19454 196.1 2.85097 197.081 2.01124 198.455C1.8153 198.791 1.64736 199.183 1.47941 199.604C0.947578 201.118 1.03155 202.744 1.70334 204.229C2.40312 205.687 3.60674 206.808 5.14625 207.341L31.178 216.648L11.3883 197.305C11.0804 196.997 10.7165 196.716 10.3526 196.492C9.37291 195.875 8.28125 195.567 7.1616 195.567Z" fill="black"/>
<path d="M33.5012 218.442C33.3053 218.442 33.1093 218.33 32.9974 218.134L22.6686 197.557C21.9969 196.212 21.8849 194.698 22.3607 193.268C22.8366 191.839 23.8163 190.717 25.1599 190.045C25.4398 189.876 25.8036 189.736 26.2515 189.652C29.2186 188.867 32.2696 190.661 33.0813 193.633C33.1653 194.053 33.2493 194.446 33.2773 194.866L34.061 217.882C34.061 218.134 33.8931 218.386 33.6412 218.442C33.5852 218.442 33.5572 218.442 33.5012 218.442ZM27.6511 190.577C27.2872 190.577 26.8953 190.633 26.5314 190.717C26.1955 190.801 25.9156 190.914 25.6917 191.026C24.6 191.558 23.8163 192.483 23.4244 193.605C23.0325 194.754 23.1445 195.96 23.6763 197.025L32.8574 215.331L32.1576 194.894C32.1296 194.558 32.0737 194.221 32.0177 193.885C31.4579 191.923 29.6384 190.577 27.6511 190.577Z" fill="black"/>
<path d="M12.4239 230.945C12.116 230.945 11.8641 230.693 11.8641 230.413C11.8641 230.104 12.088 229.852 12.3959 229.824C12.3959 229.824 13.4036 229.768 14.7472 228.899C15.9788 228.086 17.7702 226.404 19.2257 222.9C22.9206 213.957 28.8267 215.947 33.5572 217.545C33.8371 217.657 34.005 217.966 33.9211 218.246C33.8091 218.526 33.5012 218.695 33.2213 218.611H33.1933C28.4628 217.013 23.5364 215.359 20.2614 223.32C17.2104 230.721 12.6478 230.945 12.4239 230.945Z" fill="black"/>
<path d="M71.1773 211.322C71.0934 211.322 71.0374 211.294 70.9534 211.266C70.6735 211.154 70.5335 210.817 70.6735 210.537C73.1647 204.818 75.0961 199.548 77.3354 193.465C80.1345 185.812 83.3255 177.177 88.5878 164.843C96.9012 145.415 115.599 114.074 115.767 113.766C115.935 113.514 116.271 113.401 116.523 113.57C116.775 113.738 116.887 114.074 116.719 114.326C116.523 114.635 97.8809 145.92 89.5955 165.291C84.3332 177.598 81.1702 186.232 78.3711 193.857C76.1318 199.968 74.2004 205.239 71.6812 210.985C71.5972 211.21 71.4013 211.322 71.1773 211.322Z" fill="black"/>
<path d="M52.9831 178.242C52.8711 178.242 52.7591 178.214 52.6752 178.13C52.4232 177.962 52.3673 177.598 52.5352 177.345C82.7096 134.118 101.352 108.355 101.52 108.103C101.688 107.851 102.052 107.795 102.303 107.991C102.555 108.187 102.611 108.524 102.415 108.776C102.219 109.028 83.6054 134.791 53.4309 178.018C53.347 178.158 53.151 178.242 52.9831 178.242Z" fill="black"/>
<path d="M62.2202 193.1C62.1362 193.1 62.0522 193.072 61.9403 193.044C61.6603 192.904 61.5764 192.568 61.7163 192.287C84.949 149.396 104.823 112.672 104.823 112.672C104.963 112.392 105.299 112.308 105.578 112.448C105.858 112.588 105.942 112.925 105.802 113.205C105.802 113.205 85.9286 149.929 62.696 192.82C62.612 192.988 62.4161 193.1 62.2202 193.1Z" fill="black"/>
<path d="M106.25 228.59C105.998 225.479 105.886 222.031 105.886 218.33C105.886 218.246 105.886 209.023 106.446 202.407L107.538 185.755L135.949 181.971L141.127 207.313C141.407 209.444 141.715 211.434 142.023 213.2L144.458 229.964L108.545 235.963L106.25 228.59Z" fill="white"/>
<path d="M135.501 182.588L140.567 207.397C140.847 209.528 141.155 211.518 141.463 213.256L143.814 229.459L108.909 235.29L106.81 228.506C106.586 225.423 106.446 222.003 106.446 218.33C106.446 218.246 106.446 209.051 107.006 202.435L108.07 186.26L135.501 182.588ZM136.397 181.326L107.006 185.251L105.886 202.351C105.326 209.079 105.326 218.33 105.326 218.33C105.326 222.451 105.466 225.899 105.69 228.703L108.126 236.552L145.074 230.385L142.583 213.06C142.247 211.21 141.939 209.247 141.687 207.201L136.397 181.326Z" fill="black"/>
<path d="M107.538 239.972C107.538 239.916 106.306 236.748 105.662 228.731V228.703L105.69 228.674C110.085 225.395 122.485 217.321 142.555 213.004H142.611V213.06C143.758 219.255 145.214 223.264 147.061 225.31C152.827 231.646 155.766 235.627 155.766 239.916V239.972H107.538Z" fill="#A8CA48"/>
<path d="M93.7941 207.677C93.8221 205.295 96.2293 195.455 104.991 175.131C110.225 162.992 108.825 150.321 107.482 138.043C106.53 129.436 105.55 120.55 106.95 112.056V112L135.053 113.682L133.346 121.026C133.877 125.848 134.437 130.53 135.025 135.492C136.341 146.453 137.852 158.871 139.224 176.532C139.448 179.28 139.616 182.139 139.811 185.195C140.007 188.278 140.231 191.446 140.455 194.586C140.651 197.277 140.875 199.604 141.071 201.762C141.267 203.725 141.463 205.491 141.687 207.145V207.201L141.659 207.229C141.631 207.229 139.923 207.93 136.369 207.93C132.394 207.93 127.775 207.089 122.653 205.463C113.836 202.66 108.685 202.351 106.866 202.351C106.362 202.351 106.054 202.379 105.942 202.379L93.7941 207.677Z" fill="#7C9732"/>
<path d="M105.326 218.386C105.214 218.358 95.3336 216.172 93.962 209.556C93.8221 208.939 93.7941 208.322 93.7941 207.678V207.649C93.8221 207.593 95.8654 202.968 105.774 202.407H105.914C105.634 207.145 105.354 218.218 105.354 218.33V218.386H105.326Z" fill="black"/>
<path d="M131.638 208.238C131.33 208.238 131.078 207.986 131.078 207.706C129.427 146.761 126.908 119.429 126.88 119.148C126.852 118.84 127.075 118.56 127.383 118.531C127.691 118.503 127.971 118.728 127.999 119.036C128.027 119.316 130.546 146.677 132.198 207.65C132.198 207.958 131.974 208.238 131.638 208.238Z" fill="black"/>
<path d="M114.004 203.753C113.976 203.753 113.948 203.753 113.92 203.753C113.612 203.725 113.388 203.444 113.444 203.136C113.724 201.09 114.004 198.903 114.312 196.632C115.627 186.961 117.111 175.972 118.202 163.329C119.574 147.294 119.042 117.158 119.042 116.849C119.042 116.541 119.294 116.289 119.602 116.289C119.91 116.261 120.162 116.541 120.162 116.849C120.162 117.158 120.694 147.35 119.322 163.441C118.23 176.084 116.747 187.101 115.431 196.801C115.123 199.071 114.843 201.23 114.564 203.276C114.536 203.557 114.284 203.753 114.004 203.753Z" fill="black"/>
<path d="M135.193 137.65C134.521 132.184 133.346 121.923 133.262 121.111C132.646 121.082 132.03 121.082 131.414 121.082C124.752 121.082 119.658 122.4 114.228 123.83C108.741 125.259 103.031 126.745 95.5016 126.745C85.5087 126.745 79.2667 124.39 75.7678 122.4C71.989 120.241 70.5615 118.055 70.5335 118.027L70.5055 117.999L111.988 63.8664L126.6 67.2304L144.794 126.409C144.822 126.465 146.837 132.492 135.221 137.734L135.165 137.762L135.193 137.65Z" fill="#A8CA48"/>
<path d="M135.221 137.65C134.549 132.184 133.374 121.924 133.29 121.111H133.402C143.142 121.671 144.85 126.297 144.878 126.353C144.906 126.409 146.921 132.436 135.305 137.678L135.249 137.706L135.221 137.65Z" fill="black"/>
<path d="M114.536 147.938C110.729 147.938 104.375 145.528 95.1377 140.538C95.0817 140.51 89.6234 137.65 86.8803 135.996L78.0631 131.174L87.1322 110.037L103.647 118.503C105.634 119.905 107.482 121.111 109.133 122.204C112.548 124.475 115.487 126.409 115.711 127.334C116.131 128.988 114.62 129.408 114.452 129.464L112.996 129.829L121.057 133.866C122.569 134.623 123.409 135.464 123.521 136.333C123.661 137.398 122.653 138.267 122.625 138.267L122.233 138.603L122.541 139.024C123.101 139.809 123.325 140.51 123.157 141.126C122.877 142.136 121.673 142.64 121.673 142.668L121.281 142.836L121.365 143.285C121.477 144.042 121.365 144.602 121.002 145.051C120.218 145.976 118.566 146.004 118.566 146.004H118.23L118.062 146.312C117.447 147.406 116.299 147.938 114.536 147.938Z" fill="white"/>
<path d="M87.4121 110.822L103.367 119.008C105.354 120.382 107.202 121.615 108.825 122.708C111.68 124.587 114.899 126.745 115.179 127.502C115.347 128.119 115.151 128.399 114.955 128.595C114.675 128.848 114.34 128.96 114.34 128.96L111.289 129.633L114.088 131.034L120.806 134.398C122.121 135.043 122.877 135.772 122.961 136.417C123.045 137.146 122.289 137.846 122.261 137.846L121.449 138.519L122.065 139.36C122.541 140.005 122.709 140.538 122.597 140.986C122.429 141.603 121.701 142.051 121.421 142.164L120.61 142.5L120.75 143.369C120.89 144.238 120.61 144.574 120.526 144.687C120.022 145.275 118.874 145.443 118.51 145.443H117.81L117.503 146.06C117.335 146.397 116.859 147.378 114.536 147.378C110.869 147.378 104.431 144.911 95.3896 140.033C95.3336 140.005 89.9033 137.146 87.1602 135.52H87.1322H87.1042L78.7629 130.95L87.4121 110.822ZM86.8523 109.28L77.3353 131.427L86.5724 136.473C89.3715 138.155 94.8578 141.042 94.8578 141.042C102.359 145.079 109.917 148.527 114.536 148.527C116.439 148.527 117.81 147.938 118.482 146.593C118.482 146.593 122.401 146.593 121.841 143.229C121.841 143.229 125.2 141.827 122.961 138.743C122.961 138.743 126.32 135.94 121.281 133.417L114.564 130.053C114.564 130.053 116.803 129.492 116.243 127.25C115.851 125.652 110.645 122.765 103.927 118.083L86.8523 109.28Z" fill="black"/>
<path d="M84.613 145.78C77.8952 141.435 71.7371 135.436 67.2865 128.904C62.64 122.064 60.2328 115.111 60.4847 109.28C60.7926 102.468 64.4314 94.9274 70.7014 88.0031C78.7909 79.1166 90.995 71.2672 106.978 64.6514L112.156 63.8104L88.0559 107.01C93.2343 110.962 99.4763 115.28 103.983 117.971L104.039 117.999L104.011 118.055C103.983 118.083 101.884 121.531 97.265 125.287C96.6212 125.82 96.0054 126.297 95.4456 126.745C92.0307 129.464 89.5395 131.427 86.6844 136.417L84.613 145.78Z" fill="#A8CA48"/>
<path d="M86.2365 145.976C85.6767 145.976 85.1169 145.892 84.5851 145.752H84.5571V145.724C84.5011 145.612 83.0176 142.948 86.6004 136.501L86.6564 136.417L94.9418 140.986L94.8858 141.042C94.8858 141.042 93.8781 142.276 92.3106 143.509C90.8831 144.659 88.6718 145.976 86.2365 145.976Z" fill="black"/>
<path d="M112.66 130.249C112.576 130.249 112.492 130.221 112.408 130.193L107.594 127.726C107.314 127.586 107.202 127.25 107.342 126.969C107.482 126.689 107.818 126.577 108.098 126.717L112.912 129.184C113.192 129.324 113.304 129.661 113.164 129.941C113.052 130.137 112.856 130.249 112.66 130.249Z" fill="black"/>
<path d="M122.121 139.276C122.065 139.276 122.009 139.276 121.953 139.248C117.447 137.874 112.1 135.436 108.433 133.613C108.154 133.473 108.042 133.137 108.182 132.856C108.321 132.576 108.657 132.464 108.937 132.604C112.576 134.398 117.838 136.837 122.289 138.183C122.597 138.267 122.765 138.575 122.653 138.884C122.597 139.108 122.373 139.276 122.121 139.276Z" fill="black"/>
<path d="M121.281 143.481C121.225 143.481 121.169 143.481 121.113 143.453C121.03 143.425 112.912 140.93 106.39 137.903C106.11 137.762 105.998 137.426 106.11 137.146C106.25 136.865 106.586 136.753 106.866 136.865C113.304 139.865 121.365 142.332 121.421 142.36C121.729 142.444 121.897 142.752 121.785 143.061C121.757 143.313 121.533 143.481 121.281 143.481Z" fill="black"/>
<path d="M117.922 146.565C117.894 146.565 117.866 146.565 117.811 146.565C117.587 146.537 112.492 145.528 104.711 141.715C104.431 141.575 104.319 141.238 104.459 140.958C104.599 140.678 104.935 140.566 105.214 140.706C112.856 144.434 117.978 145.443 118.034 145.443C118.342 145.5 118.538 145.808 118.482 146.088C118.426 146.369 118.174 146.565 117.922 146.565Z" fill="black"/>
<path d="M103.647 119.092C103.535 119.092 103.423 119.064 103.339 118.98L82.6257 104.683C82.3737 104.515 82.3178 104.15 82.4857 103.898C82.6537 103.646 83.0175 103.59 83.2695 103.758L103.983 118.055C104.235 118.223 104.291 118.588 104.123 118.84C104.011 119.008 103.815 119.092 103.647 119.092Z" fill="black"/>
<path d="M87.6921 108.159C87.6081 108.159 87.4961 108.131 87.4122 108.075C87.1323 107.935 87.0483 107.57 87.1883 107.318L103.731 77.5747C103.871 77.2944 104.235 77.2103 104.487 77.3505C104.767 77.4906 104.851 77.8551 104.711 78.1074L88.1679 107.879C88.084 108.047 87.888 108.159 87.6921 108.159Z" fill="black"/>
<path d="M139.756 110.682C139.504 110.682 139.308 110.514 139.224 110.29L126.068 67.3986C125.984 67.0903 126.152 66.7819 126.432 66.6978C126.74 66.6137 127.048 66.7819 127.132 67.0622L140.287 109.953C140.371 110.262 140.203 110.57 139.924 110.654C139.868 110.682 139.812 110.682 139.756 110.682Z" fill="black"/>
<path d="M122.961 122.456C122.653 122.456 122.401 122.204 122.401 121.895L122.121 70.3141C122.121 70.0057 122.373 69.7534 122.681 69.7534C122.989 69.7534 123.241 70.0057 123.241 70.3141L123.521 121.895C123.521 122.204 123.269 122.456 122.961 122.456Z" fill="black"/>
<path d="M109.553 67.9313C106.166 67.9313 103.423 65.184 103.423 61.792C103.423 58.3999 106.166 55.6526 109.553 55.6526C112.94 55.6526 115.683 58.3999 115.683 61.792C115.683 65.184 112.94 67.9313 109.553 67.9313Z" fill="white"/>
<path d="M109.553 56.1853C112.632 56.1853 115.123 58.6803 115.123 61.7639C115.123 64.8476 112.632 67.3426 109.553 67.3426C106.474 67.3426 103.983 64.8476 103.983 61.7639C103.983 58.6803 106.474 56.1853 109.553 56.1853ZM109.553 55.064C105.858 55.064 102.863 58.0635 102.863 61.7639C102.863 65.4643 105.858 68.4639 109.553 68.4639C113.248 68.4639 116.243 65.4643 116.243 61.7639C116.271 58.0635 113.276 55.064 109.553 55.064Z" fill="black"/>
<path d="M123.381 70.5103C120.554 70.5103 117.81 68.7722 115.459 65.4923C106.978 53.7183 108.014 48.2799 112.436 43.2899C112.492 43.2339 117.922 37.431 124.836 37.431C125.956 37.431 127.048 37.5711 128.111 37.8795C132.87 39.1971 135.445 47.2987 134.101 56.7459C132.954 64.8476 128.531 70.5103 123.381 70.5103Z" fill="white"/>
<path d="M124.808 38.0197C125.872 38.0197 126.908 38.1598 127.943 38.4402C129.987 39.0008 131.694 41.0753 132.758 44.2711C133.905 47.6912 134.185 52.1205 133.514 56.6899C132.954 60.5865 131.582 64.0346 129.651 66.4455C127.831 68.6882 125.592 69.9216 123.353 69.9216C120.722 69.9216 118.146 68.2677 115.879 65.156C107.622 53.6903 108.573 48.4481 112.8 43.6824C113.024 43.4862 118.258 38.0197 124.808 38.0197ZM124.808 36.8983C117.559 36.8983 112.016 42.9255 112.016 42.9255C107.09 48.4761 106.838 54.4753 115.011 65.8288C117.643 69.4731 120.582 71.071 123.381 71.071C128.671 71.071 133.458 65.4083 134.661 56.8581C136.061 46.9623 133.234 38.7486 128.251 37.3749C127.076 37.0385 125.928 36.8983 124.808 36.8983Z" fill="black"/>
<path d="M128.251 37.3749C119.406 34.908 112.016 42.9536 112.016 42.9536C107.342 48.2238 106.866 53.8585 113.78 64.0907C113.78 64.0907 120.862 56.774 115.599 44.2992C125.872 48.1117 133.514 43.0096 133.514 43.0096C132.31 40.0381 130.518 37.9916 128.251 37.3749Z" fill="black"/>
<path d="M128.531 57.1104C128.363 57.1104 128.223 57.0544 128.111 56.9142C127.915 56.6899 127.943 56.3255 128.167 56.1292C128.475 55.8769 128.699 55.5405 128.839 55.1481C129.035 54.3351 128.419 52.2046 127.943 50.6627C127.859 50.3544 128.027 50.046 128.307 49.9619C128.615 49.8778 128.923 50.046 129.007 50.3263C129.903 53.1577 130.155 54.5874 129.903 55.4564V55.4845C129.707 56.0732 129.371 56.5497 128.895 56.9702C128.783 57.0543 128.671 57.1104 128.531 57.1104Z" fill="black"/>
<path d="M124.332 53.6062C124.08 53.6062 123.829 53.41 123.773 53.1577L123.633 52.4569C123.577 52.1485 123.773 51.8682 124.08 51.7841C124.388 51.728 124.668 51.9242 124.752 52.2326L124.892 52.9334C124.948 53.2418 124.752 53.5221 124.444 53.6062C124.416 53.6062 124.36 53.6062 124.332 53.6062Z" fill="black"/>
<path d="M131.582 50.4665C131.302 50.4665 131.078 50.2702 131.022 49.9899L130.91 49.3171C130.854 49.0088 131.078 48.7284 131.358 48.6723C131.666 48.6163 131.946 48.8405 132.002 49.1209L132.114 49.7937C132.17 50.102 131.946 50.3824 131.666 50.4385C131.638 50.4665 131.61 50.4665 131.582 50.4665Z" fill="black"/>
<path d="M126.516 61.0631C125.984 61.0631 125.48 60.9229 125.004 60.6426C124.36 60.2501 123.913 59.6054 123.745 58.8765C123.689 58.5681 123.857 58.2878 124.164 58.2037C124.472 58.1476 124.752 58.3158 124.836 58.6242C125.032 59.5493 125.984 60.138 126.908 59.9137C127.02 59.8857 127.131 59.8576 127.243 59.8016C127.523 59.6894 127.859 59.8296 127.971 60.1099C128.083 60.3903 127.943 60.7267 127.663 60.8388C127.523 60.8949 127.327 60.979 127.131 61.007C126.936 61.035 126.74 61.0631 126.516 61.0631Z" fill="black"/>
<path d="M108.629 63.2497C108.433 63.2497 108.238 63.1376 108.154 62.9694C108.014 62.689 108.098 62.3526 108.378 62.2125L111.792 60.3062C112.072 60.166 112.408 60.2501 112.548 60.5305C112.688 60.8108 112.604 61.1472 112.324 61.2874L108.909 63.1936C108.825 63.2217 108.713 63.2497 108.629 63.2497Z" fill="black"/>
<path d="M61.5484 118.616C61.2964 118.616 61.0725 118.447 61.0165 118.223C60.9326 117.915 61.1005 117.606 61.4084 117.522C64.1236 116.709 66.5308 115.027 68.1823 112.701C72.297 106.982 70.9814 98.9362 65.2712 94.8153C65.0193 94.6471 64.9633 94.2826 65.1312 94.0303C65.2992 93.778 65.6631 93.722 65.915 93.8902C72.157 98.3755 73.5846 107.122 69.106 113.345C67.3145 115.84 64.6834 117.69 61.7163 118.588C61.6603 118.616 61.6043 118.616 61.5484 118.616Z" fill="black"/>
<path d="M109.525 128.343C109.469 128.343 109.413 128.343 109.329 128.315C109.049 128.203 108.881 127.895 108.993 127.614L116.271 106.87C116.383 106.589 116.691 106.421 116.971 106.533C117.251 106.645 117.419 106.954 117.307 107.234L110.029 127.979C109.973 128.203 109.749 128.343 109.525 128.343Z" fill="black"/>
<path d="M119.602 114.326C119.378 114.326 119.182 114.186 119.07 113.99L116.607 107.991L110.589 110.654C110.309 110.766 109.973 110.654 109.861 110.374C109.749 110.093 109.861 109.757 110.141 109.645L116.691 106.757C116.831 106.701 116.999 106.701 117.139 106.757C117.279 106.814 117.391 106.926 117.447 107.066L120.134 113.598C120.246 113.878 120.106 114.214 119.826 114.326C119.742 114.326 119.686 114.326 119.602 114.326Z" fill="black"/>
<path d="M129.274 101.723C131.463 96.6323 128.99 90.6736 123.751 88.4141C118.511 86.1546 112.489 88.45 110.301 93.5409C108.112 98.6319 110.585 104.591 115.824 106.85C121.064 109.11 127.086 106.814 129.274 101.723Z" fill="#7C9732"/>
<path d="M119.798 98.5717C120.308 98.5717 120.722 98.1575 120.722 97.6466C120.722 97.1357 120.308 96.7215 119.798 96.7215C119.288 96.7215 118.874 97.1357 118.874 97.6466C118.874 98.1575 119.288 98.5717 119.798 98.5717Z" fill="black"/>
<path d="M145.802 223.881C145.606 223.881 145.41 223.769 145.298 223.572C145.186 223.348 145.242 223.04 145.438 222.9L169.846 203.36C173.037 200.809 177.684 201.314 180.231 204.51C180.539 204.874 180.819 205.323 181.07 205.827C181.966 207.565 182.106 209.584 181.49 211.462C180.875 213.34 179.559 214.854 177.795 215.751C177.236 216.031 176.732 216.228 176.228 216.34L145.914 223.881C145.886 223.881 145.858 223.881 145.802 223.881ZM174.465 202.856C173.093 202.856 171.721 203.304 170.546 204.229L148.125 222.171L175.948 215.247C176.368 215.162 176.788 214.994 177.264 214.77C178.747 214.013 179.867 212.723 180.399 211.126C180.93 209.528 180.791 207.818 180.035 206.332C179.839 205.911 179.615 205.547 179.363 205.239C178.131 203.641 176.312 202.856 174.465 202.856Z" fill="black"/>
<path d="M145.858 223.937C145.69 223.937 145.55 223.881 145.438 223.741C145.242 223.516 145.27 223.152 145.494 222.956C151.652 217.798 156.914 207.173 153.975 196.016C153.891 195.707 154.087 195.399 154.367 195.343C154.675 195.259 154.983 195.455 155.039 195.735C158.09 207.341 152.603 218.442 146.166 223.797C146.11 223.881 145.998 223.937 145.858 223.937Z" fill="black"/>
<path d="M145.634 233.188C145.522 233.188 145.382 233.16 145.27 233.076C145.018 232.879 144.99 232.515 145.186 232.291L148.965 227.609C149.161 227.357 149.524 227.329 149.748 227.525C150 227.721 150.028 228.086 149.832 228.31L146.053 232.992C145.97 233.104 145.802 233.188 145.634 233.188Z" fill="black"/>
<path d="M139.392 227.049C139.196 227.049 139 226.936 138.888 226.74C138.748 226.46 138.86 226.123 139.14 225.983L145.41 222.9C145.69 222.759 146.026 222.872 146.166 223.152C146.305 223.432 146.194 223.769 145.914 223.909L139.644 226.992C139.56 227.021 139.476 227.049 139.392 227.049Z" fill="black"/>
<path d="M38.9875 223.657C38.8476 223.657 38.7076 223.6 38.5957 223.516L31.8778 217.349C31.6539 217.153 31.6259 216.788 31.8498 216.564C32.0457 216.34 32.4096 216.312 32.6335 216.536L39.3514 222.703C39.5753 222.9 39.6033 223.264 39.3794 223.488C39.2954 223.6 39.1275 223.657 38.9875 223.657Z" fill="black"/>
<path d="M32.9694 230.525C32.8015 230.525 32.6335 230.441 32.5216 230.3L27.6791 223.909C27.4832 223.657 27.5391 223.32 27.7911 223.124C28.043 222.928 28.3789 222.984 28.5748 223.236L33.4173 229.628C33.6132 229.88 33.5572 230.216 33.3053 230.413C33.1934 230.497 33.0814 230.525 32.9694 230.525Z" fill="black"/>
</svg>
