<svg width="337" height="186" viewBox="0 0 337 186" fill="none" xmlns="http://www.w3.org/2000/svg">
<path d="M247.586 184.91C246.551 184.91 245.781 184.484 245.276 183.607C243.205 180.123 245.807 170.469 248.357 162.969C251.543 153.608 255.819 144.141 258.448 139.327L258.501 139.247L269.469 154.22V154.246C269.283 154.566 256.802 184.91 247.586 184.91Z" fill="#46A09D"/>
<path d="M301.231 184.91C300.142 184.91 299.319 184.431 298.734 183.474C294.937 177.064 303.966 150.284 309.941 139.327L309.968 139.247L321.467 154.22V154.246C321.36 154.566 310.446 184.91 301.231 184.91Z" fill="#46A09D"/>
<path d="M333.019 184.91C323.405 184.91 311.269 164.725 310.764 163.874H283.252C283.81 165.203 289.997 179.804 287.342 183.872C286.89 184.564 286.2 184.91 285.297 184.91C274.09 184.91 257.253 149.566 252.845 135.125C252.101 132.652 252.26 130.524 253.296 129.088C254.119 127.971 255.447 127.36 257.014 127.36C258.74 127.36 260.679 128.078 262.458 129.407C264.476 130.897 266.335 133.131 267.769 135.843H314.137L314.164 135.87C314.429 136.242 339.844 173.82 336.737 182.835C336.418 183.739 335.807 184.351 334.931 184.617C334.347 184.803 333.683 184.91 333.019 184.91Z" fill="#46A09D"/>
<path d="M283.252 163.874C283.199 163.794 281.34 159.273 278.445 153.475V153.449V153.422C278.684 150.816 282.163 147.651 286.279 147.651C286.757 147.651 287.235 147.704 287.687 147.784C294.432 149.034 296.982 155.284 297.274 156.002C298.681 154.991 300.168 154.486 301.709 154.486C304.364 154.486 306.17 156.028 306.17 156.028C308.029 159.459 310.658 163.714 310.685 163.741L310.738 163.82H283.252V163.874Z" fill="#98D8F4"/>
<path d="M322.449 154.832C317.775 154.832 313.686 151.826 312.278 147.332C311.11 143.635 312.039 139.593 314.721 136.774L314.774 136.721L314.801 136.774C316.554 139.407 321.122 146.348 325.689 154.246L325.716 154.3L325.663 154.326C324.6 154.672 323.538 154.832 322.449 154.832Z" fill="#98D8F4"/>
<path d="M314.695 170.283C314.535 170.283 314.376 170.203 314.27 170.07C311.906 166.746 310.366 164.113 310.34 164.113C310.313 164.06 306.967 158.528 304.869 154.832C304.736 154.566 304.816 154.246 305.081 154.114C305.347 153.981 305.666 154.06 305.798 154.326C307.896 158.023 311.216 163.528 311.269 163.608C311.296 163.634 312.809 166.214 315.146 169.512C315.306 169.751 315.252 170.07 315.013 170.256C314.907 170.256 314.801 170.283 314.695 170.283Z" fill="black"/>
<path d="M265.326 163.634C265.14 163.634 264.954 163.528 264.875 163.368C263.414 160.735 261.9 157.81 260.201 154.353C260.068 154.087 260.174 153.768 260.44 153.635C260.705 153.502 261.024 153.608 261.157 153.874C262.83 157.305 264.344 160.23 265.778 162.836C265.91 163.102 265.831 163.422 265.565 163.554C265.512 163.608 265.406 163.634 265.326 163.634Z" fill="black"/>
<path d="M298.256 125.525C298.814 120.871 301.496 111.643 305.214 111.377C305.241 111.377 305.267 111.377 305.294 111.377C305.798 111.377 306.356 111.669 306.94 112.281C308.879 114.302 310.791 119.568 310.578 124.195V124.248L298.256 125.578V125.525Z" fill="#46A09D"/>
<path d="M316.634 145.125C314.695 145.125 312.65 144.885 310.499 144.433C302.213 142.678 297.247 137.625 294.539 133.663C291.591 129.354 289.652 124.035 289.387 119.435C289.227 116.616 289.785 114.621 290.847 114.275C291.113 114.196 291.431 114.142 291.75 114.142C295.601 114.142 301.868 120.711 302.293 121.19C302.638 121.057 305.533 119.993 309.251 119.993C313.553 119.993 319.502 121.456 323.565 128.397H331.054C332.807 128.397 334.241 129.833 334.241 131.562C334.241 131.828 334.214 132.094 334.161 132.333C332.647 138.237 327.15 145.125 316.634 145.125Z" fill="#46A09D"/>
<path d="M302.293 121.802C302.16 121.802 302.001 121.748 301.895 121.642C301.895 121.642 300.886 120.552 299.451 119.275C299.239 119.089 299.212 118.743 299.398 118.53C299.584 118.318 299.929 118.291 300.142 118.477C301.603 119.78 302.612 120.871 302.638 120.897C302.851 121.11 302.824 121.456 302.612 121.642C302.559 121.748 302.426 121.802 302.293 121.802Z" fill="black"/>
<path d="M316.66 145.63C314.695 145.63 312.597 145.391 310.419 144.939C304.842 143.795 299.743 140.763 296.026 136.428C294.512 136.322 286.917 135.152 280.039 122.865C276.268 116.137 272.921 107.919 269.708 99.9677C265.114 88.6652 260.36 76.9637 254.146 68.7993C250.826 64.4378 247.401 61.4061 243.63 59.5977C239.434 57.5499 234.919 57.018 229.873 58.002C224.296 59.0658 222.995 65.5282 221.349 73.6926C219.49 82.9474 217.392 93.4255 208.283 99.6752C208.044 99.8347 207.699 99.7815 207.539 99.5422C207.38 99.3028 207.433 98.9571 207.672 98.7975C216.409 92.7873 218.48 82.5219 220.286 73.4798C221.933 65.2622 223.367 58.1616 229.634 56.9648C251.596 52.763 261.29 76.5648 270.638 99.5954C273.851 107.52 277.17 115.711 280.915 122.387C288.085 135.205 296.158 135.418 296.238 135.418C296.397 135.418 296.557 135.498 296.636 135.604C300.195 139.859 305.134 142.811 310.579 143.928C313.978 144.646 317.138 144.779 319.926 144.353C320.219 144.3 320.484 144.513 320.537 144.806C320.59 145.098 320.378 145.364 320.086 145.417C319.024 145.524 317.882 145.63 316.66 145.63Z" fill="black"/>
<path d="M333.762 133.53C331.16 133.264 329.142 131.083 329.062 128.45V128.397H331.054C332.806 128.397 334.24 129.833 334.24 131.562C334.24 131.828 334.214 132.094 334.161 132.333C334.055 132.705 333.948 133.104 333.816 133.476L333.762 133.53Z" fill="black"/>
<path d="M318.174 129.886C317.961 129.886 317.749 129.753 317.669 129.514L317.457 128.876C317.377 128.61 317.51 128.291 317.802 128.211C318.067 128.104 318.386 128.264 318.466 128.556L318.678 129.195C318.758 129.461 318.625 129.78 318.333 129.86C318.28 129.886 318.227 129.886 318.174 129.886Z" fill="black"/>
<path d="M302.293 121.802C302.08 121.802 301.868 121.669 301.788 121.456C301.682 121.19 301.842 120.871 302.107 120.764C304.63 119.86 307.418 119.435 310.154 119.541C310.446 119.541 310.685 119.807 310.658 120.1C310.658 120.392 310.419 120.631 310.101 120.605C307.498 120.498 304.869 120.897 302.479 121.775C302.426 121.802 302.346 121.802 302.293 121.802Z" fill="black"/>
<path d="M296.716 124.727C296.53 124.727 296.344 124.621 296.265 124.461L293.874 120.206C293.742 119.94 293.821 119.621 294.087 119.488C294.353 119.355 294.671 119.435 294.804 119.701L297.194 123.956C297.327 124.222 297.247 124.541 296.982 124.674C296.902 124.7 296.796 124.727 296.716 124.727Z" fill="black"/>
<path d="M88.7252 149.194L88.7518 149.167C91.3543 145.258 95.0988 140.497 99.879 134.992L99.9321 134.939L99.9586 134.992C102.774 139.593 104.234 144.859 104.234 150.257V150.284L94.9395 157.544L88.7252 149.194Z" fill="black"/>
<path d="M223.739 185.947C219.675 182.516 215.347 177.809 210.832 171.958L210.806 171.878H210.832C215.108 169.884 219.861 168.82 224.562 168.82H224.615C224.934 168.82 225.279 168.82 225.598 168.847H225.624L231.599 178.899L223.739 185.947Z" fill="black"/>
<path d="M204.007 80.1018C203.981 80.1018 201.909 79.2774 201.644 76.5913C201.378 73.9319 203.609 70.1821 203.635 70.1555L203.662 70.129L211.735 70.6874L211.709 70.7406C210.806 73.5064 207.619 79.1444 204.06 80.1018H204.007Z" fill="black"/>
<path d="M112.918 121.057C106.757 116.695 99.1088 106.696 98.02 99.8879C97.7013 97.8933 97.9403 96.3243 98.7902 95.2073C98.8433 95.1541 100.118 93.6914 103.73 93.6914C105.642 93.6914 107.846 94.1169 110.316 94.9414C117.114 97.2019 126.436 105.765 126.542 105.845L126.568 105.872L126.542 105.898C121.284 113.797 113.078 121.004 112.998 121.057L112.971 121.083L112.918 121.057Z" fill="black"/>
<path d="M106.81 128.769L107.501 127.36C110.741 123.902 113.078 121.536 113.263 121.349C113.662 121.004 121.735 113.85 126.887 106.111L129.25 102.547L152.886 121.083L148.955 125.764C146.698 128.583 143.777 131.349 140.696 134.301C138.333 136.535 135.916 138.848 133.579 141.375L130.26 144.008L112.493 150.204L106.81 128.769Z" fill="white"/>
<path d="M129.383 103.319L152.142 121.137L148.557 125.392C148.557 125.392 148.557 125.392 148.531 125.418C146.3 128.211 143.379 130.95 140.298 133.902C137.961 136.136 135.518 138.45 133.181 140.949L129.968 143.502L112.839 149.486L107.368 128.822L107.926 127.652C111.059 124.301 113.37 121.988 113.609 121.722C114.166 121.243 122.16 114.089 127.312 106.377L129.383 103.319ZM129.118 101.776L126.436 105.818C121.177 113.69 112.971 120.897 112.892 120.977C112.865 121.004 110.449 123.424 107.049 127.067L106.226 128.716L112.095 150.869L130.499 144.46L133.925 141.747C136.262 139.247 138.705 136.907 141.068 134.673C144.175 131.721 147.097 128.929 149.38 126.11L153.656 121.004L129.118 101.776Z" fill="black"/>
<path d="M100.304 164.725C105.562 155.47 105.403 144.114 99.8791 135.045L99.8525 135.019L99.8791 134.992C102.11 132.439 104.526 129.753 107.076 127.041L107.129 126.987L107.156 127.041C107.209 127.12 113.476 136.162 113.795 146.135L116.45 142.997C118.734 140.311 122.054 138.769 125.586 138.769C127.578 138.769 129.569 139.274 131.322 140.231L133.978 141.694L133.925 141.747C128.374 147.704 121.948 156.161 121.496 168.634C120.992 182.516 117.858 184.75 116.158 185.973L116.105 186L100.304 164.725Z" fill="#A8CA48"/>
<path d="M204.698 162.491C199.599 154.832 194.872 146.8 190.649 138.609L187.463 132.492L214.232 125.259L216.834 128.317C219.144 132.12 221.083 135.285 222.597 137.731L223.765 140.497L224.801 159.459L206.822 164.618L204.698 162.491Z" fill="white"/>
<path d="M214.046 125.87L216.409 128.636C218.693 132.413 220.605 135.551 222.119 137.971L223.234 140.63L224.243 159.06L207.008 164.007L205.123 162.145C200.024 154.512 195.323 146.508 191.127 138.343L188.259 132.812L214.046 125.87ZM214.417 124.674L186.692 132.147L190.171 138.848C194.394 147.066 199.147 155.124 204.273 162.836L206.663 165.23L225.332 159.884L224.27 140.417L223.048 137.519C221.535 135.045 219.569 131.854 217.259 128.025L214.417 124.674Z" fill="black"/>
<path d="M98.073 1.06375C107.368 7.71231 115.388 5.61136 120.646 3.72317C128.082 1.06375 136.049 -0.531902 145.875 7.97825L144.016 11.4355C130.472 10.1058 127.365 22.9774 114.007 30.5833C102.322 37.2319 90.6372 31.3812 90.6372 31.3812L98.073 1.06375Z" fill="black"/>
<path d="M232.396 76.8307C231.812 76.8307 231.148 76.5382 230.404 75.9797L230.298 75.8999C227.138 73.5064 224.881 71.7778 218.64 70.7672C217.471 70.5811 215.453 70.4747 212.877 70.3151L211.655 70.2353L203.688 69.7034L195.562 68.8524L205.069 50.9545L211.894 51.8587C223.181 53.7203 231.015 55.3426 236.672 60.5284C239.593 63.1879 239.965 64.7037 239.779 65.5016C239.619 66.2462 238.876 66.5387 238.663 66.6185C238.504 66.6717 238.398 66.8047 238.345 66.9642C238.292 67.1238 238.318 67.2834 238.424 67.4429C238.584 67.6557 239.354 68.8258 239.088 69.863C238.929 70.5013 238.424 71.0066 237.601 71.4055L237.256 71.5385C236.99 71.6182 236.858 71.9108 236.911 72.1501C236.937 72.3097 237.123 73.1607 236.672 73.8256C236.353 74.3042 235.769 74.5702 234.919 74.65C234.706 74.6766 234.547 74.8095 234.467 74.9957C234.414 75.1819 233.777 76.8307 232.396 76.8307Z" fill="white"/>
<path d="M205.388 51.513L211.841 52.364C223.048 54.2256 230.803 55.8213 236.353 60.9008C239.327 63.6134 239.407 64.9165 239.301 65.3686C239.195 65.8473 238.637 66.0866 238.531 66.1132C238.212 66.2196 237.973 66.4855 237.893 66.8047C237.814 67.1238 237.84 67.4695 238.053 67.7355C238.345 68.161 238.796 69.0386 238.637 69.73C238.531 70.1821 238.132 70.581 237.468 70.9002L237.15 71.0066C236.645 71.1927 236.353 71.7246 236.459 72.2565C236.486 72.3363 236.619 73.0277 236.3 73.5064C236.061 73.8522 235.609 74.0383 234.919 74.1181C234.521 74.1713 234.175 74.4372 234.043 74.8095C234.016 74.8627 233.485 76.2722 232.449 76.2722C231.998 76.2722 231.413 76.0063 230.776 75.5276L230.67 75.4478C227.589 73.0809 225.146 71.2459 218.799 70.2353C217.604 70.0492 215.559 69.9162 212.983 69.7832L211.788 69.7034L203.821 69.1716L196.465 68.4003L205.388 51.513ZM204.804 50.3694L194.739 69.3045L203.662 70.2353L211.629 70.7672L212.824 70.847C215.373 71.0066 217.392 71.1129 218.534 71.2991C224.615 72.2565 226.846 73.9585 229.953 76.3254L230.059 76.4052C230.882 77.0434 231.679 77.3626 232.37 77.3626C234.096 77.3626 234.839 75.4744 234.945 75.2084C235.955 75.1021 236.672 74.7563 237.097 74.1447C237.681 73.2937 237.468 72.2831 237.415 72.0437L237.787 71.9108C238.796 71.4321 239.407 70.7938 239.593 69.996C239.912 68.7195 239.062 67.4163 238.849 67.1238C239.115 67.0174 240.071 66.6185 240.283 65.6079C240.602 64.225 239.513 62.39 237.017 60.1029C231.228 54.8107 223.34 53.1884 211.948 51.3002L204.804 50.3694Z" fill="black"/>
<path d="M217.206 128.078C209.956 116.137 198.563 97.0955 184.223 73.0277C193.278 77.2828 201.537 80.022 204.034 80.1018C199.785 78.3466 203.715 70.1821 203.715 70.1821C203.901 69.8364 204.857 68.0812 208.84 61.539C212.133 56.1138 212.001 51.4598 212.001 51.4066V51.3002H211.948C210.779 51.1141 209.557 50.9811 208.309 50.7683C207.141 50.5822 205.946 50.396 204.724 50.1833C197.288 48.9599 188.472 45.875 179.894 41.5402C171.582 37.3383 164.411 32.4183 159.684 27.6846L159.658 27.658L155.966 29.36L146.884 19.6265L146.857 19.7063C141.599 38.5616 126.781 61.8315 98.7902 95.2073C98.7902 95.2073 108.563 89.7289 126.462 105.951C127.312 106.776 139.103 118.717 149.274 126.11C161.357 134.859 173.361 138.955 187.038 138.955C188.1 138.955 189.162 138.928 190.171 138.928C207.513 138.13 217.1 128.237 217.206 128.131V128.078Z" fill="#A8CA48"/>
<path d="M234.361 75.1287C234.202 75.1287 234.043 75.0489 233.936 74.9159C230.272 69.73 223.314 66.6185 223.234 66.5919C222.969 66.4855 222.836 66.1664 222.969 65.9005C223.075 65.6345 223.393 65.5015 223.659 65.6345C223.951 65.7675 230.962 68.9056 234.786 74.3308C234.946 74.5702 234.892 74.8893 234.653 75.0755C234.574 75.1021 234.468 75.1287 234.361 75.1287Z" fill="black"/>
<path d="M236.964 72.0969C236.778 72.0969 236.619 72.0171 236.512 71.8576C232.715 66.0866 224.403 63.0017 224.323 62.9751C224.057 62.8687 223.898 62.5762 224.004 62.2837C224.11 62.0177 224.403 61.8581 224.695 61.9645C225.04 62.0975 233.432 65.209 237.415 71.2725C237.575 71.5118 237.522 71.8576 237.256 72.0171C237.176 72.0703 237.07 72.0969 236.964 72.0969Z" fill="black"/>
<path d="M238.185 67.4695C238.026 67.4695 237.893 67.4163 237.787 67.2834C232.263 61.0603 226.129 59.0126 226.076 59.0126C225.784 58.9328 225.651 58.6137 225.73 58.3477C225.81 58.0552 226.129 57.9222 226.394 58.002C226.66 58.0818 232.874 60.1295 238.584 66.5919C238.77 66.8047 238.77 67.1504 238.531 67.3366C238.424 67.4163 238.318 67.4695 238.185 67.4695Z" fill="black"/>
<path d="M144.76 32.3119C141.838 32.3119 139.448 29.9185 139.448 26.9931C139.448 24.0677 141.838 21.6743 144.76 21.6743C147.681 21.6743 150.071 24.0677 150.071 26.9931C150.071 29.9185 147.681 32.3119 144.76 32.3119Z" fill="white"/>
<path d="M144.76 22.2327C147.389 22.2327 149.54 24.3869 149.54 27.0197C149.54 29.6525 147.389 31.8067 144.76 31.8067C142.13 31.8067 139.979 29.6525 139.979 27.0197C139.979 24.3603 142.13 22.2327 144.76 22.2327ZM144.76 21.169C141.546 21.169 138.917 23.7752 138.917 27.0197C138.917 30.2376 141.52 32.8704 144.76 32.8704C147.999 32.8704 150.602 30.2642 150.602 27.0197C150.575 23.7752 147.973 21.169 144.76 21.169Z" fill="black"/>
<path d="M156.365 31.7003C154.32 31.7003 152.116 30.6897 149.991 28.7483C140.696 20.2648 140.59 15.4778 143.458 10.4515C143.458 10.4515 144.6 8.56329 146.618 6.72829C149.274 4.28162 152.142 3.05829 155.117 3.05829C155.329 3.05829 155.568 3.05829 155.807 3.08488C160.056 3.35083 163.694 9.78662 164.252 18.0308C164.571 22.8444 163.429 27.0463 161.065 29.5727C159.737 30.9556 158.117 31.7003 156.365 31.7003Z" fill="white"/>
<path d="M155.117 3.5902C155.329 3.5902 155.541 3.5902 155.754 3.61679C157.56 3.72317 159.366 5.15925 160.826 7.65911C162.393 10.3451 163.429 14.0417 163.694 18.0575C164.013 22.6583 162.871 26.8335 160.667 29.2004C159.445 30.5035 157.958 31.195 156.365 31.195C154.453 31.195 152.381 30.211 150.363 28.376C141.334 20.1318 141.201 15.531 143.91 10.744C144.069 10.4781 148.371 3.5902 155.117 3.5902ZM155.117 2.52643C147.574 2.52643 143.007 10.2122 143.007 10.2122C139.793 15.8235 140.67 20.9562 149.646 29.1472C152.009 31.3014 154.293 32.2322 156.365 32.2322C161.57 32.2322 165.314 26.1953 164.757 17.9777C164.172 9.30796 160.295 2.81897 155.834 2.55302C155.595 2.52643 155.356 2.52643 155.117 2.52643Z" fill="black"/>
<path d="M159.498 19.3606C159.366 19.3606 159.259 19.3074 159.153 19.2276C158.941 19.0415 158.914 18.6957 159.1 18.483C159.366 18.1638 159.445 17.8181 159.472 17.5522C159.525 16.9139 158.755 15.4246 157.905 13.9088C157.772 13.6428 157.852 13.3237 158.117 13.1907C158.383 13.0578 158.702 13.1375 158.834 13.4035C160.162 15.797 160.587 16.8607 160.508 17.6586C160.428 18.2436 160.215 18.7489 159.87 19.1478C159.791 19.3074 159.658 19.3606 159.498 19.3606Z" fill="black"/>
<path d="M155.302 17.1001C155.09 17.1001 154.904 16.9671 154.824 16.7809L154.585 16.2224C154.479 15.9565 154.585 15.6374 154.851 15.531C155.117 15.4246 155.435 15.531 155.541 15.7969L155.78 16.3554C155.887 16.6214 155.78 16.9405 155.515 17.0469C155.435 17.0735 155.382 17.1001 155.302 17.1001Z" fill="black"/>
<path d="M160.932 13.1641C160.72 13.1641 160.534 13.0311 160.428 12.845L160.189 12.2599C160.083 11.994 160.215 11.6748 160.481 11.5685C160.747 11.4621 161.065 11.5951 161.171 11.861L161.411 12.4461C161.517 12.712 161.384 13.0311 161.118 13.1375C161.065 13.1641 161.012 13.1641 160.932 13.1641Z" fill="black"/>
<path d="M158.091 23.137C157.135 23.137 156.232 22.6051 155.807 21.7009C155.674 21.4349 155.807 21.1158 156.073 20.9828C156.338 20.8499 156.657 20.9828 156.79 21.2488C157.108 21.9668 157.985 22.2859 158.702 21.9402C158.781 21.9136 158.861 21.8604 158.914 21.8073C159.153 21.6211 159.472 21.6743 159.658 21.9136C159.844 22.153 159.79 22.4721 159.551 22.6583C159.419 22.7646 159.259 22.8444 159.153 22.8976C158.834 23.0572 158.463 23.137 158.091 23.137Z" fill="black"/>
<path d="M144.122 28.4824C143.963 28.4824 143.83 28.4292 143.724 28.2962C143.538 28.0835 143.565 27.7378 143.777 27.5516L146.353 25.3177C146.565 25.1315 146.911 25.1581 147.097 25.3709C147.283 25.5836 147.256 25.9294 147.043 26.1155L144.468 28.3494C144.361 28.4292 144.255 28.4824 144.122 28.4824Z" fill="black"/>
<path d="M161.118 6.59535C155.488 12.2067 146.326 10.6909 146.326 10.6909C149.035 14.8662 151.558 21.0892 148.345 27.6846C148.345 27.6846 144.972 24.8922 142.263 19.2808C139.554 13.6694 144.547 7.65912 148.106 5.34543C151.664 3.03173 156.63 0.531866 161.118 6.59535Z" fill="black"/>
<path d="M238.929 172.251C234.494 170.07 229.555 168.927 224.615 168.927C219.835 168.927 215.214 169.964 210.885 171.958L210.859 171.985L210.832 171.958C208.681 169.166 206.45 166.108 204.273 162.836L204.246 162.783L204.326 162.73C204.406 162.677 211.231 158.156 221.269 158.156C221.508 158.156 221.747 158.156 222.013 158.156L220.578 156.374C216.568 151.348 216.861 144.034 221.242 139.354L223.048 137.439L223.075 137.492C225.013 140.657 226.315 142.705 226.926 143.582C231.892 150.683 237.15 152.119 244.054 152.119C244.718 152.119 245.462 152.092 246.259 152.066C246.498 152.066 246.763 152.066 247.002 152.066C254.119 152.066 257.173 155.789 257.2 155.816L257.227 155.842L238.982 172.277L238.929 172.251Z" fill="#A8CA48"/>
<path d="M232.848 149.858C232.609 149.858 232.396 149.699 232.343 149.46L226.554 128.769C226.076 127.094 226.288 125.339 227.165 123.796C228.014 122.28 229.422 121.163 231.095 120.685C231.626 120.525 232.184 120.445 232.848 120.445C236.459 120.445 239.381 123.371 239.381 126.987C239.381 127.546 239.301 128.131 239.142 128.743L233.352 149.46C233.299 149.699 233.087 149.858 232.848 149.858ZM232.848 121.536C232.29 121.536 231.812 121.589 231.387 121.722C229.98 122.121 228.811 123.051 228.067 124.328C227.35 125.604 227.165 127.094 227.563 128.477L232.848 147.332L238.132 128.477C238.265 127.971 238.318 127.466 238.318 126.987C238.318 123.982 235.875 121.536 232.848 121.536Z" fill="black"/>
<path d="M232.954 149.832C232.662 149.832 232.449 149.619 232.423 149.327C232.396 149.034 232.635 148.795 232.927 148.768C236.911 148.529 238.823 146.853 240.841 145.098C242.461 143.662 244.134 142.199 246.896 141.455C247.188 141.375 247.48 141.534 247.533 141.827C247.613 142.12 247.454 142.412 247.162 142.465C244.639 143.157 243.125 144.46 241.532 145.869C239.46 147.678 237.336 149.566 232.98 149.805C232.98 149.832 232.954 149.832 232.954 149.832Z" fill="black"/>
<path d="M147.362 165.682C147.176 165.682 146.964 165.682 146.778 165.655C146.194 165.602 145.556 165.469 144.972 165.257L124.019 157.411C123.806 157.331 123.647 157.119 123.674 156.879C123.7 156.64 123.86 156.454 124.099 156.401L146.087 152.199C147.867 151.853 149.673 152.252 151.186 153.263C152.7 154.3 153.709 155.842 154.028 157.624C154.134 158.236 154.161 158.874 154.107 159.486C153.948 161.294 153.098 162.943 151.717 164.113C150.496 165.124 148.982 165.682 147.362 165.682ZM126.17 157.065L145.344 164.246C145.848 164.432 146.38 164.538 146.884 164.592C150.018 164.858 152.806 162.517 153.072 159.353C153.125 158.847 153.098 158.289 152.992 157.784C152.7 156.268 151.85 154.965 150.575 154.114C149.301 153.263 147.787 152.917 146.273 153.209L126.17 157.065Z" fill="black"/>
<path d="M230.325 155.044C230.245 155.044 230.165 155.018 230.086 154.991C229.82 154.858 229.714 154.539 229.847 154.273L232.502 148.954C232.635 148.688 232.954 148.582 233.219 148.715C233.485 148.848 233.591 149.167 233.458 149.433L230.803 154.752C230.697 154.938 230.511 155.044 230.325 155.044Z" fill="black"/>
<path d="M237.761 158.502C237.734 158.502 237.708 158.502 237.681 158.502C237.389 158.475 237.176 158.209 237.229 157.916L238.026 151.534C238.053 151.241 238.318 151.029 238.61 151.082C238.903 151.108 239.115 151.374 239.062 151.667L238.265 158.049C238.265 158.315 238.026 158.502 237.761 158.502Z" fill="black"/>
<path d="M184.143 73.3735C184.063 73.3735 184.01 73.3469 183.93 73.3203C174.954 69.3311 168.049 65.0495 163.8 62.1507C159.206 59.0126 156.763 56.8584 156.683 56.7521C156.471 56.5659 156.444 56.2202 156.63 56.0074C156.816 55.7947 157.161 55.7681 157.374 55.9542C157.4 55.9808 159.87 58.1616 164.411 61.2731C168.607 64.1453 175.459 68.3737 184.355 72.3363C184.621 72.4427 184.754 72.7618 184.621 73.0277C184.541 73.2671 184.355 73.3735 184.143 73.3735Z" fill="black"/>
<path d="M202.175 132.173C201.989 132.173 201.829 132.093 201.723 131.934L191.711 117.015L175.167 132.04C174.981 132.2 174.715 132.226 174.529 132.093C174.317 131.961 174.237 131.721 174.317 131.482L181.009 111.084L157.507 108.504C157.268 108.478 157.055 108.292 157.029 108.026C157.002 107.786 157.161 107.547 157.374 107.467L180.797 99.3826L175.645 82.575C175.565 82.3623 175.671 82.0963 175.857 81.99C176.043 81.857 176.309 81.857 176.494 82.0166L192.242 94.7286L193.172 88.9842C193.225 88.6917 193.491 88.5056 193.783 88.5322C194.075 88.5853 194.261 88.8513 194.234 89.1438L193.172 95.7924C193.145 95.9785 193.013 96.1381 192.827 96.2179C192.641 96.2977 192.455 96.2445 192.296 96.1381L177.185 83.9313L181.992 99.5688C182.071 99.8347 181.939 100.127 181.646 100.234L159.976 107.707L181.779 110.1C181.939 110.127 182.071 110.206 182.178 110.339C182.284 110.472 182.284 110.632 182.231 110.792L175.963 129.886L191.472 115.818C191.579 115.711 191.738 115.658 191.897 115.685C192.057 115.711 192.189 115.791 192.269 115.924L201.644 129.913V113.291C201.644 113.132 201.723 112.972 201.856 112.866C201.989 112.759 202.148 112.733 202.307 112.759L209.531 114.568C209.823 114.648 209.982 114.94 209.929 115.206C209.876 115.472 209.557 115.658 209.292 115.605L202.732 113.956V131.641C202.732 131.881 202.573 132.093 202.361 132.147C202.281 132.173 202.228 132.173 202.175 132.173Z" fill="black"/>
<path d="M141.36 104.515C141.148 104.515 140.962 104.382 140.882 104.196L132.65 85.1015L118.575 94.835C118.389 94.968 118.15 94.968 117.964 94.835C117.778 94.702 117.698 94.4627 117.778 94.2499L123.408 76.8839L114.565 76.8573C114.273 76.8573 114.034 76.6179 114.034 76.3254C114.034 76.0329 114.273 75.7935 114.565 75.7935L124.125 75.8201C124.284 75.8201 124.444 75.8999 124.55 76.0329C124.656 76.1659 124.683 76.352 124.63 76.5116L119.239 93.0798L132.543 83.8782C132.676 83.7984 132.836 83.7718 132.995 83.7984C133.154 83.8516 133.261 83.958 133.34 84.0909L140.962 101.749L142.157 83.4793C142.157 83.3463 142.237 83.2133 142.343 83.1069C142.449 83.0006 142.582 82.974 142.741 82.974L159.95 84.1441L144.361 74.7298C144.202 74.6234 144.122 74.4638 144.096 74.2777C144.096 74.0915 144.175 73.9319 144.335 73.8256L156.869 65.4218L142.901 65.475C142.768 65.475 142.608 65.4218 142.502 65.3154C142.396 65.209 142.343 65.076 142.369 64.9165L143.352 48.1089L134.217 63.0283C134.11 63.1879 133.924 63.2942 133.739 63.2942C133.553 63.2942 133.367 63.1613 133.287 62.9751L129.463 54.465C129.33 54.199 129.463 53.8799 129.728 53.7735C129.994 53.6405 130.313 53.7735 130.419 54.0395L133.818 61.6188L143.564 45.7421C143.697 45.5293 143.936 45.4495 144.175 45.5027C144.414 45.5825 144.574 45.7952 144.547 46.0346L143.458 64.4112L158.622 64.358C158.861 64.358 159.073 64.5176 159.127 64.7303C159.206 64.9431 159.1 65.209 158.914 65.3154L145.609 74.2511L162.34 84.3835C162.552 84.5164 162.659 84.7558 162.579 84.9951C162.499 85.2345 162.287 85.394 162.048 85.3674L143.193 84.0643L141.891 104.01C141.865 104.249 141.705 104.462 141.44 104.489C141.413 104.515 141.387 104.515 141.36 104.515Z" fill="black"/>
<path d="M209.69 60.5018C209.504 60.5018 209.319 60.3955 209.212 60.2093L204.352 50.5024C204.22 50.2365 204.326 49.9173 204.591 49.7844C204.857 49.6514 205.176 49.7578 205.308 50.0237L210.168 59.7306C210.301 59.9965 210.195 60.3157 209.929 60.4486C209.85 60.4752 209.77 60.5018 209.69 60.5018Z" fill="black"/>
<path d="M194.208 72.6022C193.969 72.6022 193.756 72.4426 193.703 72.2299L188.551 55.2362L172.91 61.9113C172.697 62.0177 172.432 61.9379 172.272 61.7518C172.113 61.5656 172.113 61.2997 172.272 61.1135L181.487 48.6142L165.341 41.9923C165.102 41.9125 164.969 41.6731 165.022 41.4338C165.049 41.1944 165.261 41.0083 165.5 40.9817L177.663 39.8647C177.955 39.8381 178.221 40.0509 178.247 40.3434C178.274 40.636 178.062 40.9019 177.769 40.9285L167.758 41.8593L182.523 47.9228C182.682 47.976 182.789 48.1089 182.842 48.2685C182.895 48.4281 182.842 48.5876 182.762 48.7206L174.317 60.2093L188.737 54.066C188.87 54.0128 189.029 54.0128 189.162 54.066C189.295 54.1192 189.401 54.2522 189.454 54.3852L194.234 70.1821L197.979 56.7786C198.032 56.6191 198.138 56.4861 198.298 56.4329C198.457 56.3797 198.616 56.3797 198.776 56.4861L208.336 62.3368C208.575 62.4964 208.655 62.8155 208.522 63.0549C208.363 63.2942 208.044 63.374 207.778 63.241L198.829 57.7626L194.766 72.2565C194.659 72.4426 194.447 72.6022 194.208 72.6022Z" fill="black"/>
<path d="M130.605 172.836C130.366 172.836 130.127 172.65 130.074 172.41C129.596 169.724 128.348 168.022 127.02 166.24C125.373 164.007 123.647 161.693 123.674 157.411L117.327 155.629C117.035 155.55 116.875 155.257 116.955 154.965C117.035 154.672 117.327 154.512 117.619 154.592L124.364 156.48C124.603 156.534 124.763 156.773 124.763 157.012C124.656 161.188 126.223 163.342 127.896 165.602C129.224 167.411 130.605 169.272 131.136 172.198C131.189 172.49 131.003 172.756 130.711 172.809C130.658 172.836 130.632 172.836 130.605 172.836Z" fill="black"/>
<path d="M122.054 163.342C122.027 163.342 122.001 163.342 121.974 163.342L115.255 162.225C114.963 162.172 114.777 161.906 114.83 161.613C114.883 161.321 115.149 161.134 115.441 161.188L122.16 162.305C122.452 162.358 122.638 162.624 122.585 162.916C122.532 163.156 122.319 163.342 122.054 163.342Z" fill="black"/>
<path d="M72.1806 171.666C69.6843 171.666 66.5507 171.081 65.6212 168.341C65.6212 168.262 65.2228 166.879 67.0818 165.283C67.9847 164.565 69.3922 164.007 70.4279 163.501L70.481 163.475L70.5076 163.528C72.34 166.427 75.7923 171.187 75.8189 171.24L75.872 171.293L75.7923 171.32C75.7658 171.32 74.1193 171.666 72.1806 171.666Z" fill="black"/>
<path d="M8.79028 154.539C5.09893 147.678 7.99359 145.151 8.02015 145.151C8.0467 145.151 8.15293 145.098 8.44505 145.098C8.97618 145.098 10.4102 145.178 11.5787 146.348C12.9065 147.678 13.9157 150.47 13.9157 150.497L13.9422 150.55L13.8891 150.576C12.5879 151.374 8.89651 154.539 8.8434 154.566L8.79028 154.619V154.539Z" fill="black"/>
<path d="M71.3043 90.3938L73.2695 88.0801C81.263 78.7721 82.7767 78.1338 82.9892 78.1072C83.0423 78.1072 83.122 78.1072 83.1751 78.1072C83.4672 78.1072 83.6797 78.2136 83.839 78.3998C84.3701 79.0646 84.2639 80.6603 84.078 81.5113C84.0515 81.6708 84.078 81.8038 84.1577 81.9368L91.1421 91.8032C89.5221 95.2073 87.5304 98.4518 85.2465 101.457L85.2199 101.484L83.3079 103.319L71.3043 90.3938Z" fill="white"/>
<path d="M83.1751 78.6391C83.3344 78.6391 83.3875 78.6923 83.4141 78.7455C83.7593 79.171 83.7593 80.4475 83.5469 81.4049C83.4938 81.6974 83.5469 82.0166 83.7062 82.2559L90.5312 91.8565C88.9644 95.1275 87.0258 98.2391 84.8216 101.111L83.3344 102.547L72.0213 90.3938L73.6413 88.479L73.6678 88.4524C81.024 79.889 82.7767 78.7987 83.0954 78.6657C83.122 78.6391 83.1485 78.6391 83.1751 78.6391ZM83.1751 77.5753C83.0954 77.5753 83.0157 77.5753 82.9095 77.6019C81.6614 77.7615 76.7484 83.2133 72.8446 87.7609L72.818 87.7875L70.5873 90.4204L83.2813 104.037L85.5917 101.803L85.6183 101.749C88.0084 98.6646 90.0532 95.2871 91.6997 91.7501V91.7235L84.5295 81.6177C84.7154 80.7667 84.9012 78.9582 84.1842 78.0806C83.9983 77.7615 83.6265 77.5753 83.1751 77.5753Z" fill="black"/>
<path d="M69.3657 112.387C68.8345 112.387 68.3034 112.361 67.7988 112.281C55.9812 110.712 45.0399 100.659 44.9337 100.553L44.9071 100.526L49.7138 85.8195H49.7669C55.3969 86.3248 67.0287 93.3191 67.7988 93.7712C68.0644 93.4255 70.2686 90.7661 72.8711 87.7077L72.8977 87.6545L85.6714 101.67L85.6448 101.696C81.9535 106.616 76.111 112.387 69.3657 112.387Z" fill="#46A09D"/>
<path d="M0 164.352L0.0265582 164.326C1.85896 160.629 8.7371 154.539 8.79021 154.459C8.81677 154.433 12.5347 151.268 13.836 150.47L13.8625 150.444H13.8891C16.5978 151.56 21.3249 157.331 24.8304 161.985C27.0346 164.911 28.6545 167.251 28.6545 167.278L28.6811 167.304L28.6545 167.331C26.1051 169.565 23.7415 172.224 23.7415 176.266C23.7415 184.192 21.4046 185.814 21.2983 185.894L21.2718 185.92L0 164.352Z" fill="#46A09D"/>
<path d="M28.6014 167.384C28.5483 167.357 24.5117 165.682 21.5639 162.517C18.6693 159.432 17.368 156.986 16.0136 154.379C15.3763 153.183 14.7124 151.933 13.8891 150.576C10.4633 144.619 7.99355 145.178 8.02011 145.151C9.08237 144.38 11.1272 143.689 13.5173 142.864C17.7929 141.401 23.1042 139.593 25.813 136.375C30.2745 131.083 32.2928 117.413 32.3193 117.281V117.227L55.397 117.201V117.254C55.397 117.334 55.397 126.349 54.3347 131.615C51.9712 143.449 47.5893 149.832 40.3129 157.491C38.1883 159.645 35.9045 161.666 33.4878 163.501C33.1691 163.767 32.8239 164.007 32.5052 164.273C31.1243 165.336 29.823 166.347 28.6545 167.357L28.6014 167.384Z" fill="#98D8F4"/>
<path d="M32.3989 117.36L38.2679 86.9099L52.6881 88.4258L52.7147 88.4524C56.0608 93.2127 59.7522 98.8773 64.0543 105.42C66.5506 109.222 69.1001 113.158 71.8619 117.281L71.9151 117.36H32.3989Z" fill="#46A09D"/>
<path d="M89.0175 185.947C88.9644 185.894 83.0954 181.559 75.7392 171.32C75.7127 171.267 72.2603 166.506 70.4279 163.608L68.2769 160.895L89.3362 146.747L91.7528 149.353L92.5761 150.816C97.7812 160.044 98.2061 160.815 102.88 161.932C104.102 162.225 105.19 162.464 106.146 162.65C109.599 163.368 111.325 163.741 112.201 165.416L112.228 165.443L89.0972 185.973L89.0175 185.947Z" fill="#46A09D"/>
<path d="M65.6212 168.368C65.4619 167.863 65.1432 166.373 64.7183 164.326C63.8951 160.47 62.6735 154.619 61.3722 150.55C59.2742 143.981 54.255 138.396 54.2019 138.343C54.1754 138.317 50.5637 134.966 46.8192 130.737C43.3669 126.828 39.0647 121.323 38.2415 117.334V117.281H71.862L71.8886 117.307C77.5982 125.684 82.4581 133.37 86.4416 140.152C88.6458 143.875 90.3719 146.906 91.7794 149.38V149.406V149.433C91.7529 149.46 90.3985 153.289 86.176 156.188C83.2282 158.209 79.4306 159.805 75.7393 161.347C73.9866 162.065 72.1807 162.836 70.5608 163.608C65.3291 166.028 65.6212 168.368 65.6212 168.368Z" fill="#98D8F4"/>
<path d="M52.9272 137.545C52.7944 137.545 52.6616 137.492 52.5554 137.386C50.962 135.843 47.8549 132.732 44.8805 129.115C44.6946 128.902 44.7212 128.556 44.9602 128.37C45.1992 128.184 45.5179 128.211 45.7038 128.45C48.6516 132.014 51.7321 135.099 53.3255 136.615C53.538 136.827 53.538 137.146 53.3255 137.359C53.1927 137.492 53.06 137.545 52.9272 137.545Z" fill="black"/>
<path d="M93.5587 162.225C93.4259 162.225 93.2932 162.172 93.1869 162.065C92.9745 161.852 92.9745 161.533 93.1869 161.321L96.6393 157.863C96.8517 157.651 97.1704 157.651 97.3829 157.863C97.5953 158.076 97.5953 158.395 97.3829 158.608L93.9305 162.065C93.8243 162.172 93.6915 162.225 93.5587 162.225Z" fill="black"/>
<path d="M97.5422 166.214C97.4359 166.214 97.3563 166.187 97.2766 166.134C97.0376 165.975 96.9579 165.655 97.0907 165.389L99.8526 160.895C100.012 160.656 100.331 160.576 100.596 160.709C100.835 160.868 100.915 161.188 100.782 161.454L97.9936 165.948C97.8874 166.134 97.7281 166.214 97.5422 166.214Z" fill="black"/>
<path d="M25.2021 171.905C25.1225 171.905 25.0428 171.878 24.9631 171.852L21.3514 170.15C21.0859 170.017 20.9796 169.698 21.0859 169.432C21.2187 169.166 21.5373 169.059 21.8029 169.166L25.4146 170.868C25.6802 171.001 25.7864 171.32 25.6802 171.586C25.6005 171.799 25.388 171.905 25.2021 171.905Z" fill="black"/>
<path d="M23.7682 175.868C23.7416 175.868 23.7151 175.868 23.6885 175.868L19.6785 175.309C19.3864 175.256 19.1739 174.99 19.227 174.697C19.2801 174.405 19.5457 174.192 19.8378 174.245L23.8479 174.804C24.14 174.857 24.3524 175.123 24.2993 175.415C24.2462 175.681 24.0338 175.868 23.7682 175.868Z" fill="black"/>
<path d="M68.3299 112.76C68.144 112.76 67.9847 112.68 67.8785 112.52L59.9115 100.287C59.7522 100.047 59.8318 99.7017 60.0709 99.5422C60.3099 99.3826 60.6551 99.4624 60.8144 99.7018L68.7814 111.935C68.9407 112.174 68.8611 112.52 68.6221 112.68C68.5424 112.733 68.4362 112.76 68.3299 112.76Z" fill="black"/>
<path d="M38.3211 44.1464C50.4945 44.1464 60.363 34.2639 60.363 22.0732C60.363 9.88251 50.4945 0 38.3211 0C26.1477 0 16.2792 9.88251 16.2792 22.0732C16.2792 34.2639 26.1477 44.1464 38.3211 44.1464Z" fill="#A8CA48"/>
<path d="M44.7213 37.8968C44.5619 37.8968 44.4026 37.817 44.3229 37.7106L36.3825 28.1101L28.0969 34.3066C27.911 34.4395 27.6454 34.4395 27.4595 34.3066C27.2736 34.1736 27.194 33.9342 27.2736 33.6949L30.7525 23.6689L22.998 17.6054C22.8121 17.4724 22.759 17.2331 22.8121 17.0203C22.8918 16.8076 23.0777 16.648 23.3167 16.648L32.638 16.4618L33.8596 6.16987C33.8862 5.93052 34.0721 5.74436 34.3111 5.71776C34.5501 5.69117 34.7626 5.79755 34.8688 6.0103L39.3303 15.1587L47.5894 8.21762C47.7753 8.05805 48.0408 8.05805 48.2267 8.19102C48.4126 8.32399 48.5188 8.56334 48.4392 8.80269L44.9072 19.201L54.7596 22.4987C54.9986 22.5785 55.1314 22.7913 55.1314 23.0306C55.1314 23.27 54.9455 23.4827 54.7065 23.5359L43.6059 26.0889L45.2789 37.3117C45.3055 37.551 45.1993 37.7904 44.9603 37.8702C44.8806 37.8702 44.8009 37.8968 44.7213 37.8968ZM36.4622 26.8336C36.6215 26.8336 36.7543 26.8868 36.8605 27.0197L43.898 35.5565L42.4374 25.7432C42.3843 25.4773 42.5702 25.2113 42.8358 25.1581L52.582 22.9242L44.0308 20.0786C43.898 20.0255 43.7918 19.9457 43.7121 19.8127C43.659 19.6797 43.6324 19.5468 43.6856 19.4138L46.7927 10.3186L39.4631 16.4086C39.3303 16.515 39.1709 16.5416 39.0116 16.515C38.8523 16.4884 38.7195 16.382 38.6398 16.2225L34.6829 8.11124L33.6206 17.0469C33.5941 17.3128 33.3816 17.499 33.1161 17.5256L24.8304 17.6852L31.7086 23.0572C31.8945 23.1902 31.9476 23.4295 31.8945 23.6423L28.8405 32.4184L36.1435 26.9399C36.2497 26.8602 36.356 26.8336 36.4622 26.8336Z" fill="black"/>
<path d="M95.152 99.1964C94.9927 99.1964 94.8333 99.1167 94.7271 98.9837L50.6433 40.4764C50.4574 40.2371 50.5105 39.9179 50.7495 39.7318C50.9885 39.5456 51.3072 39.5988 51.4931 39.8381L95.5769 98.3454C95.7628 98.5848 95.7097 98.9039 95.4707 99.0901C95.3645 99.1698 95.2583 99.1964 95.152 99.1964Z" fill="black"/>
<path d="M49.2625 37.8968L58.7962 41.9125L50.5637 48.1621L49.2625 37.8968Z" fill="#A8CA48"/>
<path d="M49.6608 41.5402C49.5014 41.5402 49.3421 41.4604 49.2359 41.3274C49.0765 41.0881 49.1296 40.769 49.3686 40.5828L51.9712 38.7212C52.2102 38.5616 52.5289 38.6148 52.7148 38.8542C52.8741 39.0935 52.821 39.4126 52.582 39.5988L49.9794 41.4604C49.8732 41.5136 49.767 41.5402 49.6608 41.5402Z" fill="black"/>
<path d="M22.3872 163.82C22.2278 163.82 22.095 163.767 21.9888 163.634C21.8029 163.395 21.8295 163.076 22.0685 162.89C22.1482 162.836 29.2387 156.933 35.3202 151.215C40.3394 146.481 44.2963 140.098 47.4034 131.748C47.5096 131.482 47.8018 131.322 48.0939 131.429C48.3595 131.535 48.5188 131.828 48.4126 132.12C45.2523 140.657 41.2157 147.146 36.0638 152.013C29.9558 157.757 22.8386 163.687 22.759 163.741C22.6262 163.767 22.5199 163.82 22.3872 163.82Z" fill="black"/>
<path d="M15.7479 154.273C15.5886 154.273 15.4558 154.22 15.3496 154.087C15.1637 153.874 15.1637 153.528 15.4027 153.342C17.8194 151.188 20.7937 149.167 23.6883 147.252C26.4768 145.391 29.0793 143.609 30.8055 141.96C36.2496 136.694 40.2596 129.275 44.2165 117.094C44.2962 116.828 44.6149 116.669 44.8805 116.749C45.1726 116.828 45.3054 117.148 45.2257 117.413C41.2157 129.753 37.126 137.333 31.5491 142.705C29.7698 144.407 27.1141 146.215 24.2991 148.103C21.4576 150.018 18.5098 152.013 16.1463 154.114C15.987 154.22 15.8807 154.273 15.7479 154.273Z" fill="black"/>
<path d="M86.1229 156.64C85.9105 156.64 85.7246 156.534 85.6449 156.321C80.9178 146.135 73.5086 131.03 63.9216 117.546C63.7623 117.307 63.8154 116.988 64.0544 116.802C64.2934 116.642 64.6121 116.695 64.798 116.935C74.438 130.498 81.8739 145.657 86.6275 155.869C86.7603 156.135 86.6275 156.454 86.3619 156.587C86.2823 156.613 86.2026 156.64 86.1229 156.64Z" fill="black"/>
<path d="M75.2347 161.985C75.0222 161.985 74.8098 161.852 74.7301 161.64C71.5168 152.465 68.7549 145.657 65.7274 139.593C63.0187 134.141 60.2568 130.737 57.3356 127.147C55.1314 124.408 52.8475 121.589 50.3512 117.653C50.1919 117.413 50.2715 117.068 50.5105 116.908C50.7496 116.749 51.0948 116.828 51.2541 117.068C53.7239 120.977 55.9812 123.77 58.1854 126.482C61.1332 130.126 63.9216 133.556 66.6835 139.114C69.7375 145.204 72.5259 152.039 75.7393 161.267C75.8455 161.533 75.6861 161.852 75.4206 161.932C75.3409 161.985 75.2878 161.985 75.2347 161.985Z" fill="black"/>
<path d="M97.5421 178.899C97.4359 178.899 97.3562 178.873 97.25 178.82C90.9295 174.777 83.3875 176.134 80.2804 177.41C80.0148 177.516 79.6961 177.383 79.5899 177.118C79.4837 176.852 79.6165 176.532 79.882 176.426C84.4497 174.538 92.0184 174.219 97.8077 177.942C98.0467 178.102 98.1263 178.421 97.967 178.687C97.8873 178.82 97.728 178.899 97.5421 178.899Z" fill="black"/>
<path d="M6.95772 171.852C6.87805 171.852 6.82493 171.852 6.74526 171.799C6.4797 171.692 6.34691 171.373 6.45314 171.107C7.62163 168.288 7.83408 161.4 5.47055 157.491C5.31121 157.252 5.39088 156.906 5.65644 156.773C5.89545 156.613 6.24069 156.693 6.37347 156.959C8.9229 161.214 8.71045 168.448 7.40918 171.533C7.35606 171.719 7.17017 171.852 6.95772 171.852Z" fill="black"/>
<path d="M52.3429 126.03C51.44 126.03 50.4043 125.977 49.2623 125.844C45.9959 125.498 42.4904 125.073 38.7459 124.355L36.0106 123.371L41.0564 108.478L43.0747 108.584C49.3686 110.339 53.2724 111.51 54.0691 111.855C54.9454 112.254 55.45 112.706 55.5297 113.158C55.6093 113.557 55.3438 113.876 55.2641 113.956C55.1579 114.089 55.1048 114.275 55.1579 114.435C55.211 114.594 55.3438 114.727 55.5031 114.807C57.3621 115.392 58.504 116.19 58.8758 117.068C59.0882 117.6 58.9289 118.025 58.8758 118.078C58.7961 118.264 58.8227 118.477 58.9289 118.637C58.982 118.717 59.5132 119.381 59.4335 120.099C59.3804 120.472 59.1679 120.818 58.7696 121.11C58.5837 121.243 58.504 121.509 58.5837 121.722C58.743 122.174 58.743 122.546 58.5837 122.865C58.265 123.45 57.5214 123.663 57.3621 123.716C57.0965 123.796 56.9372 124.035 56.9637 124.301C56.9637 124.381 56.9903 124.621 56.7513 124.913C56.4326 125.339 55.4234 126.03 52.3429 126.03Z" fill="white"/>
<path d="M41.4282 109.036L42.9685 109.116C51.7056 111.536 53.4849 112.201 53.8301 112.361C54.6268 112.733 54.972 113.079 54.9986 113.291C55.0251 113.451 54.8658 113.637 54.8658 113.664C54.6268 113.93 54.5471 114.302 54.6533 114.648C54.7596 114.993 55.0251 115.259 55.3438 115.366C57.0169 115.898 58.0791 116.589 58.3713 117.307C58.504 117.653 58.3978 117.892 58.3978 117.892C58.2119 118.264 58.265 118.69 58.5306 119.009C58.6899 119.195 58.9555 119.674 58.9289 120.073C58.9289 120.153 58.8758 120.419 58.4775 120.711C58.1057 120.977 57.9464 121.482 58.1057 121.935C58.265 122.387 58.1588 122.573 58.1322 122.653C57.9729 122.972 57.4683 123.158 57.2293 123.238C56.6982 123.371 56.3795 123.876 56.4326 124.408C56.4326 124.408 56.4326 124.488 56.3264 124.621C56.1671 124.833 55.3704 125.551 52.3164 125.551C51.4134 125.551 50.4043 125.498 49.2889 125.365C46.049 125.019 42.5436 124.594 38.8522 123.902L36.648 123.105L41.4282 109.036ZM40.6581 107.919L35.3202 123.69L38.5866 124.86C42.3577 125.578 45.9162 126.003 49.1827 126.376C50.3512 126.509 51.4135 126.562 52.3429 126.562C55.4766 126.562 56.6982 125.844 57.1762 125.232C57.5215 124.78 57.5215 124.381 57.4949 124.222C57.7073 124.168 58.6368 123.876 59.0617 123.131C59.3007 122.679 59.3273 122.147 59.1148 121.562C59.646 121.19 59.9381 120.711 59.9912 120.206C60.0974 119.302 59.5132 118.504 59.3804 118.344C59.4601 118.211 59.6725 117.626 59.3804 116.908C58.9555 115.871 57.7339 114.993 55.6891 114.355C55.8218 114.196 56.1671 113.717 56.0608 113.105C55.9546 112.467 55.3438 111.882 54.2816 111.403C53.2193 110.924 47.6424 109.329 43.1544 108.079L40.6581 107.919Z" fill="black"/>
<path d="M38.5866 124.86C24.6179 122.2 17.5538 117.227 17.5538 110.1C17.5538 101.244 29.6371 92.2288 34.8421 88.7715L44.0041 84.1707L34.9484 105.818C35.4529 105.951 39.1443 106.962 43.1543 108.079L43.2074 108.106L38.6397 124.913L38.5866 124.86Z" fill="#46A09D"/>
<path d="M54.7861 115.153C54.733 115.153 54.7065 115.153 54.6534 115.126L51.4666 114.329C51.1745 114.249 51.0151 113.956 51.0682 113.69C51.1479 113.398 51.44 113.238 51.7056 113.291L54.8924 114.089C55.1845 114.169 55.3438 114.462 55.2907 114.727C55.2376 114.993 55.0251 115.153 54.7861 115.153Z" fill="black"/>
<path d="M58.7696 119.142C58.743 119.142 58.743 119.142 58.7165 119.142C58.6102 119.142 56.1936 118.85 47.244 116.749C46.9519 116.669 46.7926 116.403 46.8457 116.11C46.8988 115.818 47.1909 115.658 47.4831 115.711C56.3529 117.786 58.8227 118.078 58.8492 118.105C59.1414 118.132 59.3538 118.397 59.3273 118.69C59.2741 118.929 59.0351 119.142 58.7696 119.142Z" fill="black"/>
<path d="M58.504 121.802C56.7779 121.802 49.8732 120.977 46.3943 119.913C46.1021 119.834 45.9693 119.541 46.049 119.248C46.1287 118.956 46.4208 118.823 46.7129 118.903C50.0325 119.913 56.8575 120.738 58.504 120.738C58.7962 120.738 59.0352 120.977 59.0352 121.27C59.0352 121.562 58.7962 121.802 58.504 121.802Z" fill="black"/>
<path d="M56.9106 124.461C54.2815 124.461 49.2358 123.956 45.6507 123.105C45.3585 123.051 45.1992 122.759 45.2523 122.466C45.3054 122.174 45.5975 122.014 45.8897 122.067C49.2889 122.865 54.3346 123.371 56.9372 123.371C57.2293 123.371 57.4683 123.61 57.4683 123.902C57.4683 124.195 57.2028 124.461 56.9106 124.461Z" fill="black"/>
<path d="M43.6323 109.302C43.5792 109.302 43.5261 109.302 43.4995 109.276L31.018 105.818C30.7258 105.739 30.5665 105.446 30.6462 105.154C30.7258 104.861 31.018 104.701 31.3101 104.781L43.7917 108.238C44.0838 108.318 44.2431 108.611 44.1635 108.903C44.0838 109.143 43.8713 109.302 43.6323 109.302Z" fill="black"/>
<path d="M34.8688 106.377C34.7891 106.377 34.736 106.35 34.6563 106.324C34.3907 106.217 34.258 105.898 34.3642 105.632L37.0995 99.1167C37.2057 98.8507 37.5244 98.7178 37.79 98.8241C38.0555 98.9305 38.1883 99.2497 38.0821 99.5156L35.3468 106.031C35.2671 106.244 35.0812 106.377 34.8688 106.377Z" fill="black"/>
<path d="M37.4978 90.0746C34.5766 90.0746 32.1865 87.6812 32.1865 84.7558C32.1865 81.8304 34.5766 79.437 37.4978 79.437C40.419 79.437 42.8091 81.8304 42.8091 84.7558C42.8091 87.7078 40.419 90.0746 37.4978 90.0746Z" fill="white"/>
<path d="M37.4978 79.9954C40.1269 79.9954 42.278 82.1495 42.278 84.7824C42.278 87.4152 40.1269 89.5693 37.4978 89.5693C34.8687 89.5693 32.7177 87.4152 32.7177 84.7824C32.7177 82.1495 34.8687 79.9954 37.4978 79.9954ZM37.4978 78.9316C34.2845 78.9316 31.6554 81.5379 31.6554 84.7824C31.6554 88.0269 34.2579 90.6331 37.4978 90.6331C40.7377 90.6331 43.3403 88.0269 43.3403 84.7824C43.3403 81.5379 40.7112 78.9316 37.4978 78.9316Z" fill="black"/>
<path d="M49.0765 92.4149C46.5536 92.4149 44.1635 90.8193 42.1718 87.7609C35.2671 77.2296 36.3825 72.549 40.3925 68.4269C40.419 68.4003 45.093 63.8261 50.8558 63.8261C51.9977 63.8261 53.0865 64.0123 54.1753 64.358C58.2385 65.6877 60.1505 72.815 58.6368 80.9262C57.3356 87.6811 53.4052 92.4149 49.0765 92.4149Z" fill="white"/>
<path d="M50.8292 64.358C51.8915 64.358 52.9537 64.5176 53.9629 64.8633C55.689 65.4218 57.07 67.2568 57.8667 70.0492C58.7165 73.0543 58.7962 76.8839 58.0526 80.8198C57.4418 84.1441 56.1936 86.9631 54.4409 89.0109C52.8475 90.8725 50.9354 91.883 49.0499 91.883C46.7129 91.883 44.4556 90.3672 42.5701 87.495C35.8779 77.2828 36.887 72.7618 40.7112 68.8258C40.9236 68.6397 45.3851 64.358 50.8292 64.358ZM50.8292 63.2943C44.7743 63.2943 39.9676 68.0546 39.9676 68.0546C35.4795 72.682 35.0281 77.8945 41.6937 88.0535C43.9245 91.4309 46.527 92.9468 49.0499 92.9468C53.538 92.9468 57.7605 88.2396 59.1148 81.006C60.7082 72.4693 58.5571 65.2356 54.3081 63.8261C53.1396 63.4538 51.9711 63.2943 50.8292 63.2943Z" fill="black"/>
<path d="M53.83 81.0592C53.6707 81.0592 53.5113 80.9794 53.4051 80.8464C53.2192 80.6071 53.2723 80.288 53.5113 80.1018C53.7769 79.8891 53.9894 79.6231 54.0956 79.304C54.308 78.6391 53.8566 76.7509 53.4848 75.3946C53.4051 75.1021 53.5645 74.8096 53.8566 74.7298C54.1487 74.65 54.4408 74.8096 54.5205 75.1021C55.1844 77.602 55.3437 78.8519 55.1047 79.6497C54.9188 80.1816 54.6002 80.6071 54.1487 80.9528C54.069 81.0326 53.9363 81.0592 53.83 81.0592Z" fill="black"/>
<path d="M50.2981 77.8413C50.0326 77.8413 49.8201 77.6551 49.767 77.3892L49.6873 76.7775C49.6608 76.485 49.8467 76.219 50.1388 76.1924C50.4309 76.1659 50.6965 76.352 50.723 76.6446L50.8027 77.2562C50.8293 77.5488 50.6434 77.8147 50.3512 77.8413C50.3512 77.8413 50.3247 77.8413 50.2981 77.8413Z" fill="black"/>
<path d="M56.7248 75.3946C56.4592 75.3946 56.2467 75.2085 56.1936 74.9425L56.114 74.3574C56.0874 74.0649 56.2733 73.799 56.5654 73.7458C56.8575 73.6926 57.1231 73.9053 57.1762 74.1979L57.2559 74.783C57.2825 75.0755 57.0966 75.3414 56.8044 75.3946C56.7779 75.3946 56.7513 75.3946 56.7248 75.3946Z" fill="black"/>
<path d="M52.0243 84.4367C50.8292 84.4367 49.767 83.6122 49.528 82.3889C49.4749 82.0964 49.6607 81.8304 49.9529 81.7506C50.245 81.6975 50.5106 81.8836 50.5902 82.1761C50.7496 82.974 51.4931 83.4793 52.2898 83.3463C52.3961 83.3197 52.4492 83.3197 52.4757 83.2931C52.7413 83.1601 53.06 83.2665 53.1928 83.5324C53.3256 83.7984 53.2193 84.1175 52.9538 84.2505C52.7944 84.3303 52.6085 84.3835 52.4757 84.4101C52.3164 84.4367 52.1836 84.4367 52.0243 84.4367Z" fill="black"/>
<path d="M36.648 86.0589C36.4621 86.0589 36.2762 85.9525 36.17 85.7664C36.0372 85.5004 36.1434 85.1813 36.409 85.0483L39.463 83.5324C39.7285 83.3995 40.0472 83.5058 40.18 83.7718C40.3128 84.0377 40.2065 84.3569 39.941 84.4898L36.887 86.0057C36.8073 86.0323 36.7276 86.0589 36.648 86.0589Z" fill="black"/>
<path d="M58.3978 69.0918C51.5728 73.1075 43.0482 69.3577 43.0482 69.3577C44.615 74.0649 45.5445 80.74 40.7643 86.3248C40.7643 86.3248 38.1883 82.7878 36.9667 76.6711C35.7451 70.5545 42.0656 65.9803 46.0756 64.6239C50.0856 63.2676 55.5828 62.0975 58.3978 69.0918Z" fill="black"/>
<path d="M88.2741 94.3563C87.1056 94.3563 86.8932 92.8404 86.8666 92.5479C86.8401 92.3085 86.6542 92.0958 86.3886 92.0692C85.7778 91.9894 85.3263 91.7767 85.0342 91.4043C84.5827 90.7927 84.689 89.9151 84.7155 89.7555C84.7421 89.6225 84.689 89.463 84.6093 89.3566C84.5296 89.2502 84.3969 89.1704 84.2375 89.1438C83.6267 89.064 83.1753 88.8513 82.9097 88.479C82.4317 87.8407 82.5644 86.9099 82.591 86.8301C82.6176 86.5908 82.5113 86.378 82.2989 86.2717C81.2366 85.7664 80.7852 85.1281 80.9445 84.4367C81.2897 82.8676 84.3172 81.0858 86.123 81.0858C86.601 81.0858 87.5305 81.4315 87.7695 82.7878C87.8226 83.0272 88.0351 83.2133 88.2741 83.2133C88.9911 83.2133 89.5223 83.4793 89.8409 83.9314C90.1862 84.41 90.2127 84.9951 90.08 85.3409C90.0268 85.4738 90.0534 85.6334 90.1065 85.7664C90.1862 85.8993 90.2924 85.9791 90.4252 86.0323C90.8501 86.1653 91.1953 86.4312 91.4343 86.8301C91.7265 87.3354 91.8061 88.0003 91.6468 88.5853C91.5937 88.7715 91.6468 88.9577 91.7796 89.0906C92.1779 89.5161 92.3904 90.1012 92.3638 90.7395C92.3373 91.4841 91.9655 92.2288 91.3547 92.7341C89.7613 94.0904 88.8052 94.3563 88.2741 94.3563Z" fill="white"/>
<path d="M86.1229 81.5911C86.1229 81.5911 87.0258 81.6177 87.2383 82.841C87.3179 83.3463 87.7694 83.7186 88.274 83.7186C88.8051 83.7186 89.1769 83.8782 89.4159 84.2239C89.6549 84.5696 89.6549 84.9951 89.6018 85.1813C89.5221 85.4472 89.5487 85.7664 89.6815 86.0057C89.8143 86.2717 90.0533 86.4578 90.3454 86.5376C90.6375 86.6174 90.8765 86.8035 91.0359 87.0961C91.2483 87.4684 91.328 88.0003 91.1952 88.4258C91.089 88.7715 91.1952 89.1704 91.4608 89.4364C91.7794 89.7555 91.9388 90.2076 91.9122 90.6863C91.8857 91.298 91.567 91.883 91.089 92.3085C89.5221 93.6382 88.6723 93.8244 88.3005 93.8244C87.5835 93.8244 87.4507 92.6277 87.4242 92.4947C87.3711 91.9894 86.9727 91.5905 86.4947 91.5373C85.8042 91.4575 85.5918 91.165 85.5121 91.0852C85.1669 90.6331 85.2731 89.9151 85.2731 89.8353C85.3262 89.5427 85.2465 89.2502 85.0606 89.0374C84.8747 88.7981 84.6357 88.6651 84.3436 88.6119C83.6531 88.5322 83.4407 88.2396 83.361 88.1598C83.0158 87.6811 83.122 86.9365 83.1486 86.9099C83.2282 86.4312 82.9892 85.9791 82.5643 85.7664C81.3427 85.1813 81.4489 84.676 81.5021 84.5164C81.7411 83.2931 84.4233 81.5911 86.1229 81.5911ZM86.1229 80.5273C84.1046 80.5273 80.8381 82.4155 80.4398 84.2771C80.2805 84.9685 80.4398 85.9259 82.0863 86.7237C82.0597 86.9365 81.927 88.0003 82.5112 88.7981C82.883 89.3034 83.4407 89.5959 84.2108 89.6757C84.1843 89.9417 84.0515 90.9522 84.6357 91.7235C85.0075 92.2288 85.5918 92.5213 86.3619 92.6011C86.3885 92.9202 86.654 94.8882 88.3005 94.8882C89.2035 94.8882 90.3719 94.3031 91.7529 93.1064C92.4699 92.4947 92.9214 91.6171 92.9745 90.7395C93.001 89.9683 92.762 89.2236 92.2575 88.6917C92.4434 87.9737 92.3371 87.1759 91.9919 86.5376C91.6998 86.0057 91.2218 85.66 90.6641 85.5004C90.8234 84.9951 90.7969 84.2505 90.3454 83.6122C90.0533 83.1867 89.4425 82.6548 88.3536 82.6548C87.9819 80.9794 86.7337 80.5273 86.1229 80.5273Z" fill="black"/>
<path d="M86.7868 92.7075C86.6806 92.7075 86.6009 92.6809 86.4947 92.6277C86.2557 92.4681 86.176 92.149 86.3353 91.883C87.7428 89.6225 91.1155 88.3726 91.2483 88.3194C91.5139 88.213 91.8325 88.346 91.9388 88.6385C92.045 88.9045 91.9122 89.2236 91.6201 89.33C91.5935 89.33 88.4599 90.5267 87.2383 92.4681C87.132 92.6277 86.9727 92.7075 86.7868 92.7075Z" fill="black"/>
<path d="M84.6358 89.8087C84.5296 89.8087 84.4234 89.7821 84.3171 89.7023C84.0781 89.5161 84.0516 89.197 84.2109 88.9577C84.2906 88.8513 86.123 86.4844 89.7878 85.394C90.0799 85.3143 90.372 85.4738 90.4517 85.7398C90.5314 86.0323 90.372 86.3248 90.1065 86.4046C86.7603 87.3886 85.0873 89.5693 85.0607 89.5959C84.9545 89.7289 84.7952 89.8087 84.6358 89.8087Z" fill="black"/>
<path d="M82.6707 86.8567C82.5379 86.8567 82.4051 86.8035 82.2989 86.6972C82.0864 86.4844 82.0864 86.1653 82.2989 85.9525L82.4582 85.793C83.308 84.9419 84.7155 83.5059 87.5836 82.7346C87.8757 82.6548 88.1679 82.8144 88.2475 83.1069C88.3272 83.3995 88.1679 83.692 87.8757 83.7718C85.2732 84.4898 84.0516 85.7398 83.2283 86.5642L83.069 86.7238C82.9362 86.8035 82.8034 86.8567 82.6707 86.8567Z" fill="black"/>
</svg>
