<svg width="335" height="178" viewBox="0 0 335 178" fill="none" xmlns="http://www.w3.org/2000/svg">
<path d="M172.55 132.812H139.896V165.305H172.55V132.812Z" fill="#98D8F4"/>
<path d="M270.361 132.812H237.706V165.305H270.361V132.812Z" fill="#46A09D"/>
<path d="M172.423 132.812V165.305H188.253C188.253 156.072 195.799 148.589 205.077 148.589C214.356 148.589 221.876 156.072 221.876 165.305H237.706V132.812H172.423Z" fill="#A8CA48"/>
<path d="M188.585 100.345H155.93V132.838H188.585V100.345Z" fill="#6C79D9"/>
<path d="M221.239 100.345H188.585V132.838H221.239V100.345Z" fill="#A8CA48"/>
<path d="M221.239 35.4619H188.585L204.899 2.96948L221.239 35.4619Z" fill="#46A09D"/>
<path d="M253.893 100.345H221.239V132.838H253.893V100.345Z" fill="#98D8F4"/>
<path d="M205.077 67.9289H172.423V100.421H205.077V67.9289Z" fill="#98D8F4"/>
<path d="M237.732 67.9289H205.077V100.421H237.732V67.9289Z" fill="#A8CA48"/>
<path d="M221.239 35.4619H188.585V67.9543H221.239V35.4619Z" fill="#46A09D"/>
<path d="M156.236 157.594C151.189 157.594 147.085 153.51 147.085 148.513C147.085 148.234 147.314 148.006 147.595 148.006C147.875 148.006 148.104 148.209 148.104 148.513C148.104 152.977 151.75 156.604 156.236 156.604C160.697 156.604 164.342 152.977 164.342 148.513C164.342 148.234 164.572 148.006 164.852 148.006C165.133 148.006 165.362 148.234 165.362 148.513C165.362 153.51 161.258 157.594 156.236 157.594Z" fill="black"/>
<path d="M151.316 146.509C151.036 146.509 150.806 146.281 150.806 146.002V144.734C150.806 144.455 151.036 144.226 151.316 144.226C151.597 144.226 151.826 144.455 151.826 144.734V146.002C151.826 146.281 151.597 146.509 151.316 146.509Z" fill="black"/>
<path d="M161.13 146.509C160.85 146.509 160.621 146.281 160.621 146.002V144.734C160.621 144.455 160.85 144.226 161.13 144.226C161.411 144.226 161.64 144.455 161.64 144.734V146.002C161.64 146.281 161.411 146.509 161.13 146.509Z" fill="black"/>
<path d="M253.868 133.32H155.93C155.65 133.32 155.42 133.091 155.42 132.812C155.42 132.533 155.65 132.305 155.93 132.305H253.868C254.148 132.305 254.378 132.533 254.378 132.812C254.378 133.091 254.148 133.32 253.868 133.32Z" fill="black"/>
<path d="M172.449 165.812C172.168 165.812 171.939 165.584 171.939 165.305V132.787C171.939 132.508 172.168 132.28 172.449 132.28C172.729 132.28 172.958 132.508 172.958 132.787V165.305C172.958 165.584 172.729 165.812 172.449 165.812Z" fill="black"/>
<path d="M237.808 100.802H172.015C171.735 100.802 171.505 100.574 171.505 100.294C171.505 100.015 171.735 99.7872 172.015 99.7872H237.808C238.089 99.7872 238.318 100.015 238.318 100.294C238.318 100.574 238.089 100.802 237.808 100.802Z" fill="black"/>
<path d="M221.239 68.5377H188.585C188.304 68.5377 188.075 68.3094 188.075 68.0304C188.075 67.7514 188.304 67.5231 188.585 67.5231H221.239C221.519 67.5231 221.749 67.7514 221.749 68.0304C221.749 68.3094 221.519 68.5377 221.239 68.5377Z" fill="black"/>
<path d="M221.239 36.2482H188.585C188.304 36.2482 188.075 36.0199 188.075 35.7409C188.075 35.4619 188.304 35.2336 188.585 35.2336H221.239C221.519 35.2336 221.749 35.4619 221.749 35.7409C221.749 36.0199 221.519 36.2482 221.239 36.2482Z" fill="black"/>
<path d="M237.808 165.812C237.528 165.812 237.298 165.584 237.298 165.305V132.787C237.298 132.508 237.528 132.28 237.808 132.28C238.089 132.28 238.318 132.508 238.318 132.787V165.305C238.318 165.584 238.089 165.812 237.808 165.812Z" fill="black"/>
<path d="M221.239 133.294C220.958 133.294 220.729 133.066 220.729 132.787V100.269C220.729 99.9901 220.958 99.7618 221.239 99.7618C221.519 99.7618 221.749 99.9901 221.749 100.269V132.787C221.749 133.066 221.519 133.294 221.239 133.294Z" fill="black"/>
<path d="M205.128 100.776C204.848 100.776 204.619 100.548 204.619 100.269V68.005C204.619 67.726 204.848 67.4977 205.128 67.4977C205.409 67.4977 205.638 67.726 205.638 68.005V100.269C205.638 100.548 205.409 100.776 205.128 100.776Z" fill="black"/>
<path d="M188.788 133.294C188.508 133.294 188.279 133.066 188.279 132.787V100.269C188.279 99.9901 188.508 99.7618 188.788 99.7618C189.069 99.7618 189.298 99.9901 189.298 100.269V132.787C189.298 133.066 189.069 133.294 188.788 133.294Z" fill="black"/>
<path d="M187.973 92.6596C186.367 92.6596 184.633 92.2031 182.849 91.2646C182.594 91.1378 182.492 90.8334 182.645 90.5797C182.798 90.3261 183.078 90.2246 183.333 90.3768C188.763 93.2177 191.694 90.5797 192.459 89.692C194.091 87.8403 194.295 85.1263 192.944 83.2239C191.669 81.4738 189.808 80.865 187.412 81.4737C185.526 81.9557 184.022 82.9956 183.996 82.9956C183.818 83.1225 183.614 83.1225 183.435 83.021C183.257 82.9195 183.18 82.7166 183.206 82.5137L184.073 76.8827C184.098 76.6291 184.327 76.4515 184.582 76.4515H192.51C192.791 76.4515 193.02 76.6798 193.02 76.9588C193.02 77.2378 192.791 77.4661 192.51 77.4661H185.016L184.378 81.5752C186.928 80.1548 191.21 79.0641 193.759 82.6152C195.391 84.9234 195.187 88.094 193.198 90.3261C191.873 91.8734 190.038 92.6596 187.973 92.6596Z" fill="black"/>
<path d="M188.788 108.437C188.661 108.437 188.534 108.386 188.432 108.284C188.228 108.082 188.228 107.777 188.432 107.574L195.977 99.9901C196.181 99.7872 196.487 99.7872 196.691 99.9901C196.895 100.193 196.895 100.497 196.691 100.7L189.145 108.284C189.043 108.386 188.916 108.437 188.788 108.437Z" fill="black"/>
<path d="M188.788 120.992C188.661 120.992 188.534 120.941 188.432 120.84C188.228 120.637 188.228 120.333 188.432 120.13L208.493 99.9901C208.697 99.7872 209.003 99.7872 209.207 99.9901C209.411 100.193 209.411 100.497 209.207 100.7L189.145 120.84C189.043 120.941 188.916 120.992 188.788 120.992Z" fill="black"/>
<path d="M188.967 133.37C188.839 133.37 188.712 133.32 188.61 133.218C188.406 133.015 188.406 132.711 188.61 132.508L220.678 100.142C220.882 99.9394 221.188 99.9394 221.392 100.142C221.596 100.345 221.596 100.65 221.392 100.853L189.324 133.218C189.222 133.32 189.094 133.37 188.967 133.37Z" fill="black"/>
<path d="M201.458 133.37C201.33 133.37 201.203 133.32 201.101 133.218C200.897 133.015 200.897 132.711 201.101 132.508L220.755 112.749C220.958 112.546 221.264 112.546 221.468 112.749C221.672 112.952 221.672 113.256 221.468 113.459L201.814 133.218C201.713 133.32 201.585 133.37 201.458 133.37Z" fill="black"/>
<path d="M213.948 133.37C213.821 133.37 213.693 133.32 213.591 133.218C213.388 133.015 213.388 132.711 213.591 132.508L220.755 125.304C220.958 125.101 221.264 125.101 221.468 125.304C221.672 125.507 221.672 125.812 221.468 126.014L214.305 133.218C214.203 133.32 214.076 133.37 213.948 133.37Z" fill="black"/>
<path d="M209.08 63.4393C208.927 63.4393 208.774 63.3632 208.697 63.2618L203.064 56.464L197.201 60.8521C197.022 60.9789 196.767 60.9789 196.589 60.8521C196.41 60.7253 196.334 60.497 196.41 60.2687L198.883 53.1919L193.351 48.8799C193.173 48.7531 193.122 48.5248 193.173 48.3219C193.249 48.119 193.428 47.9668 193.657 47.9668L200.26 47.8146L201.152 40.5856C201.177 40.3573 201.356 40.1798 201.585 40.1544C201.815 40.129 202.018 40.2305 202.12 40.4334L205.256 46.8253L211.068 41.9553C211.246 41.8031 211.501 41.8031 211.68 41.9299C211.858 42.0568 211.96 42.285 211.884 42.5133L209.385 49.8438L216.37 52.152C216.599 52.2281 216.727 52.431 216.727 52.6593C216.727 52.8876 216.548 53.0905 216.319 53.1412L208.442 54.9421L209.615 62.8813C209.64 63.1096 209.538 63.3379 209.309 63.414C209.207 63.414 209.156 63.4393 209.08 63.4393ZM203.14 55.2465C203.293 55.2465 203.446 55.2972 203.522 55.424L208.289 61.1819L207.321 54.587C207.27 54.3334 207.448 54.0797 207.703 54.029L214.254 52.5324L208.544 50.6554C208.417 50.6047 208.315 50.5286 208.238 50.4018C208.187 50.275 208.162 50.1481 208.213 50.0213L210.303 43.9338L205.383 48.0429C205.256 48.1443 205.103 48.1951 204.95 48.1443C204.797 48.119 204.67 48.0175 204.593 47.8653L201.942 42.4372L201.203 48.398C201.177 48.6516 200.973 48.8292 200.718 48.8545L195.11 48.9814L199.826 52.6085C200.005 52.7354 200.056 52.9636 200.005 53.1666L197.965 59.0259L202.885 55.3479C202.936 55.2718 203.038 55.2465 203.14 55.2465Z" fill="black"/>
<path d="M239.695 105.748C239.644 105.748 238.7 105.672 237.349 104.556C236.1 103.541 234.239 101.411 232.531 97.0731L232.506 97.0224H232.582C232.608 97.0224 236.381 96.6419 239.72 96.16H239.771V96.2107C239.771 96.2615 240.791 100.396 240.791 102.653C240.765 105.723 239.72 105.748 239.695 105.748Z" fill="black"/>
<path d="M314.333 140.954C313.925 137.479 313.466 134.613 313.033 131.848C312.421 127.993 311.835 124.366 311.529 119.902V119.876L311.554 119.851C311.631 119.8 318.616 115.133 324.581 113.51C326.11 113.104 327.563 113.028 328.838 113.028C332.916 113.028 334.293 115.031 334.318 115.057C334.344 115.082 335.695 117.619 334.522 121.702C332.202 129.794 322.312 136.668 314.41 141.005L314.333 141.03V140.954Z" fill="black"/>
<path d="M291.544 164.848L294.195 132.178L294.705 124.442C296.515 122.92 307.731 113.586 309.311 112.419C309.439 112.343 309.541 112.292 309.617 112.292C310.28 112.292 311.07 115.437 311.121 119.927V119.952C311.427 124.442 312.013 128.069 312.625 131.924C313.058 134.689 313.517 137.555 313.925 141.03C314.996 149.984 315.149 157.137 314.46 164.873L291.544 164.848Z" fill="white"/>
<path d="M309.541 112.85C309.719 113.129 310.127 113.992 310.382 116.325C310.586 118.075 310.611 119.699 310.611 119.902V119.927V119.952C310.917 124.467 311.503 128.12 312.115 131.975C312.549 134.74 313.007 137.581 313.415 141.056C314.46 149.781 314.639 156.807 314.002 164.341H292.105L294.705 132.203L295.189 124.695C297.381 122.844 307.782 114.194 309.541 112.85ZM309.592 111.759C309.388 111.759 309.184 111.835 308.98 111.988C307.246 113.281 294.322 124.061 294.195 124.163L294.169 124.188L293.66 132.127L290.983 165.355H314.919V165.305C315.633 157.365 315.48 150.086 314.409 140.954C314.002 137.479 313.543 134.613 313.109 131.848C312.498 127.993 311.911 124.366 311.605 119.902C311.631 119.572 311.503 111.759 309.592 111.759Z" fill="black"/>
<path d="M257.487 164.848C257.564 164.011 258.023 162.058 260.368 160.079C264.064 156.96 266.129 154.22 266.384 148.589C266.435 147.651 266.435 145.292 266.409 141.563L267.607 135.704L297.075 123.884L296.973 129.921V129.946C297.764 144.962 295.724 162.058 295.393 164.848H257.487Z" fill="white"/>
<path d="M296.566 124.645L296.464 129.895V129.921V129.946C297.228 144.277 295.393 160.485 294.934 164.315H258.099C258.303 163.402 258.915 161.931 260.699 160.435C264.421 157.315 266.639 154.347 266.894 148.589C266.945 147.651 266.945 145.292 266.919 141.588L268.041 136.059L296.566 124.645ZM297.611 123.123L267.174 135.349L265.925 141.512C265.951 145.266 265.951 147.625 265.9 148.564C265.645 153.992 263.656 156.655 260.062 159.699C256.774 162.464 256.978 165.305 256.978 165.33V165.381H295.852V165.33C295.877 165.152 298.375 146.357 297.509 129.921L297.611 123.123Z" fill="black"/>
<path d="M301.307 165.355V165.305C302.556 158.456 308.292 153.155 315.251 152.419H315.302V152.47C315.429 156.731 315.302 161.069 314.919 165.33V165.381H301.307V165.355Z" fill="#46A09D"/>
<path d="M280.939 165.355V165.305C282.29 157.797 288.867 152.318 296.54 152.318C296.693 152.318 296.82 152.318 296.973 152.318H297.126V152.369C296.591 159.826 295.877 165.229 295.877 165.305V165.355H280.939Z" fill="#46A09D"/>
<path d="M256.978 165.355V165.305C256.978 165.279 256.748 162.464 260.062 159.674C262.458 157.644 264.268 155.717 265.186 152.85L265.211 152.774L265.262 152.825C269.264 155.945 272.196 160.384 273.47 165.279L273.496 165.355H256.978Z" fill="#46A09D"/>
<path d="M284.916 41.448C291.153 41.448 296.209 36.4172 296.209 30.2113C296.209 24.0055 291.153 18.9747 284.916 18.9747C278.679 18.9747 273.623 24.0055 273.623 30.2113C273.623 36.4172 278.679 41.448 284.916 41.448Z" fill="black"/>
<path d="M285.4 63.972C282.163 63.972 279.537 61.3594 279.537 58.1381C279.537 54.9167 282.163 52.3041 285.4 52.3041C288.638 52.3041 291.263 54.9167 291.263 58.1381C291.263 61.3594 288.638 63.972 285.4 63.972Z" fill="white"/>
<path d="M285.4 52.8368C288.357 52.8368 290.754 55.2211 290.754 58.1634C290.754 61.1058 288.357 63.4901 285.4 63.4901C282.443 63.4901 280.047 61.1058 280.047 58.1634C280.047 55.2211 282.443 52.8368 285.4 52.8368ZM285.4 51.8222C281.883 51.8222 279.028 54.6631 279.028 58.1634C279.028 61.6638 281.883 64.5046 285.4 64.5046C288.918 64.5046 291.773 61.6638 291.773 58.1634C291.773 54.6631 288.918 51.8222 285.4 51.8222Z" fill="black"/>
<path d="M286.42 59.3556C286.369 59.3556 286.318 59.3556 286.267 59.3302L281.959 57.9859C281.679 57.9098 281.551 57.6054 281.628 57.3517C281.704 57.0727 282.01 56.9459 282.265 57.022L286.573 58.3663C286.853 58.4424 286.981 58.7468 286.904 59.0005C286.828 59.2287 286.649 59.3556 286.42 59.3556Z" fill="black"/>
<path d="M273.649 66.6353C269.239 66.6353 264.778 62.2725 262.586 55.7791C259.756 47.358 260.725 39.4949 264.88 37.4911C266.486 36.7047 268.219 36.3243 270.08 36.3243C275.535 36.3243 280.2 39.7485 280.251 39.7739C283.106 41.9806 284.508 44.3142 284.789 47.3073C285.095 50.6554 283.973 54.8914 281.271 60.5984C279.435 64.4793 276.733 66.6353 273.649 66.6353Z" fill="white"/>
<path d="M270.106 36.8062C275.306 36.8062 279.792 40.0275 279.971 40.1544C284.687 43.8069 286.471 48.4487 280.812 60.3702C279.053 64.0734 276.504 66.128 273.649 66.128C269.443 66.128 265.211 61.8921 263.07 55.6016C261.694 51.5178 261.184 47.4341 261.643 44.0859C262.076 40.9914 263.299 38.7847 265.109 37.9223C266.664 37.1867 268.321 36.8062 270.106 36.8062ZM270.106 35.7916C268.347 35.7916 266.511 36.1214 264.676 37.0091C260.342 39.1144 259.144 47.1043 262.127 55.9313C264.472 62.8813 269.162 67.1426 273.674 67.1426C276.733 67.1426 279.69 65.1895 281.755 60.8014C287.338 49.0321 286.089 43.5786 280.608 39.3427C280.583 39.3427 275.816 35.7916 270.106 35.7916Z" fill="black"/>
<path d="M280.583 39.3427C285.044 42.7923 286.726 47.0282 284.177 54.8406C283.998 55.3733 283.82 55.906 283.616 56.464C276.045 52.5578 275.816 40.5856 275.816 40.5856C268.27 45.9122 260.521 45.2273 260.521 45.2273C260.801 41.2451 262.229 38.2013 264.676 37.0091C272.4 33.2551 280.583 39.3427 280.583 39.3427Z" fill="black"/>
<path d="M267.684 55.1197C267.607 55.1197 267.531 55.0943 267.455 55.0689C266.97 54.8153 266.537 54.4094 266.256 53.8768C266.256 53.8768 266.256 53.8514 266.231 53.8514C265.849 53.0905 265.849 51.67 266.18 49.0067C266.205 48.7277 266.46 48.5248 266.741 48.5755C267.021 48.6009 267.225 48.8545 267.174 49.1335C266.868 51.4417 266.868 52.8368 267.123 53.3948C267.327 53.7246 267.582 54.0036 267.913 54.1812C268.168 54.308 268.245 54.6124 268.117 54.866C268.041 55.0182 267.862 55.1197 267.684 55.1197Z" fill="black"/>
<path d="M270.972 51.1881C270.692 51.1881 270.463 50.9598 270.463 50.6808V50.0213C270.463 49.7423 270.692 49.514 270.972 49.514C271.253 49.514 271.482 49.7423 271.482 50.0213V50.6808C271.482 50.9598 271.253 51.1881 270.972 51.1881Z" fill="black"/>
<path d="M263.733 49.5901C263.452 49.5901 263.223 49.3618 263.223 49.0828V48.4233C263.223 48.1443 263.452 47.916 263.733 47.916C264.013 47.916 264.243 48.1443 264.243 48.4233V49.0828C264.243 49.3618 264.013 49.5901 263.733 49.5901Z" fill="black"/>
<path d="M269.851 58.4424C269.8 58.4424 269.774 58.4424 269.723 58.4424C269.596 58.4424 269.443 58.4171 269.315 58.3917H269.264C268.984 58.341 268.806 58.0873 268.857 57.8083C268.908 57.5293 269.162 57.3517 269.443 57.4025H269.519C269.621 57.4278 269.698 57.4278 269.774 57.4278C270.692 57.4786 271.431 56.7684 271.482 55.8806C271.482 55.6016 271.737 55.3733 272.017 55.3987C272.298 55.3987 272.527 55.6523 272.502 55.9313C272.425 57.3264 271.253 58.4424 269.851 58.4424Z" fill="black"/>
<path d="M223.431 97.0732C217.619 97.0732 213.821 96.2868 212.674 94.8664C212.342 94.4352 212.24 93.9533 212.393 93.3952L212.521 92.8626L211.986 92.7611C211.756 92.7104 209.691 92.2538 210.099 90.0471L210.15 89.692L209.844 89.5144C209.844 89.5144 208.825 88.8803 208.825 87.9164C208.825 87.6628 208.927 87.0287 209.819 86.5975L210.507 86.2424L209.921 85.7351C209.921 85.7351 209.232 85.1263 209.334 84.4161C209.513 83.2493 210.685 82.8181 213.668 82.8181H219.021L217.517 81.8796C216.854 81.4738 216.548 80.9665 216.65 80.3831C216.752 79.6475 217.466 78.988 218.409 78.7344C219.99 78.3032 221.851 77.9734 224.451 77.5422C226.745 77.1617 229.625 76.6798 233.347 75.9442L239.312 75.2086C240.816 76.1218 253.256 83.8327 254.683 91.0109C253.485 91.7465 246.169 93.9025 239.593 95.6274C236.253 96.1093 232.531 96.4644 232.506 96.4898C232.455 96.5659 228.071 97.0732 223.431 97.0732Z" fill="white"/>
<path d="M239.21 75.792C241.173 76.9842 252.44 84.1371 254.123 90.808C252.313 91.6197 245.609 93.5982 239.516 95.1961C236.202 95.6781 232.506 96.0332 232.481 96.0332C232.43 96.0332 228.096 96.5151 223.482 96.5151C220.856 96.5151 214.56 96.3122 213.133 94.5113C212.903 94.2069 212.827 93.8772 212.929 93.4713L213.184 92.4314L212.113 92.2285C212.113 92.2285 211.578 92.127 211.144 91.7719C210.66 91.3914 210.482 90.8588 210.609 90.0978L210.736 89.413L210.125 89.0579C210.125 89.0579 209.334 88.5505 209.334 87.8911C209.334 87.7389 209.411 87.333 210.048 87.0287L211.425 86.3438L210.252 85.3546C210.176 85.2785 209.793 84.8726 209.844 84.4922C209.946 83.8073 210.634 83.3254 213.668 83.3254H217.237H220.78L217.772 81.4484C217.441 81.2455 217.058 80.9157 217.135 80.4592C217.186 80.028 217.67 79.4699 218.537 79.2163C220.092 78.7851 221.953 78.4807 224.527 78.0495C226.821 77.669 229.702 77.1871 233.424 76.4515L239.21 75.792ZM239.44 74.7521L233.271 75.513C225.317 77.111 221.341 77.4661 218.282 78.3031C216.192 78.8865 215.223 81.0933 217.262 82.3615H213.693C211.144 82.3615 209.105 82.6152 208.85 84.3907C208.697 85.4053 209.615 86.1663 209.615 86.1663C208.595 86.6735 208.34 87.4345 208.34 87.9418C208.34 89.21 209.615 89.971 209.615 89.971C209.105 92.7611 211.909 93.2684 211.909 93.2684C211.068 96.7941 217.517 97.5804 223.431 97.5804C228.172 97.5804 232.557 97.0731 232.557 97.0731C232.557 97.0731 236.33 96.6927 239.695 96.2107C239.695 96.2107 255.372 92.0763 255.244 91.2392C253.919 83.2493 239.44 74.7521 239.44 74.7521Z" fill="black"/>
<path d="M265.925 141.512C265.823 127.029 265.186 97.2761 265.135 95.3991C264.574 95.7542 261.133 97.9102 256.57 100.168C252.007 102.425 245.354 105.241 239.695 105.748C239.644 105.748 241.657 105.494 239.644 96.1854C236.865 84.2892 233.271 75.6145 233.22 75.5384L233.194 75.4876H233.245C237.732 74.5999 242.218 73.4077 246.552 71.9366C252.083 70.0596 256.621 67.2948 260.623 64.8598C266.002 61.5877 270.641 58.7468 276.147 58.7468C285.12 58.7468 291.161 63.7691 298.63 72.4692C308.929 84.4922 334.038 114.626 334.318 115.031C334.012 114.854 330.214 108.817 311.554 120.028C309.566 121.347 307.705 122.742 305.768 124.188C300.976 127.765 296.03 131.443 287.924 135.197C275.841 140.802 266.104 141.588 266.002 141.588H265.951L265.925 141.512Z" fill="#46A09D"/>
<path d="M221.596 87.4345C217.798 87.4091 213.999 87.1555 210.227 86.6735C209.946 86.6482 209.742 86.3945 209.793 86.1155C209.819 85.8365 210.074 85.6336 210.354 85.6843C214.05 86.1662 217.849 86.4199 221.596 86.4452C221.876 86.4452 222.106 86.6735 222.106 86.9525C222.106 87.2062 221.876 87.4345 221.596 87.4345Z" fill="black"/>
<path d="M221.341 90.9856C217.645 90.9856 213.948 90.7319 210.303 90.2246C210.023 90.1739 209.819 89.9202 209.87 89.6412C209.921 89.3622 210.176 89.1593 210.456 89.21C214.203 89.7427 218.052 89.9963 221.851 89.971C222.131 89.971 222.36 90.1993 222.36 90.4783C222.36 90.7573 222.131 90.9856 221.851 90.9856C221.672 90.9856 221.519 90.9856 221.341 90.9856Z" fill="black"/>
<path d="M222.106 94.283C217.899 94.1308 214.688 93.7503 212.776 93.5474L212.623 93.5221C212.342 93.4967 212.138 93.243 212.164 92.964C212.189 92.685 212.444 92.4821 212.725 92.5075L212.878 92.5328C214.892 92.7611 217.95 93.1162 222.106 93.2684C222.386 93.2684 222.615 93.5221 222.59 93.8011C222.615 94.0801 222.386 94.283 222.106 94.283Z" fill="black"/>
<path d="M220.755 83.4268C219.098 83.4268 218.537 83.3761 218.486 83.3761C218.205 83.3507 218.001 83.0971 218.027 82.8181C218.052 82.5391 218.282 82.3362 218.588 82.3615C218.613 82.3615 219.913 82.463 224.145 82.3615C224.425 82.3615 224.655 82.5898 224.655 82.8688C224.655 83.1478 224.451 83.3761 224.145 83.3761C222.692 83.4015 221.596 83.4268 220.755 83.4268Z" fill="black"/>
<path d="M265.186 95.8049C265.007 95.8049 264.854 95.7288 264.752 95.5766C264.6 95.3483 264.676 95.0186 264.905 94.8664C270.921 91.1124 274.516 88.3223 274.541 88.2969C274.771 88.1194 275.076 88.1701 275.255 88.373C275.433 88.5759 275.382 88.9057 275.178 89.0832C275.153 89.1086 271.508 91.9241 265.441 95.7034C265.364 95.7795 265.288 95.8049 265.186 95.8049Z" fill="black"/>
<path d="M258.176 99.1023C258.048 99.1023 257.895 99.0516 257.793 98.9502C256.162 97.2253 251.37 97.479 249.662 97.7326C249.407 97.7834 249.152 97.6058 249.101 97.3522C249.05 97.0985 249.177 96.8449 249.432 96.7434C253.715 95.2469 257.335 92.1777 258.048 89.413C258.38 88.1447 258.074 86.9779 257.182 85.9887C256.34 85.0502 255.346 84.5936 254.123 84.5936C254.123 84.5936 254.123 84.5936 254.097 84.5936C250.019 84.5936 245.226 89.7427 245.175 89.7934C245.022 89.9456 244.793 89.9963 244.614 89.9203C244.41 89.8442 244.283 89.6412 244.308 89.4383C244.436 85.3546 243.212 82.2854 241.046 81.2201C239.516 80.4592 237.655 80.8396 235.973 82.2347C235.743 82.4123 235.438 82.3869 235.259 82.1586C235.081 81.9303 235.106 81.6259 235.336 81.4484C237.349 79.7997 239.618 79.3685 241.504 80.307C243.85 81.4484 245.201 84.2892 245.328 88.2208C246.985 86.6482 250.656 83.579 254.097 83.579H254.123C255.627 83.579 256.901 84.1624 257.946 85.3038C259.068 86.5467 259.45 88.0686 259.042 89.6666C258.405 92.1524 255.856 94.7396 252.491 96.5151C252.491 96.5151 252.491 96.5151 252.517 96.5151C254.607 96.5151 257.258 96.8195 258.584 98.2399C258.788 98.4428 258.762 98.7726 258.558 98.9502C258.431 99.0516 258.303 99.1023 258.176 99.1023Z" fill="black"/>
<path d="M240.179 99.0262C240.026 99.0262 239.847 98.9501 239.746 98.7979C239.593 98.5697 239.644 98.2399 239.898 98.0877C241.275 97.1746 241.81 95.9571 241.351 94.8157C240.944 93.8518 239.975 93.3191 239.006 93.4967C238.726 93.5474 238.471 93.3699 238.394 93.0909C238.343 92.8118 238.522 92.5582 238.802 92.4821C240.23 92.2031 241.708 93.0148 242.295 94.4098C242.804 95.6527 242.601 97.5043 240.459 98.8994C240.383 99.0009 240.281 99.0262 240.179 99.0262Z" fill="black"/>
<path d="M277.422 139.686C277.32 139.686 277.243 139.661 277.141 139.61C274.159 137.758 272.629 134.765 271.967 133.117C271.125 134.486 269.264 136.566 265.925 136.389C265.645 136.363 265.441 136.135 265.441 135.856C265.466 135.577 265.696 135.374 265.976 135.374C270.106 135.602 271.533 131.823 271.584 131.645C271.661 131.443 271.865 131.29 272.094 131.316C272.323 131.316 272.502 131.468 272.553 131.696C272.553 131.747 273.827 136.363 277.677 138.748C277.906 138.9 277.982 139.204 277.83 139.458C277.753 139.61 277.6 139.686 277.422 139.686Z" fill="black"/>
<path d="M284.559 137.15C284.534 137.15 284.508 137.15 284.483 137.15C284.202 137.099 283.998 136.845 284.049 136.566C284.763 131.544 280.634 126.623 280.608 126.572C280.481 126.42 280.455 126.167 280.557 125.989C280.659 125.812 280.888 125.71 281.092 125.735C281.194 125.761 290.422 127.384 293.303 124.467C294.042 123.732 294.271 122.768 294.016 121.5C293.252 117.72 284.457 117.847 281.118 118.227C280.914 118.253 280.685 118.126 280.608 117.948C280.506 117.746 280.557 117.517 280.71 117.365C280.786 117.289 287.185 110.897 286.395 106.458C286.14 105.088 285.247 104.074 283.616 103.338C282.469 102.806 281.347 102.806 280.2 103.313C275.892 105.19 273.114 113.611 273.088 113.687C273.012 113.915 272.782 114.068 272.527 114.042C272.272 113.992 272.094 113.789 272.094 113.535C272.094 113.51 272.068 111.303 271.227 109.121C270.131 106.331 268.194 104.911 265.466 104.911C265.186 104.911 264.956 104.683 264.956 104.404C264.956 104.125 265.186 103.896 265.466 103.896C270.717 103.896 272.374 108.513 272.884 111.354C274.031 108.589 276.427 103.846 279.792 102.374C281.194 101.766 282.622 101.766 284.049 102.4C285.961 103.262 287.108 104.581 287.414 106.255C288.128 110.136 284.228 115.031 282.367 117.086C285.706 116.883 294.144 116.807 295.036 121.271C295.342 122.869 295.011 124.163 294.042 125.152C291.467 127.765 284.942 127.257 282.189 126.877C283.438 128.652 285.681 132.559 285.095 136.668C285.018 136.972 284.814 137.15 284.559 137.15Z" fill="black"/>
<path d="M272.119 126.141C271.941 126.141 271.763 126.116 271.584 126.091C269.8 125.735 268.806 123.757 268.882 122.058C268.959 120.383 270.004 119.217 271.61 119.064C273.649 118.862 274.541 119.851 274.898 120.46C275.612 121.677 275.433 123.503 274.516 124.797C273.929 125.659 273.063 126.141 272.119 126.141ZM271.737 120.054C270.157 120.206 269.927 121.525 269.902 122.083C269.851 123.351 270.59 124.848 271.763 125.076C272.757 125.254 273.394 124.594 273.7 124.188C274.388 123.224 274.541 121.829 274.031 120.941C273.623 120.257 272.833 119.952 271.737 120.054Z" fill="black"/>
<path d="M305.36 114.803C304.646 114.803 303.907 114.626 303.193 114.271C301.842 113.611 300.976 112.546 300.619 111.125C299.726 107.549 302.48 102.527 303.984 100.117C300.338 101.334 294.577 101.664 291.391 99.4828C289.606 98.2399 288.816 96.3375 289.122 93.9786C289.326 92.3045 290.142 90.9856 291.518 90.0471C294.705 87.8657 300.211 88.2969 303.27 88.7788C301.103 86.8257 299.752 84.1878 299.854 81.8289C299.905 80.4591 300.491 78.5568 302.913 77.3646C303.168 77.2378 303.474 77.3393 303.601 77.5929C303.729 77.8466 303.627 78.1509 303.372 78.2778C301.791 79.0641 300.95 80.3069 300.874 81.8796C300.772 84.4414 302.76 87.5359 305.589 89.2608C305.793 89.3876 305.895 89.6666 305.793 89.8949C305.691 90.1232 305.437 90.25 305.207 90.1993C305.105 90.1739 296.183 88.094 292.079 90.9095C290.957 91.6958 290.32 92.7357 290.116 94.1308C289.861 96.1093 290.473 97.6565 291.952 98.6711C295.291 100.979 302.072 100.142 305.08 98.595C305.284 98.4936 305.538 98.5443 305.691 98.7218C305.844 98.8994 305.87 99.1531 305.717 99.356C305.666 99.4321 300.491 106.61 301.562 110.948C301.842 112.064 302.505 112.875 303.601 113.408C304.697 113.941 305.717 113.992 306.762 113.51C310.892 111.658 313.313 102.653 313.339 102.552C313.39 102.349 313.568 102.197 313.747 102.171C313.951 102.146 314.155 102.248 314.257 102.4C314.282 102.425 316.576 106.128 320.247 106.94C322.21 107.371 324.249 106.915 326.288 105.545C326.518 105.393 326.849 105.444 327.002 105.697C327.155 105.925 327.104 106.255 326.849 106.407C324.555 107.929 322.261 108.437 320.018 107.929C317.086 107.27 314.996 105.088 314.027 103.82C313.237 106.357 310.917 112.749 307.195 114.423C306.609 114.676 305.997 114.803 305.36 114.803Z" fill="black"/>
<path d="M282.622 83.7819C281.653 83.7819 280.761 83.5029 279.92 82.9449C277.116 81.0679 275.816 76.5783 275.331 74.473C273.751 76.5022 269.749 81.0933 266.205 81.2962C264.956 81.3723 263.886 80.9157 262.994 79.9265C259.986 76.6037 264.523 70.5669 266.358 68.3855C264.982 68.2333 262.509 67.6499 260.062 65.5192C259.858 65.3417 259.833 65.0119 260.011 64.809C260.19 64.6061 260.521 64.5807 260.725 64.7583C263.988 67.6245 267.353 67.4216 267.378 67.4216C267.582 67.3962 267.786 67.5231 267.862 67.7006C267.939 67.8782 267.913 68.1065 267.786 68.2587C267.76 68.284 265.951 70.2371 264.549 72.6214C263.325 74.7013 262.178 77.5422 263.707 79.2416C264.37 80.0026 265.16 80.3323 266.104 80.2816C270.08 80.0533 275.102 73.0273 275.153 72.9512C275.28 72.7736 275.484 72.6975 275.688 72.7482C275.892 72.799 276.045 72.9512 276.071 73.1541C276.071 73.2302 277.167 79.9011 280.43 82.0825C281.398 82.7166 282.443 82.8942 283.591 82.6152C284.61 82.3615 285.324 81.8289 285.732 80.9411C287.414 77.39 283.794 69.9581 283.769 69.882C283.667 69.6791 283.718 69.4508 283.871 69.2986C284.024 69.1464 284.253 69.0957 284.457 69.1971C284.534 69.2225 291.493 72.2663 294.271 68.1065C294.424 67.8782 294.756 67.8021 294.985 67.9543C295.215 68.1065 295.291 68.4362 295.138 68.6645C292.614 72.4439 287.542 71.3278 285.222 70.5669C286.216 72.9004 288.153 78.2524 286.675 81.3723C286.14 82.5391 285.171 83.2747 283.845 83.6044C283.463 83.7059 283.03 83.7819 282.622 83.7819Z" fill="black"/>
<path d="M276.886 66.9143C275.892 66.9143 274.949 66.6607 274.516 66.2295C273.751 65.4685 273.496 64.4285 273.802 63.5154C274.108 62.6023 274.974 61.9682 276.096 61.816C277.677 61.613 279.053 61.9935 279.767 62.7798C280.124 63.1857 280.481 63.8959 280.226 64.9612C279.996 65.8236 279.308 66.4577 278.263 66.7368C277.83 66.8636 277.345 66.9143 276.886 66.9143ZM276.886 62.7798C276.657 62.7798 276.427 62.8052 276.198 62.8306C275.459 62.932 274.949 63.2871 274.745 63.8452C274.567 64.4032 274.745 65.0373 275.204 65.5192C275.484 65.7982 276.81 66.1026 277.957 65.7729C278.441 65.6461 279.053 65.367 279.206 64.7329C279.333 64.2003 279.257 63.7944 278.977 63.4647C278.62 63.0335 277.829 62.7798 276.886 62.7798Z" fill="black"/>
<path d="M314.945 96.4644C314.18 96.4644 313.619 96.2361 313.237 96.0332C312.013 95.3737 311.223 93.9786 311.249 92.5075C311.274 91.1885 311.962 90.0978 313.109 89.5144C313.364 89.3876 313.67 89.489 313.798 89.7427C313.925 89.9963 313.823 90.3007 313.568 90.4275C312.447 90.9856 312.268 92.0002 312.268 92.5328C312.243 93.5981 312.829 94.6635 313.721 95.1454C314.715 95.6781 315.964 95.5005 317.29 94.6127C317.519 94.4606 317.851 94.5113 318.004 94.7649C318.157 94.9932 318.106 95.323 317.851 95.4752C316.729 96.2107 315.735 96.4644 314.945 96.4644Z" fill="black"/>
<path d="M52.8179 129.845C50.0394 128.855 40.939 126.826 40.837 126.801L40.7861 126.775L40.8115 126.725C44.1764 118.583 48.8923 116.401 51.1355 116.401C51.4924 116.401 51.7983 116.452 52.0787 116.528C52.1552 116.579 53.8886 117.619 54.1435 121.652C54.3984 125.685 52.8689 129.743 52.8689 129.794L52.8434 129.845H52.8179Z" fill="black"/>
<path d="M84.9624 157.239C79.4308 157.239 72.9306 157.137 66.0224 157.01C59.7261 156.909 53.2003 156.807 47.2863 156.782H47.2608L47.2353 156.757C47.2353 156.757 46.649 156.021 46.1392 154.525C45.6804 153.155 45.247 150.821 45.6294 147.524C46.0627 144.024 47.5157 141.233 49.0707 138.266C50.3708 135.78 51.8493 133.117 52.8944 129.743C55.7749 118.456 52.0787 116.528 52.0787 116.528C54.2454 117.238 71.8344 128.044 73.6188 129.134C73.007 127.765 68.648 117.568 69.3618 107.701V107.65C69.3618 107.6 70.152 101.588 71.9109 99.3052L71.9364 99.2799H71.9619C71.9874 99.2799 72.0129 99.2799 72.0384 99.2799C72.8286 99.2799 75.1228 97.7073 77.5445 96.0332C80.5015 93.9786 83.5859 91.8733 84.9115 91.8733C85.0389 91.8733 85.1409 91.8987 85.2174 91.9241C95.108 95.602 100.461 112.571 100.512 112.723C107.854 127.765 109.562 135.526 109.714 139.382C109.918 144.962 108.771 148.843 106.095 151.633C102.424 155.463 95.6943 157.239 84.9624 157.239Z" fill="#7C9732"/>
<path d="M77.7739 138.672C70.4579 136.465 64.1106 134.943 64.0341 134.918L63.9831 134.892L64.0086 134.841C67.3735 126.699 72.0893 124.518 74.3326 124.518C74.6895 124.518 74.9953 124.569 75.2758 124.645C75.3267 124.67 77.4935 125.482 78.2582 128.5C79.5328 133.522 77.8504 138.545 77.8249 138.595V138.646L77.7739 138.672Z" fill="black"/>
<path d="M69.3873 107.726C65.1302 106.813 62.0968 105.545 60.3888 103.922C58.9104 102.527 58.7574 101.182 58.8594 100.294C58.8594 100.244 59.1908 98.0116 63.7537 97.7073C64.2635 97.6819 64.8243 97.6565 65.4106 97.6565C68.699 97.6565 71.8854 99.3306 71.9109 99.3306L71.9874 99.356L71.9364 99.4321C70.1775 101.69 69.4128 107.676 69.4128 107.726V107.777L69.3873 107.726Z" fill="black"/>
<path d="M1.58046 169.236C1.07064 169.236 0.560811 169.211 0.0509857 169.16H0L6.55126 144.835H6.57675C18.0733 143.06 27.7345 135.678 32.3739 125.051L32.3994 125.025H32.4504C37.2173 125.862 40.837 126.699 40.8625 126.699C40.9645 126.725 50.0649 128.728 52.8434 129.743L52.8944 129.768L52.8689 129.819C51.3394 135.197 50.4218 140.117 49.4786 145.368L49.3001 146.306C48.2805 151.811 47.3373 156.731 47.3118 156.757V156.807H47.2608C46.4706 156.807 45.6804 156.807 44.8901 156.807C37.7016 156.807 32.5269 156.96 29.111 157.264C20.6479 158.025 16.2634 161.475 12.4143 164.544C11.0887 165.609 9.81414 166.598 8.4886 167.41C6.39831 168.602 4.00213 169.236 1.58046 169.236Z" fill="#A8CA48"/>
<path d="M24.7775 177.353C24.2677 177.353 23.7579 177.328 23.248 177.277H23.1971L29.8758 152.47H29.9013C40.7351 150.339 49.8609 143.034 54.2964 132.964L54.3219 132.939H54.3729C59.7516 133.827 64.0341 134.816 64.0851 134.841C64.1361 134.867 70.5089 136.389 77.8249 138.595H77.8504V138.621C77.8759 140.954 76.5503 144.15 75.1738 147.549C74.0776 150.213 72.956 152.952 72.2678 155.691C71.4775 158.862 71.4011 162.109 72.0129 165.305V165.355H53.0473C52.512 165.355 51.9767 165.381 51.4414 165.457C43.5646 166.37 39.3585 169.693 35.6368 172.635C34.3113 173.7 33.0367 174.69 31.7111 175.501C29.5954 176.719 27.1992 177.353 24.7775 177.353Z" fill="#A8CA48"/>
<path d="M28.7032 157.568C28.6522 157.568 28.6267 157.568 28.5757 157.543C28.2953 157.467 28.1424 157.188 28.2189 156.934L29.4424 152.369C29.4934 152.191 29.6464 152.039 29.8248 152.013C34.7446 151.05 39.486 148.944 43.5136 145.901C43.743 145.723 44.0489 145.774 44.2274 146.002C44.4058 146.23 44.3548 146.535 44.1254 146.712C40.0468 149.781 35.3054 151.937 30.3346 152.952L29.1875 157.213C29.1365 157.416 28.9326 157.568 28.7032 157.568Z" fill="black"/>
<path d="M71.9109 165.355V165.305C71.2991 162.083 71.3756 158.837 72.1658 155.641C72.8796 152.774 73.9502 150.06 74.9699 147.448C76.1934 144.353 77.3151 141.436 77.7229 138.646C79.3544 129.185 77.2641 125.431 75.2758 124.67C77.417 125.38 92.3804 131.899 94.2158 132.711C93.4765 131.772 89.5254 126.598 84.4016 118.912C79.9917 112.292 77.6719 102.425 81.4447 97.4282L81.4701 97.4029L115.068 104.657V104.683C115.246 104.987 132.402 134.283 132.912 147.575C133.09 152.369 131.764 156.275 128.986 159.166C124.984 163.301 117.974 165.381 108.134 165.381L71.9109 165.355Z" fill="#7C9732"/>
<path d="M9.20236 134.994L12.5162 122.641H12.5672C17.9714 122.844 24.4716 123.63 32.4504 125.025H32.5269L32.5014 125.076C29.8758 131.087 25.5678 136.16 20.0617 139.762L20.0362 139.788L9.20236 134.994Z" fill="black"/>
<path d="M32.5524 142.502L35.7133 130.758H35.7643C44.0489 131.265 48.306 131.924 54.3729 132.914H54.4494L54.4239 132.964C52.1042 138.215 48.4589 142.831 43.8705 146.306L43.845 146.332L32.5524 142.502Z" fill="black"/>
<path d="M103.036 43.0713C109.371 43.0713 114.507 37.961 114.507 31.6571C114.507 25.3533 109.371 20.243 103.036 20.243C96.7005 20.243 91.5647 25.3533 91.5647 31.6571C91.5647 37.961 96.7005 43.0713 103.036 43.0713Z" fill="black"/>
<path d="M99.3322 18.047C101.335 12.0665 98.0871 5.60246 92.0768 3.60917C86.0665 1.61589 79.5702 4.84816 77.567 10.8287C75.5638 16.8092 78.8122 23.2732 84.8225 25.2665C90.8328 27.2598 97.329 24.0275 99.3322 18.047Z" fill="black"/>
<path d="M101.455 61.4355C98.1669 61.4355 95.5158 58.7722 95.5158 55.5255C95.5158 52.2788 98.1924 49.6155 101.455 49.6155C104.718 49.6155 107.395 52.2788 107.395 55.5255C107.395 58.7722 104.744 61.4355 101.455 61.4355Z" fill="white"/>
<path d="M101.455 50.0974C104.463 50.0974 106.885 52.5324 106.885 55.5001C106.885 58.4678 104.438 60.9028 101.455 60.9028C98.4728 60.9028 96.0257 58.4678 96.0257 55.5001C96.0257 52.5324 98.4728 50.0974 101.455 50.0974ZM101.455 49.0828C97.8865 49.0828 95.006 51.949 95.006 55.5001C95.006 59.0512 97.8865 61.9174 101.455 61.9174C105.024 61.9174 107.905 59.0512 107.905 55.5001C107.905 51.9744 105.024 49.0828 101.455 49.0828Z" fill="black"/>
<path d="M100.308 56.5401C100.053 56.5401 99.8239 56.3625 99.7984 56.1089C99.7729 55.8299 99.9513 55.5762 100.232 55.5508L104.769 54.9675C105.05 54.9421 105.304 55.1197 105.33 55.3987C105.355 55.6777 105.177 55.9313 104.897 55.9567L100.359 56.5401C100.359 56.5401 100.334 56.5401 100.308 56.5401Z" fill="black"/>
<path d="M112.722 65.7475C108.567 65.7475 105.763 62.653 104.999 57.2756C103.112 43.7054 106.401 39.6217 112.315 37.415C112.34 37.415 115.068 36.4765 118.483 36.4765C122.333 36.4765 125.494 37.6179 127.864 39.85C131.28 43.0713 129.827 50.9598 124.525 58.2649C121.135 62.932 116.699 65.7475 112.722 65.7475Z" fill="white"/>
<path d="M118.509 36.9584C122.231 36.9584 125.264 38.0491 127.558 40.2051C129.037 41.6002 129.547 44.0859 129.037 47.2312C128.476 50.6047 126.743 54.4094 124.168 57.9351C120.88 62.4247 116.521 65.2149 112.748 65.2149C108.873 65.2149 106.248 62.2979 105.534 57.1742C103.699 43.9337 106.834 39.9768 112.519 37.8715C112.646 37.8462 115.246 36.9584 118.509 36.9584ZM118.509 35.9438C114.94 35.9438 112.162 36.933 112.162 36.933C105.559 39.368 102.679 44.2635 104.514 57.3264C105.355 63.4139 108.695 66.2295 112.748 66.2295C116.699 66.2295 121.339 63.5154 124.984 58.5185C130.541 50.8837 131.815 42.7923 128.272 39.4441C125.29 36.7047 121.593 35.9438 118.509 35.9438Z" fill="black"/>
<path d="M112.136 36.933C106.401 39.0637 103.469 43.0206 104.004 52.5832C113.513 51.4417 116.368 39.571 116.368 39.571C122.052 47.0029 129.751 48.677 129.751 48.677C130.694 44.7201 130.235 41.3465 128.247 39.4695C121.925 33.5088 112.136 36.933 112.136 36.933Z" fill="black"/>
<path d="M119.962 56.0835C119.733 56.0835 119.529 55.9313 119.452 55.6777C119.401 55.3986 119.554 55.145 119.835 55.0689C120.191 54.9928 120.548 54.8153 120.829 54.5362C121.262 54.0797 121.644 52.7861 122.078 50.4018C122.129 50.1228 122.384 49.9452 122.664 49.9959C122.944 50.0467 123.123 50.3003 123.072 50.5793C122.562 53.3187 122.129 54.6123 121.542 55.2465L121.517 55.2718C121.084 55.6523 120.574 55.9313 120.038 56.0581C120.038 56.0835 119.987 56.0835 119.962 56.0835Z" fill="black"/>
<path d="M117.999 51.2895C117.948 51.2895 117.897 51.2895 117.846 51.2642C117.566 51.1881 117.438 50.8837 117.515 50.63L117.719 49.9959C117.795 49.7169 118.101 49.5901 118.356 49.6662C118.636 49.7423 118.764 50.0466 118.687 50.3003L118.484 50.9344C118.407 51.1627 118.203 51.2895 117.999 51.2895Z" fill="black"/>
<path d="M125.468 51.9237C125.417 51.9237 125.366 51.9237 125.315 51.8983C125.035 51.8222 124.907 51.5178 124.984 51.2642L125.188 50.6301C125.264 50.351 125.57 50.2242 125.825 50.3003C126.105 50.3764 126.233 50.6808 126.156 50.9344L125.952 51.5686C125.876 51.7968 125.672 51.9237 125.468 51.9237Z" fill="black"/>
<path d="M117.362 58.7722C117.336 58.7722 117.311 58.7722 117.285 58.7722C117.132 58.7468 117.005 58.7215 116.878 58.6961C116.878 58.6961 116.852 58.6961 116.827 58.6961C115.399 58.3156 114.558 56.8444 114.94 55.4494C115.017 55.1704 115.297 55.0182 115.552 55.0943C115.832 55.1704 115.985 55.4494 115.909 55.703C115.679 56.5654 116.189 57.4786 117.056 57.7069C117.183 57.7322 117.285 57.7576 117.438 57.7829C117.719 57.8337 117.897 58.0873 117.846 58.3663C117.821 58.5946 117.617 58.7722 117.362 58.7722Z" fill="black"/>
<path d="M162.099 136.16C160.34 136.16 158.122 135.577 155.497 134.41C148.818 131.417 142.879 127.105 138.137 123.656L137.576 123.25L135.512 118.963L146.804 103.82L149.838 105.165C152.999 107.397 155.854 109.274 158.352 110.948C162.252 113.535 165.082 115.412 165.846 116.427C166.407 117.162 166.586 117.771 166.407 118.253C166.076 119.115 164.648 119.42 164.623 119.42L163.374 119.673L164.47 120.358C164.495 120.383 167.809 122.438 170.333 123.909C172.168 124.974 173.086 126.293 172.856 127.46C172.729 128.145 172.168 128.703 171.531 128.805L170.996 128.881L171.097 129.413C171.097 129.439 171.429 131.062 170.741 131.975C170.46 132.356 170.052 132.559 169.492 132.609L169.109 132.635L169.033 133.015C169.007 133.091 168.625 135.197 166.025 135.197C165.795 135.197 165.54 135.171 165.26 135.146L164.954 135.095L164.776 135.349C164.827 135.323 164.164 136.16 162.099 136.16Z" fill="white"/>
<path d="M146.983 104.429L149.608 105.596C152.744 107.802 155.599 109.705 158.097 111.354C161.819 113.814 164.75 115.767 165.464 116.731C165.719 117.061 166.101 117.669 165.948 118.075C165.77 118.532 164.903 118.862 164.546 118.938L162.023 119.445L164.189 120.789C164.215 120.815 167.529 122.869 170.078 124.366C171.684 125.304 172.55 126.446 172.347 127.384C172.245 127.917 171.811 128.272 171.454 128.323L170.384 128.475L170.613 129.54C170.69 129.921 170.817 131.087 170.358 131.696C170.231 131.848 170.027 132.077 169.492 132.102L168.701 132.178L168.574 132.939C168.574 133.015 168.268 134.689 166.076 134.689C165.846 134.689 165.617 134.664 165.387 134.638L164.776 134.461L164.444 135.019C164.342 135.12 163.731 135.653 162.125 135.653C160.442 135.653 158.275 135.07 155.752 133.928C149.099 130.961 143.465 126.851 138.469 123.224L138.01 122.895L136.123 118.988L146.983 104.429ZM146.651 103.161L134.925 118.887L137.194 123.579C142.216 127.232 148.283 131.722 155.318 134.867C158.403 136.262 160.595 136.668 162.125 136.668C164.521 136.668 165.26 135.628 165.26 135.628C165.566 135.678 165.821 135.678 166.076 135.678C169.16 135.678 169.594 133.091 169.594 133.091C172.398 132.838 171.633 129.287 171.633 129.287C173.417 129.033 174.947 125.989 170.613 123.453C168.039 121.956 164.75 119.902 164.75 119.902C164.75 119.902 168.574 119.141 166.28 116.097C164.929 114.321 158.377 110.517 150.093 104.683L146.651 103.161Z" fill="black"/>
<path d="M137.143 123.605C133.804 121.22 130.566 118.608 127.507 115.894C127.125 116.046 123.301 117.593 117.26 117.593C111.907 117.593 106.426 116.427 100.996 114.093C93.8079 111.049 89.7548 108.411 86.186 106.078C81.98 103.338 78.6661 101.182 71.9619 99.4067C65.6656 97.8848 60.2614 98.4428 58.8849 100.269C58.9868 99.8125 59.2927 99.3052 59.4712 98.9755C60.3379 97.5297 68.0872 88.8803 93.5785 66.0772C99.416 60.8521 104.234 58.4171 108.746 58.4171C111.244 58.4171 113.666 59.1526 116.317 60.7506C121.237 63.6929 125.06 70.2117 129.47 77.7705C131.994 82.0825 134.594 86.5467 137.729 90.9348C141.655 96.4644 145.581 100.802 150.093 104.632L150.118 104.657L137.143 123.63V123.605Z" fill="#A8CA48"/>
<path d="M163.731 120.409C163.629 120.409 163.552 120.383 163.476 120.333L159.652 118.05C159.422 117.898 159.321 117.593 159.473 117.365C159.626 117.137 159.932 117.035 160.162 117.187L163.985 119.47C164.215 119.623 164.317 119.927 164.164 120.155C164.062 120.333 163.909 120.409 163.731 120.409Z" fill="black"/>
<path d="M171.123 129.54C171.047 129.54 170.996 129.54 170.919 129.515C165.336 127.232 154.707 120.13 154.248 119.825C154.018 119.673 153.942 119.343 154.12 119.115C154.299 118.887 154.605 118.811 154.834 118.988C154.936 119.064 165.821 126.344 171.301 128.576C171.556 128.678 171.684 128.982 171.582 129.236C171.505 129.413 171.327 129.54 171.123 129.54Z" fill="black"/>
<path d="M169.16 133.218C169.135 133.218 169.109 133.218 169.084 133.218C166.331 132.787 155.344 125.989 151.699 123.63C151.469 123.478 151.393 123.174 151.546 122.92C151.699 122.692 152.005 122.616 152.259 122.768C157.817 126.37 167.07 131.848 169.237 132.203C169.517 132.254 169.695 132.508 169.67 132.787C169.619 133.041 169.415 133.218 169.16 133.218Z" fill="black"/>
<path d="M165.26 135.628C165.209 135.628 165.184 135.628 165.133 135.602C161.793 134.715 155.293 130.656 151.418 128.247C150.755 127.841 150.169 127.46 149.685 127.181C149.455 127.029 149.379 126.725 149.506 126.471C149.659 126.243 149.965 126.167 150.22 126.293C150.704 126.598 151.291 126.953 151.954 127.359C155.777 129.743 162.201 133.751 165.387 134.588C165.668 134.664 165.821 134.943 165.744 135.197C165.693 135.476 165.489 135.628 165.26 135.628Z" fill="black"/>
<path d="M127.533 116.35C127.405 116.35 127.303 116.3 127.201 116.224C116.801 107.397 109.332 94.9171 109.256 94.7903C109.103 94.5367 109.205 94.2323 109.434 94.1054C109.689 93.9533 109.995 94.0547 110.122 94.283C110.199 94.4098 117.591 106.737 127.864 115.463C128.068 115.64 128.094 115.97 127.915 116.173C127.813 116.3 127.686 116.35 127.533 116.35Z" fill="black"/>
<path d="M87.0017 88.9564C86.8998 88.9564 86.7978 88.931 86.7213 88.8803C86.6704 88.8295 80.3995 84.6951 73.1855 85.4814C72.9051 85.5067 72.6501 85.3038 72.6246 85.0248C72.5992 84.7458 72.8031 84.4921 73.0835 84.4668C80.6799 83.6297 87.0272 87.8403 87.2821 88.0179C87.5116 88.17 87.5625 88.4998 87.4096 88.7281C87.3331 88.8803 87.1547 88.9564 87.0017 88.9564Z" fill="black"/>
<path d="M92.6098 81.0933C92.5079 81.0933 92.4059 81.0679 92.3294 81.0172C92.2784 80.9918 87.4606 77.7958 81.4701 77.5168C81.1897 77.5168 80.9603 77.2632 80.9858 76.9841C81.0113 76.7051 81.2407 76.4769 81.5211 76.5022C87.8175 76.7812 92.6863 80.0279 92.8902 80.1548C93.1196 80.3069 93.1961 80.6367 93.0177 80.865C92.9412 81.0172 92.7628 81.0933 92.6098 81.0933Z" fill="black"/>
<path d="M55.1376 166.066C54.8572 166.066 54.6278 165.837 54.6278 165.558V157.442C54.6278 157.163 54.8572 156.934 55.1376 156.934C55.4181 156.934 55.6475 157.163 55.6475 157.442V165.558C55.6475 165.837 55.4181 166.066 55.1376 166.066Z" fill="black"/>
<path d="M48.0766 166.446C47.8471 166.446 47.6687 166.319 47.5922 166.091L45.0686 158.101C44.9921 157.822 45.1451 157.543 45.4 157.467C45.6804 157.391 45.9608 157.543 46.0373 157.797L48.5609 165.787C48.6374 166.066 48.4844 166.345 48.2295 166.421C48.1785 166.446 48.1275 166.446 48.0766 166.446Z" fill="black"/>
<path d="M22.5343 159.09C22.3304 159.09 22.1264 158.963 22.05 158.735L19.5008 150.745C19.4244 150.466 19.5518 150.187 19.8322 150.111C20.1126 150.035 20.393 150.162 20.4695 150.441L23.0186 158.431C23.0951 158.71 22.9676 158.989 22.6872 159.065C22.6363 159.09 22.5853 159.09 22.5343 159.09Z" fill="black"/>
<path d="M137.169 124.087C137.067 124.087 136.965 124.061 136.888 124.011C136.659 123.858 136.608 123.529 136.761 123.3L149.685 104.404C149.838 104.175 150.169 104.099 150.399 104.277C150.628 104.429 150.679 104.759 150.526 104.987L137.602 123.884C137.5 124.011 137.322 124.087 137.169 124.087Z" fill="black"/>
<path d="M123.352 112.495C123.225 112.495 123.123 112.444 123.021 112.368C122.817 112.191 122.792 111.861 122.97 111.658L139.106 93.0401C139.284 92.8372 139.616 92.8118 139.82 92.9894C140.024 93.1669 140.049 93.4967 139.871 93.6996L123.735 112.317C123.633 112.444 123.505 112.495 123.352 112.495Z" fill="black"/>
<path d="M134.925 115.589C136.615 115.589 137.984 114.227 137.984 112.546C137.984 110.865 136.615 109.502 134.925 109.502C133.236 109.502 131.866 110.865 131.866 112.546C131.866 114.227 133.236 115.589 134.925 115.589Z" fill="black"/>
<path d="M109.689 139.94C109.613 139.94 109.562 139.914 109.485 139.889C109.154 139.762 77.3661 125.938 75.1228 125.203C74.8679 125.127 74.715 124.822 74.7914 124.569C74.8679 124.315 75.1738 124.163 75.4287 124.239C77.7229 125 108.567 138.392 109.893 138.976C110.148 139.077 110.275 139.382 110.148 139.635C110.071 139.838 109.893 139.94 109.689 139.94Z" fill="black"/>
<path d="M94.3942 133.345C94.2413 133.345 94.0883 133.269 93.9864 133.142C93.9354 133.091 89.7038 127.689 84.0193 119.166C81.7505 115.742 80.1956 111.937 79.4053 107.853C79.3544 107.574 79.5328 107.321 79.8132 107.27C80.0936 107.219 80.3485 107.397 80.3995 107.676C81.1642 111.633 82.6682 115.31 84.8605 118.633C90.5195 127.105 94.7256 132.508 94.7766 132.559C94.955 132.787 94.9041 133.091 94.7001 133.269C94.6237 133.32 94.4962 133.345 94.3942 133.345Z" fill="black"/>
</svg>
