<svg width="50" height="50" viewBox="0 0 50 50" fill="none" xmlns="http://www.w3.org/2000/svg">
<path d="M25 50C38.8071 50 50 38.8071 50 25C50 11.1929 38.8071 0 25 0C11.1929 0 0 11.1929 0 25C0 38.8071 11.1929 50 25 50Z" fill="#FFDD67"/>
<path d="M15.4169 24.6663C17.7181 24.6663 19.5836 22.8009 19.5836 20.4997C19.5836 18.1985 17.7181 16.333 15.4169 16.333C13.1157 16.333 11.2502 18.1985 11.2502 20.4997C11.2502 22.8009 13.1157 24.6663 15.4169 24.6663Z" fill="#664E27"/>
<path d="M34.5839 24.6663C36.8851 24.6663 38.7506 22.8009 38.7506 20.4997C38.7506 18.1985 36.8851 16.333 34.5839 16.333C32.2827 16.333 30.4172 18.1985 30.4172 20.4997C30.4172 22.8009 32.2827 24.6663 34.5839 24.6663Z" fill="#664E27"/>
<path d="M35.5001 31.9167C28.7501 36.6667 21.2501 36.5833 14.5001 31.9167C13.6668 31.3333 13.0001 32.3333 13.5001 33.25C15.5834 36.5833 19.6668 39.6667 25.0001 39.6667C30.3334 39.6667 34.4168 36.6667 36.5001 33.25C37.0001 32.3333 36.3334 31.3333 35.5001 31.9167Z" fill="#664E27"/>
</svg>
