<svg width="50" height="50" viewBox="0 0 50 50" fill="none" xmlns="http://www.w3.org/2000/svg">
<path d="M25 50C38.8071 50 50 38.8071 50 25C50 11.1929 38.8071 0 25 0C11.1929 0 0 11.1929 0 25C0 38.8071 11.1929 50 25 50Z" fill="#FFDD67"/>
<path d="M19.5831 22.0003C20.7498 24.4169 19.2498 27.5003 16.3331 28.9169C13.4165 30.2503 10.0831 29.4169 8.91645 27.0003C8.24979 25.4169 18.9165 20.4169 19.5831 22.0003ZM30.4165 22.0003C29.2498 24.4169 30.7498 27.5003 33.6665 28.9169C36.5831 30.2503 39.9165 29.4169 41.0831 27.0003C41.7498 25.4169 31.0831 20.4169 30.4165 22.0003Z" fill="#664E27"/>
<path d="M17.2501 14.8333C15.0001 17.5833 9.58344 20.0833 6.00011 20.0833C5.50011 20.0833 5.41678 21.9166 6.00011 21.9166C10.0834 21.9166 16.0001 19.1666 18.6668 15.9999C19.0834 15.5833 17.5834 14.4999 17.2501 14.8333ZM32.7501 14.8333C35.0001 17.5833 40.4168 20.0833 44.0001 20.0833C44.5001 20.0833 44.5834 21.9166 44.0001 21.9166C39.9168 21.9166 34.0001 19.1666 31.3334 15.9999C30.9168 15.5833 32.4168 14.4999 32.7501 14.8333Z" fill="#917524"/>
<path d="M32.1665 37C27.6665 34.9167 22.3332 34.9167 17.8332 37C16.7498 37.5 18.0832 40.5 19.2498 39.9167C22.2498 38.5 26.6665 38 30.8332 39.9167C31.9165 40.4167 33.3332 37.5833 32.1665 37Z" fill="#664E27"/>
</svg>
