<svg width="50" height="50" viewBox="0 0 50 50" fill="none" xmlns="http://www.w3.org/2000/svg">
<path d="M25 50C38.8071 50 50 38.8071 50 25C50 11.1929 38.8071 0 25 0C11.1929 0 0 11.1929 0 25C0 38.8071 11.1929 50 25 50Z" fill="#FFDD67"/>
<path d="M15.4184 25.4974C17.7196 25.4974 19.585 23.6319 19.585 21.3307C19.585 19.0295 17.7196 17.1641 15.4184 17.1641C13.1172 17.1641 11.2517 19.0295 11.2517 21.3307C11.2517 23.6319 13.1172 25.4974 15.4184 25.4974Z" fill="#664E27"/>
<path d="M34.5844 25.4974C36.8856 25.4974 38.7511 23.6319 38.7511 21.3307C38.7511 19.0295 36.8856 17.1641 34.5844 17.1641C32.2832 17.1641 30.4177 19.0295 30.4177 21.3307C30.4177 23.6319 32.2832 25.4974 34.5844 25.4974Z" fill="#664E27"/>
<path d="M30.7498 38.3275H19.2498C17.9998 38.3275 17.9998 34.9941 19.2498 34.9941H30.6664C31.9998 34.9941 31.9998 38.3275 30.7498 38.3275Z" fill="#664E27"/>
</svg>
