<svg width="50" height="50" viewBox="0 0 50 50" fill="none" xmlns="http://www.w3.org/2000/svg">
<path d="M45.8333 21.8753V32.292C45.8333 39.5837 41.6667 42.7087 35.4167 42.7087H14.5833C8.33332 42.7087 4.16666 39.5837 4.16666 32.292V17.7087C4.16666 10.417 8.33332 7.29199 14.5833 7.29199H29.1667" stroke="#46A09D" stroke-width="2" stroke-miterlimit="10" stroke-linecap="round" stroke-linejoin="round"/>
<path d="M14.5833 18.75L21.1042 23.9583C23.25 25.6667 26.7709 25.6667 28.9167 23.9583L31.375 22" stroke="#46A09D" stroke-width="2" stroke-miterlimit="10" stroke-linecap="round" stroke-linejoin="round"/>
<path d="M40.625 16.6667C43.5015 16.6667 45.8333 14.3348 45.8333 11.4583C45.8333 8.58185 43.5015 6.25 40.625 6.25C37.7485 6.25 35.4167 8.58185 35.4167 11.4583C35.4167 14.3348 37.7485 16.6667 40.625 16.6667Z" stroke="#46A09D" stroke-width="2" stroke-miterlimit="10" stroke-linecap="round" stroke-linejoin="round"/>
</svg>
