<svg width="22" height="22" viewBox="0 0 22 22" fill="none" xmlns="http://www.w3.org/2000/svg">
<path d="M11 6.94092C11.2075 6.94092 11.3984 7.02393 11.5479 7.18164L17.9893 13.7559C18.1304 13.9053 18.2051 14.0879 18.2051 14.3037C18.2051 14.7271 17.8813 15.0591 17.4497 15.0591C17.2422 15.0591 17.0513 14.9761 16.9102 14.8433L11 8.80029L5.08984 14.8433C4.94873 14.9761 4.76611 15.0591 4.55029 15.0591C4.11865 15.0591 3.79492 14.7271 3.79492 14.3037C3.79492 14.0879 3.86963 13.9053 4.01904 13.7559L10.4521 7.18164C10.6099 7.02393 10.7925 6.94092 11 6.94092Z" fill="#616161"/>
</svg>
