<svg width="22" height="22" viewBox="0 0 22 22" fill="none" xmlns="http://www.w3.org/2000/svg">
<path d="M11 15.0591C11.2075 15.0591 11.3984 14.9761 11.5479 14.8184L17.9893 8.24414C18.1304 8.09473 18.2051 7.91211 18.2051 7.69629C18.2051 7.27295 17.8813 6.94092 17.4497 6.94092C17.2422 6.94092 17.0513 7.02393 16.9102 7.15674L11 13.1997L5.08984 7.15674C4.94873 7.02393 4.76611 6.94092 4.55029 6.94092C4.11865 6.94092 3.79492 7.27295 3.79492 7.69629C3.79492 7.91211 3.86963 8.09473 4.01904 8.24414L10.4521 14.8184C10.6099 14.9761 10.7925 15.0591 11 15.0591Z" fill="#616161"/>
</svg>
