<svg width="18" height="18" viewBox="0 0 18 18" fill="none" xmlns="http://www.w3.org/2000/svg">
<path opacity="0.7" fill-rule="evenodd" clip-rule="evenodd" d="M9 18C13.9706 18 18 13.9705 18 9C18 4.02953 13.9706 0 9 0C4.02943 0 0 4.02953 0 9C0 13.9705 4.02943 18 9 18ZM12.9872 5.01287C13.318 5.34349 13.318 5.87988 12.9872 6.21077L10.1979 9L12.9872 11.7892C13.318 12.1201 13.318 12.6565 12.9872 12.9871C12.6564 13.318 12.1201 13.318 11.7893 12.9871L9 10.1979L6.21073 12.9871C5.87995 13.318 5.34362 13.318 5.0128 12.9871C4.68202 12.6565 4.68202 12.1201 5.0128 11.7892L7.80207 9L5.0128 6.21077C4.68202 5.87988 4.68202 5.34349 5.0128 5.01287C5.34359 4.68199 5.87992 4.68199 6.21073 5.01287L9 7.8021L11.7893 5.01287C12.1201 4.68199 12.6564 4.68199 12.9872 5.01287Z" fill="#616161"/>
</svg>
