<svg width="8" height="13" viewBox="0 0 8 13" fill="none" xmlns="http://www.w3.org/2000/svg">
<path d="M0.609009 3.8125H2.44495C2.50745 2.84375 3.15588 2.22656 4.1637 2.22656C5.14807 2.22656 5.80432 2.82812 5.80432 3.65625C5.80432 4.42969 5.4762 4.85156 4.50745 5.4375C3.42932 6.07031 2.9762 6.77344 3.04651 7.92969L3.05432 8.48438H4.86682V8.03125C4.86682 7.25 5.15588 6.84375 6.17932 6.25C7.24182 5.61719 7.83557 4.78125 7.83557 3.58594C7.83557 1.86719 6.40588 0.632812 4.26526 0.632812C1.94495 0.632812 0.671509 1.97656 0.609009 3.8125ZM3.98401 12.1562C4.61682 12.1562 5.11682 11.6641 5.11682 11.0469C5.11682 10.4297 4.61682 9.94531 3.98401 9.94531C3.3512 9.94531 2.84338 10.4297 2.84338 11.0469C2.84338 11.6641 3.3512 12.1562 3.98401 12.1562Z" fill="black"/>
</svg>
