<svg width="27" height="27" viewBox="0 0 27 27" fill="none" xmlns="http://www.w3.org/2000/svg">
<rect width="27" height="27" rx="13.5" fill="#46A09D"/>
<path d="M19.3333 16.2647V9.22383C19.3333 8.52383 18.7616 8.00466 18.0675 8.063H18.0325C16.8075 8.168 14.9466 8.79216 13.9083 9.4455L13.8091 9.50966C13.64 9.61466 13.36 9.61466 13.1908 9.50966L13.045 9.42216C12.0066 8.77466 10.1516 8.15633 8.92663 8.05716C8.23246 7.99883 7.66663 8.52383 7.66663 9.218V16.2647C7.66663 16.8247 8.12163 17.3497 8.68163 17.4197L8.85079 17.443C10.1166 17.6122 12.0708 18.2538 13.1908 18.8663L13.2141 18.878C13.3716 18.9655 13.6225 18.9655 13.7741 18.878C14.8941 18.2597 16.8541 17.6122 18.1258 17.443L18.3183 17.4197C18.8783 17.3497 19.3333 16.8247 19.3333 16.2647Z" stroke="white" stroke-linecap="round" stroke-linejoin="round"/>
<path d="M13.5 9.70215V18.4521" stroke="white" stroke-linecap="round" stroke-linejoin="round"/>
<path d="M11.0209 11.4521H9.70837" stroke="white" stroke-linecap="round" stroke-linejoin="round"/>
<path d="M11.4584 13.2021H9.70837" stroke="white" stroke-linecap="round" stroke-linejoin="round"/>
</svg>
